<svg xmlns="http://www.w3.org/2000/svg" width="29.752" height="29.752" viewBox="0 0 29.752 29.752">
  <path id="Icon_awesome-font" data-name="Icon awesome-font" d="M28.689,27.752H27.135L18.454,3.69a2.125,2.125,0,0,0-2.012-1.44H13.31A2.125,2.125,0,0,0,11.3,3.691L2.617,27.752H1.063A1.063,1.063,0,0,0,0,28.814v2.125A1.063,1.063,0,0,0,1.063,32h8.5a1.063,1.063,0,0,0,1.063-1.063V28.814a1.063,1.063,0,0,0-1.063-1.063h-1.3L9.81,23.5H19.942l1.547,4.25h-1.3a1.063,1.063,0,0,0-1.063,1.063v2.125A1.063,1.063,0,0,0,20.189,32h8.5a1.063,1.063,0,0,0,1.063-1.063V28.814A1.063,1.063,0,0,0,28.689,27.752ZM11.745,18.189l3.131-8.6,3.131,8.6Z" transform="translate(0 -2.25)" fill="#656565"/>
</svg>
