<svg xmlns="http://www.w3.org/2000/svg" width="60.024" height="53.253" viewBox="0 0 60.024 53.253">
  <g id="slaypay_logo_sp-01" data-name="slaypay logo sp-01" transform="translate(-21.81 -27.644)">
    <g id="Layer_1" data-name="Layer 1" transform="translate(21.81 27.644)">
      <g id="Group_6946" data-name="Group 6946" transform="translate(0 0)">
        <g id="Group_6824" data-name="Group 6824">
          <path id="Path_14892" data-name="Path 14892" d="M10.81,68.722c3.7-6.727,7.3-12.724,10.378-19.035,1.512-3.077,3.338-3.963,6.675-3.807,8.761.261,17.522.1,26.283.1,3.546,0,5.789-2.764,4.172-5.424a5.606,5.606,0,0,0-3.911-2.242c-4.9-.261-9.856-.1-14.81-.1H36.363c1.408-2.5,2.451-4.693,3.807-6.727a2.714,2.714,0,0,1,2.086-.782c4.224-.052,8.448-.1,12.62,0A11.272,11.272,0,0,1,66.141,42.073c0,6.258-4.8,11.108-11.369,11.212-8.031.1-16.114.1-24.145,0A3.612,3.612,0,0,0,26.82,55.58c-1.93,3.755-6.1,10.9-6.1,10.9l-1.252,2.295h-2.3C17.12,68.774,13.313,68.722,10.81,68.722Z" transform="translate(-10.81 -15.521)" fill="#050505"/>
          <path id="Path_14893" data-name="Path 14893" d="M86.789,1.652V9.005H83.816c-9.074,0-18.1.052-27.17,0a6.957,6.957,0,0,0-6.884,4.016c-1.043,1.982-2.19,3.963-3.494,6.258a10.459,10.459,0,0,1-1.1-10.795C47.1,4.26,50.389,1.809,55.03,1.757c7.927-.156,15.906-.1,23.832-.1Z" transform="translate(-26.765 -1.644)" fill="#050505"/>
        </g>
      </g>
    </g>
  </g>
</svg>
