<svg id="Layer_1" data-name="Layer 1" xmlns="http://www.w3.org/2000/svg" xmlns:xlink="http://www.w3.org/1999/xlink" viewBox="0 0 2261.11 2236.6"><defs><clipPath id="clip-path"><rect x="1124.7" y="-62" width="1154.4" height="787.09" style="fill:none"/></clipPath><linearGradient id="linear-gradient" x1="3160.01" y1="1424.32" x2="3161.08" y2="1424.32" gradientTransform="matrix(208.72, 0, 0, -208.72, -658443.1, 297339.18)" gradientUnits="userSpaceOnUse"><stop offset="0" stop-color="#bcbcbc"/><stop offset="1" stop-color="#b1b1b1"/></linearGradient><linearGradient id="linear-gradient-2" x1="3159.75" y1="1424.29" x2="3160.82" y2="1424.29" gradientTransform="matrix(370.28, 0, 0, -370.28, -1168858.34, 527515.95)" xlink:href="#linear-gradient"/><linearGradient id="linear-gradient-3" x1="3159.65" y1="1424.27" x2="3160.72" y2="1424.27" gradientTransform="matrix(530.81, 0, 0, -530.81, -1676046.96, 756238.4)" xlink:href="#linear-gradient"/><linearGradient id="linear-gradient-4" x1="3159.76" y1="1424.28" x2="3160.83" y2="1424.28" gradientTransform="matrix(426.77, 0, 0, -426.77, -1347025.81, 607972.26)" xlink:href="#linear-gradient"/><linearGradient id="linear-gradient-5" x1="3159.81" y1="1424.27" x2="3160.88" y2="1424.27" gradientTransform="matrix(384.68, 0, 0, -384.68, -1213982.48, 548117.97)" xlink:href="#linear-gradient"/><linearGradient id="linear-gradient-6" x1="3159.96" y1="1424.25" x2="3161.03" y2="1424.25" gradientTransform="matrix(295.32, 0, 0, -295.32, -931524.82, 420929.01)" xlink:href="#linear-gradient"/><linearGradient id="linear-gradient-7" x1="3160.24" y1="1424.2" x2="3161.31" y2="1424.2" gradientTransform="matrix(205.53, 0, 0, -205.53, -647722.19, 293134.09)" xlink:href="#linear-gradient"/><linearGradient id="linear-gradient-8" x1="3160.04" y1="1424.22" x2="3161.11" y2="1424.22" gradientTransform="matrix(287.74, 0, 0, -287.74, -907313.87, 410232.67)" xlink:href="#linear-gradient"/><linearGradient id="linear-gradient-9" x1="3160.47" y1="1424.15" x2="3161.54" y2="1424.15" gradientTransform="matrix(177.57, 0, 0, -177.57, -559128.94, 253421.28)" xlink:href="#linear-gradient"/><linearGradient id="linear-gradient-10" x1="3162.29" y1="1423.83" x2="3163.36" y2="1423.83" gradientTransform="matrix(67.4, 0, 0, -67.4, -210944.21, 96610.82)" xlink:href="#linear-gradient"/><linearGradient id="linear-gradient-11" x1="3159.6" y1="1424.25" x2="3160.67" y2="1424.25" gradientTransform="matrix(794.62, 0, 0, -794.62, -2509307.92, 1132250.44)" xlink:href="#linear-gradient"/><linearGradient id="linear-gradient-12" x1="3159.63" y1="1424.24" x2="3160.7" y2="1424.24" gradientTransform="matrix(630.3, 0, 0, -630.3, -1990238.69, 898256.56)" xlink:href="#linear-gradient"/><linearGradient id="linear-gradient-13" x1="3159.69" y1="1424.22" x2="3160.76" y2="1424.22" gradientTransform="matrix(465.45, 0, 0, -465.45, -1469489.11, 663505.42)" xlink:href="#linear-gradient"/><linearGradient id="linear-gradient-14" x1="3159.88" y1="1424.16" x2="3160.95" y2="1424.16" gradientTransform="matrix(268.34, 0, 0, -268.34, -846798.64, 382813.86)" xlink:href="#linear-gradient"/><linearGradient id="linear-gradient-15" x1="3160.39" y1="1424.29" x2="3161.46" y2="1424.29" gradientTransform="matrix(180.6, 0, 0, -180.6, -568819.15, 257372)" xlink:href="#linear-gradient"/><linearGradient id="linear-gradient-16" x1="3160.61" y1="1424.31" x2="3161.68" y2="1424.31" gradientTransform="matrix(154.81, 0, 0, -154.81, -487226.4, 220605.02)" xlink:href="#linear-gradient"/><linearGradient id="linear-gradient-17" x1="3161.8" y1="1424.37" x2="3162.87" y2="1424.37" gradientTransform="matrix(80.94, 0, 0, -80.94, -253711.08, 115351.92)" xlink:href="#linear-gradient"/><linearGradient id="linear-gradient-18" x1="3160.36" y1="1424.35" x2="3161.43" y2="1424.35" gradientTransform="matrix(169.4, 0, 0, -169.4, -533689.94, 241275.4)" xlink:href="#linear-gradient"/><linearGradient id="linear-gradient-19" x1="3159.78" y1="1424.22" x2="3160.85" y2="1424.22" gradientTransform="matrix(287.74, 0, 0, -287.74, -908391.87, 410232.67)" xlink:href="#linear-gradient"/><linearGradient id="linear-gradient-20" x1="3160.04" y1="1424.15" x2="3161.11" y2="1424.15" gradientTransform="matrix(177.57, 0, 0, -177.57, -560206.94, 253421.28)" xlink:href="#linear-gradient"/><linearGradient id="linear-gradient-21" x1="3161.15" y1="1423.83" x2="3162.23" y2="1423.83" gradientTransform="matrix(67.4, 0, 0, -67.4, -212022.21, 96610.82)" xlink:href="#linear-gradient"/><linearGradient id="linear-gradient-22" x1="3160.85" y1="1424.37" x2="3161.92" y2="1424.37" gradientTransform="matrix(80.94, 0, 0, -80.94, -254789.08, 115351.92)" xlink:href="#linear-gradient"/><clipPath id="clip-path-2"><rect x="1124.7" y="725.09" width="1154.4" height="787.09" style="fill:none"/></clipPath><linearGradient id="linear-gradient-23" x1="3160.01" y1="1424.07" x2="3161.08" y2="1424.07" gradientTransform="matrix(208.72, 0, 0, -208.72, -658443.1, 298074.18)" xlink:href="#linear-gradient"/><linearGradient id="linear-gradient-24" x1="3159.75" y1="1424.14" x2="3160.82" y2="1424.14" gradientTransform="matrix(370.28, 0, 0, -370.28, -1168858.34, 528250.95)" xlink:href="#linear-gradient"/><linearGradient id="linear-gradient-25" x1="3159.65" y1="1424.17" x2="3160.72" y2="1424.17" gradientTransform="matrix(530.81, 0, 0, -530.81, -1676046.96, 756973.4)" xlink:href="#linear-gradient"/><linearGradient id="linear-gradient-26" x1="3161.92" y1="1423.51" x2="3162.99" y2="1423.51" gradientTransform="matrix(48.68, 0, 0, -48.68, -152800.6, 70048.7)" xlink:href="#linear-gradient"/><linearGradient id="linear-gradient-27" x1="3159.76" y1="1424.16" x2="3160.83" y2="1424.16" gradientTransform="matrix(426.77, 0, 0, -426.77, -1347025.81, 608707.26)" xlink:href="#linear-gradient"/><linearGradient id="linear-gradient-28" x1="3159.81" y1="1424.13" x2="3160.88" y2="1424.13" gradientTransform="matrix(384.68, 0, 0, -384.68, -1213982.48, 548852.97)" xlink:href="#linear-gradient"/><linearGradient id="linear-gradient-29" x1="3159.96" y1="1424.07" x2="3161.03" y2="1424.07" gradientTransform="matrix(295.32, 0, 0, -295.32, -931524.82, 421664.01)" xlink:href="#linear-gradient"/><linearGradient id="linear-gradient-30" x1="3160.24" y1="1423.95" x2="3161.31" y2="1423.95" gradientTransform="matrix(205.53, 0, 0, -205.53, -647722.19, 293869.09)" xlink:href="#linear-gradient"/><linearGradient id="linear-gradient-31" x1="3160.04" y1="1424.04" x2="3161.11" y2="1424.04" gradientTransform="matrix(287.74, 0, 0, -287.74, -907313.87, 410967.67)" xlink:href="#linear-gradient"/><linearGradient id="linear-gradient-32" x1="3160.47" y1="1423.85" x2="3161.54" y2="1423.85" gradientTransform="matrix(177.57, 0, 0, -177.57, -559128.94, 254156.28)" xlink:href="#linear-gradient"/><linearGradient id="linear-gradient-33" x1="3162.29" y1="1423.06" x2="3163.36" y2="1423.06" gradientTransform="matrix(67.4, 0, 0, -67.4, -210944.21, 97345.82)" xlink:href="#linear-gradient"/><linearGradient id="linear-gradient-34" x1="3159.6" y1="1424.18" x2="3160.67" y2="1424.18" gradientTransform="matrix(794.62, 0, 0, -794.62, -2509307.92, 1132985.44)" xlink:href="#linear-gradient"/><linearGradient id="linear-gradient-35" x1="3159.63" y1="1424.15" x2="3160.7" y2="1424.15" gradientTransform="matrix(630.3, 0, 0, -630.3, -1990238.69, 898991.56)" xlink:href="#linear-gradient"/><linearGradient id="linear-gradient-36" x1="3159.69" y1="1424.1" x2="3160.76" y2="1424.1" gradientTransform="matrix(465.45, 0, 0, -465.45, -1469489.11, 664240.42)" xlink:href="#linear-gradient"/><linearGradient id="linear-gradient-37" x1="3159.88" y1="1423.97" x2="3160.95" y2="1423.97" gradientTransform="matrix(268.34, 0, 0, -268.34, -846798.64, 383548.86)" xlink:href="#linear-gradient"/><linearGradient id="linear-gradient-38" x1="3160.39" y1="1424" x2="3161.46" y2="1424" gradientTransform="matrix(180.6, 0, 0, -180.6, -568819.15, 258107)" xlink:href="#linear-gradient"/><linearGradient id="linear-gradient-39" x1="3160.61" y1="1423.97" x2="3161.68" y2="1423.97" gradientTransform="matrix(154.81, 0, 0, -154.81, -487226.4, 221340.02)" xlink:href="#linear-gradient"/><linearGradient id="linear-gradient-40" x1="3161.8" y1="1423.73" x2="3162.87" y2="1423.73" gradientTransform="matrix(80.94, 0, 0, -80.94, -253711.08, 116086.92)" xlink:href="#linear-gradient"/><linearGradient id="linear-gradient-41" x1="3160.36" y1="1424.05" x2="3161.43" y2="1424.05" gradientTransform="matrix(169.4, 0, 0, -169.4, -533689.94, 242010.4)" xlink:href="#linear-gradient"/><linearGradient id="linear-gradient-42" x1="3159.78" y1="1424.04" x2="3160.85" y2="1424.04" gradientTransform="matrix(287.74, 0, 0, -287.74, -908391.87, 410967.67)" xlink:href="#linear-gradient"/><linearGradient id="linear-gradient-43" x1="3160.04" y1="1423.85" x2="3161.11" y2="1423.85" gradientTransform="matrix(177.57, 0, 0, -177.57, -560206.94, 254156.28)" xlink:href="#linear-gradient"/><linearGradient id="linear-gradient-44" x1="3161.15" y1="1423.06" x2="3162.23" y2="1423.06" gradientTransform="matrix(67.4, 0, 0, -67.4, -212022.21, 97345.82)" xlink:href="#linear-gradient"/><linearGradient id="linear-gradient-45" x1="3160.85" y1="1423.73" x2="3161.92" y2="1423.73" gradientTransform="matrix(80.94, 0, 0, -80.94, -254789.08, 116086.92)" xlink:href="#linear-gradient"/><clipPath id="clip-path-3"><rect x="1124.7" y="1512.18" width="1154.4" height="787.09" style="fill:none"/></clipPath><linearGradient id="linear-gradient-46" x1="3160.01" y1="1423.82" x2="3161.08" y2="1423.82" gradientTransform="matrix(208.72, 0, 0, -208.72, -658443.1, 298809.18)" xlink:href="#linear-gradient"/><linearGradient id="linear-gradient-47" x1="3159.75" y1="1424" x2="3160.82" y2="1424" gradientTransform="matrix(370.28, 0, 0, -370.28, -1168858.34, 528985.95)" xlink:href="#linear-gradient"/><linearGradient id="linear-gradient-48" x1="3159.65" y1="1424.08" x2="3160.72" y2="1424.08" gradientTransform="matrix(530.81, 0, 0, -530.81, -1676046.96, 757708.4)" xlink:href="#linear-gradient"/><linearGradient id="linear-gradient-49" x1="3161.92" y1="1422.44" x2="3162.99" y2="1422.44" gradientTransform="matrix(48.68, 0, 0, -48.68, -152800.6, 70783.7)" xlink:href="#linear-gradient"/><linearGradient id="linear-gradient-50" x1="3159.76" y1="1424.04" x2="3160.83" y2="1424.04" gradientTransform="matrix(426.77, 0, 0, -426.77, -1347025.81, 609442.26)" xlink:href="#linear-gradient"/><linearGradient id="linear-gradient-51" x1="3159.81" y1="1424" x2="3160.88" y2="1424" gradientTransform="matrix(384.68, 0, 0, -384.68, -1213982.48, 549587.97)" xlink:href="#linear-gradient"/><linearGradient id="linear-gradient-52" x1="3159.96" y1="1423.89" x2="3161.03" y2="1423.89" gradientTransform="matrix(295.32, 0, 0, -295.32, -931524.82, 422399.01)" xlink:href="#linear-gradient"/><linearGradient id="linear-gradient-53" x1="3160.24" y1="1423.7" x2="3161.31" y2="1423.7" gradientTransform="matrix(205.53, 0, 0, -205.53, -647722.19, 294604.09)" xlink:href="#linear-gradient"/><linearGradient id="linear-gradient-54" x1="3160.04" y1="1423.86" x2="3161.11" y2="1423.86" gradientTransform="matrix(287.74, 0, 0, -287.74, -907313.87, 411702.67)" xlink:href="#linear-gradient"/><linearGradient id="linear-gradient-55" x1="3160.47" y1="1423.56" x2="3161.54" y2="1423.56" gradientTransform="matrix(177.57, 0, 0, -177.57, -559128.94, 254891.28)" xlink:href="#linear-gradient"/><linearGradient id="linear-gradient-56" x1="3162.29" y1="1422.28" x2="3163.36" y2="1422.28" gradientTransform="matrix(67.4, 0, 0, -67.4, -210944.21, 98080.82)" xlink:href="#linear-gradient"/><linearGradient id="linear-gradient-57" x1="3159.6" y1="1424.12" x2="3160.67" y2="1424.12" gradientTransform="matrix(794.62, 0, 0, -794.62, -2509307.92, 1133720.44)" xlink:href="#linear-gradient"/><linearGradient id="linear-gradient-58" x1="3159.63" y1="1424.07" x2="3160.7" y2="1424.07" gradientTransform="matrix(630.3, 0, 0, -630.3, -1990238.69, 899726.56)" xlink:href="#linear-gradient"/><linearGradient id="linear-gradient-59" x1="3159.69" y1="1423.99" x2="3160.76" y2="1423.99" gradientTransform="matrix(465.45, 0, 0, -465.45, -1469489.11, 664975.42)" xlink:href="#linear-gradient"/><linearGradient id="linear-gradient-60" x1="3159.88" y1="1423.77" x2="3160.95" y2="1423.77" gradientTransform="matrix(268.34, 0, 0, -268.34, -846798.64, 384283.86)" xlink:href="#linear-gradient"/><linearGradient id="linear-gradient-61" x1="3160.39" y1="1423.71" x2="3161.46" y2="1423.71" gradientTransform="matrix(180.6, 0, 0, -180.6, -568819.15, 258842)" xlink:href="#linear-gradient"/><linearGradient id="linear-gradient-62" x1="3160.61" y1="1423.64" x2="3161.68" y2="1423.64" gradientTransform="matrix(154.81, 0, 0, -154.81, -487226.4, 222075.02)" xlink:href="#linear-gradient"/><linearGradient id="linear-gradient-63" x1="3161.8" y1="1423.08" x2="3162.87" y2="1423.08" gradientTransform="matrix(80.94, 0, 0, -80.94, -253711.08, 116821.92)" xlink:href="#linear-gradient"/><linearGradient id="linear-gradient-64" x1="3160.36" y1="1423.74" x2="3161.43" y2="1423.74" gradientTransform="matrix(169.4, 0, 0, -169.4, -533689.94, 242745.4)" xlink:href="#linear-gradient"/><linearGradient id="linear-gradient-65" x1="3159.78" y1="1423.86" x2="3160.85" y2="1423.86" gradientTransform="matrix(287.74, 0, 0, -287.74, -908391.87, 411702.67)" xlink:href="#linear-gradient"/><linearGradient id="linear-gradient-66" x1="3160.04" y1="1423.56" x2="3161.11" y2="1423.56" gradientTransform="matrix(177.57, 0, 0, -177.57, -560206.94, 254891.28)" xlink:href="#linear-gradient"/><linearGradient id="linear-gradient-67" x1="3161.15" y1="1422.28" x2="3162.23" y2="1422.28" gradientTransform="matrix(67.4, 0, 0, -67.4, -212022.21, 98080.82)" xlink:href="#linear-gradient"/><linearGradient id="linear-gradient-68" x1="3160.85" y1="1423.08" x2="3161.92" y2="1423.08" gradientTransform="matrix(80.94, 0, 0, -80.94, -254789.08, 116821.92)" xlink:href="#linear-gradient"/><clipPath id="clip-path-4"><rect x="-29.7" y="-62" width="1154.4" height="787.09" style="fill:none"/></clipPath><linearGradient id="linear-gradient-73" x1="3159.64" y1="1424.32" x2="3160.71" y2="1424.32" gradientTransform="matrix(208.72, 0, 0, -208.72, -659521.1, 297339.18)" xlink:href="#linear-gradient"/><linearGradient id="linear-gradient-74" x1="3159.55" y1="1424.29" x2="3160.62" y2="1424.29" gradientTransform="matrix(370.28, 0, 0, -370.28, -1169936.34, 527515.95)" xlink:href="#linear-gradient"/><linearGradient id="linear-gradient-75" x1="3159.51" y1="1424.27" x2="3160.58" y2="1424.27" gradientTransform="matrix(530.81, 0, 0, -530.81, -1677124.96, 756238.4)" xlink:href="#linear-gradient"/><linearGradient id="linear-gradient-76" x1="3159.58" y1="1424.28" x2="3160.65" y2="1424.28" gradientTransform="matrix(426.77, 0, 0, -426.77, -1348103.81, 607972.26)" xlink:href="#linear-gradient"/><linearGradient id="linear-gradient-77" x1="3159.61" y1="1424.27" x2="3160.68" y2="1424.27" gradientTransform="matrix(384.68, 0, 0, -384.68, -1215060.48, 548117.97)" xlink:href="#linear-gradient"/><linearGradient id="linear-gradient-78" x1="3159.7" y1="1424.25" x2="3160.77" y2="1424.25" gradientTransform="matrix(295.32, 0, 0, -295.32, -932602.82, 420929.01)" xlink:href="#linear-gradient"/><linearGradient id="linear-gradient-79" x1="3159.86" y1="1424.2" x2="3160.93" y2="1424.2" gradientTransform="matrix(205.53, 0, 0, -205.53, -648800.19, 293134.09)" xlink:href="#linear-gradient"/><linearGradient id="linear-gradient-83" x1="3159.5" y1="1424.25" x2="3160.57" y2="1424.25" gradientTransform="matrix(794.62, 0, 0, -794.62, -2510385.92, 1132250.44)" xlink:href="#linear-gradient"/><linearGradient id="linear-gradient-84" x1="3159.51" y1="1424.24" x2="3160.58" y2="1424.24" gradientTransform="matrix(630.3, 0, 0, -630.3, -1991316.69, 898256.56)" xlink:href="#linear-gradient"/><linearGradient id="linear-gradient-85" x1="3159.53" y1="1424.22" x2="3160.6" y2="1424.22" gradientTransform="matrix(465.45, 0, 0, -465.45, -1470567.11, 663505.42)" xlink:href="#linear-gradient"/><linearGradient id="linear-gradient-86" x1="3159.59" y1="1424.16" x2="3160.66" y2="1424.16" gradientTransform="matrix(268.34, 0, 0, -268.34, -847876.64, 382813.86)" xlink:href="#linear-gradient"/><linearGradient id="linear-gradient-87" x1="3159.97" y1="1424.29" x2="3161.04" y2="1424.29" gradientTransform="matrix(180.6, 0, 0, -180.6, -569897.15, 257372)" xlink:href="#linear-gradient"/><linearGradient id="linear-gradient-88" x1="3160.12" y1="1424.31" x2="3161.19" y2="1424.31" gradientTransform="matrix(154.81, 0, 0, -154.81, -488304.4, 220605.02)" xlink:href="#linear-gradient"/><linearGradient id="linear-gradient-90" x1="3159.91" y1="1424.35" x2="3160.98" y2="1424.35" gradientTransform="matrix(169.4, 0, 0, -169.4, -534767.94, 241275.4)" xlink:href="#linear-gradient"/><clipPath id="clip-path-5"><rect x="-29.7" y="725.09" width="1154.4" height="787.09" style="fill:none"/></clipPath><linearGradient id="linear-gradient-96" x1="3159.64" y1="1424.07" x2="3160.71" y2="1424.07" gradientTransform="matrix(208.72, 0, 0, -208.72, -659521.1, 298074.18)" xlink:href="#linear-gradient"/><linearGradient id="linear-gradient-97" x1="3159.55" y1="1424.14" x2="3160.62" y2="1424.14" gradientTransform="matrix(370.28, 0, 0, -370.28, -1169936.34, 528250.95)" xlink:href="#linear-gradient"/><linearGradient id="linear-gradient-98" x1="3159.51" y1="1424.17" x2="3160.58" y2="1424.17" gradientTransform="matrix(530.81, 0, 0, -530.81, -1677124.96, 756973.4)" xlink:href="#linear-gradient"/><linearGradient id="linear-gradient-99" x1="3159.58" y1="1424.16" x2="3160.65" y2="1424.16" gradientTransform="matrix(426.77, 0, 0, -426.77, -1348103.81, 608707.26)" xlink:href="#linear-gradient"/><linearGradient id="linear-gradient-100" x1="3159.61" y1="1424.13" x2="3160.68" y2="1424.13" gradientTransform="matrix(384.68, 0, 0, -384.68, -1215060.48, 548852.97)" xlink:href="#linear-gradient"/><linearGradient id="linear-gradient-101" x1="3159.7" y1="1424.07" x2="3160.77" y2="1424.07" gradientTransform="matrix(295.32, 0, 0, -295.32, -932602.82, 421664.01)" xlink:href="#linear-gradient"/><linearGradient id="linear-gradient-102" x1="3159.86" y1="1423.95" x2="3160.93" y2="1423.95" gradientTransform="matrix(205.53, 0, 0, -205.53, -648800.19, 293869.09)" xlink:href="#linear-gradient"/><linearGradient id="linear-gradient-106" x1="3159.5" y1="1424.18" x2="3160.57" y2="1424.18" gradientTransform="matrix(794.62, 0, 0, -794.62, -2510385.92, 1132985.44)" xlink:href="#linear-gradient"/><linearGradient id="linear-gradient-107" x1="3159.51" y1="1424.15" x2="3160.58" y2="1424.15" gradientTransform="matrix(630.3, 0, 0, -630.3, -1991316.69, 898991.56)" xlink:href="#linear-gradient"/><linearGradient id="linear-gradient-108" x1="3159.53" y1="1424.1" x2="3160.6" y2="1424.1" gradientTransform="matrix(465.45, 0, 0, -465.45, -1470567.11, 664240.42)" xlink:href="#linear-gradient"/><linearGradient id="linear-gradient-109" x1="3159.59" y1="1423.97" x2="3160.66" y2="1423.97" gradientTransform="matrix(268.34, 0, 0, -268.34, -847876.64, 383548.86)" xlink:href="#linear-gradient"/><linearGradient id="linear-gradient-110" x1="3159.97" y1="1424" x2="3161.04" y2="1424" gradientTransform="matrix(180.6, 0, 0, -180.6, -569897.15, 258107)" xlink:href="#linear-gradient"/><linearGradient id="linear-gradient-111" x1="3160.12" y1="1423.97" x2="3161.19" y2="1423.97" gradientTransform="matrix(154.81, 0, 0, -154.81, -488304.4, 221340.02)" xlink:href="#linear-gradient"/><linearGradient id="linear-gradient-113" x1="3159.91" y1="1424.05" x2="3160.98" y2="1424.05" gradientTransform="matrix(169.4, 0, 0, -169.4, -534767.94, 242010.4)" xlink:href="#linear-gradient"/><clipPath id="clip-path-6"><rect x="-29.7" y="1512.18" width="1154.4" height="787.09" style="fill:none"/></clipPath><linearGradient id="linear-gradient-119" x1="3159.64" y1="1423.82" x2="3160.71" y2="1423.82" gradientTransform="matrix(208.72, 0, 0, -208.72, -659521.1, 298809.18)" xlink:href="#linear-gradient"/><linearGradient id="linear-gradient-120" x1="3159.55" y1="1424" x2="3160.62" y2="1424" gradientTransform="matrix(370.28, 0, 0, -370.28, -1169936.34, 528985.95)" xlink:href="#linear-gradient"/><linearGradient id="linear-gradient-121" x1="3159.51" y1="1424.08" x2="3160.58" y2="1424.08" gradientTransform="matrix(530.81, 0, 0, -530.81, -1677124.96, 757708.4)" xlink:href="#linear-gradient"/><linearGradient id="linear-gradient-122" x1="3159.58" y1="1424.04" x2="3160.65" y2="1424.04" gradientTransform="matrix(426.77, 0, 0, -426.77, -1348103.81, 609442.26)" xlink:href="#linear-gradient"/><linearGradient id="linear-gradient-123" x1="3159.61" y1="1424" x2="3160.68" y2="1424" gradientTransform="matrix(384.68, 0, 0, -384.68, -1215060.48, 549587.97)" xlink:href="#linear-gradient"/><linearGradient id="linear-gradient-124" x1="3159.7" y1="1423.89" x2="3160.77" y2="1423.89" gradientTransform="matrix(295.32, 0, 0, -295.32, -932602.82, 422399.01)" xlink:href="#linear-gradient"/><linearGradient id="linear-gradient-125" x1="3159.86" y1="1423.7" x2="3160.93" y2="1423.7" gradientTransform="matrix(205.53, 0, 0, -205.53, -648800.19, 294604.09)" xlink:href="#linear-gradient"/><linearGradient id="linear-gradient-129" x1="3159.5" y1="1424.12" x2="3160.57" y2="1424.12" gradientTransform="matrix(794.62, 0, 0, -794.62, -2510385.92, 1133720.44)" xlink:href="#linear-gradient"/><linearGradient id="linear-gradient-130" x1="3159.51" y1="1424.07" x2="3160.58" y2="1424.07" gradientTransform="matrix(630.3, 0, 0, -630.3, -1991316.69, 899726.56)" xlink:href="#linear-gradient"/><linearGradient id="linear-gradient-131" x1="3159.53" y1="1423.99" x2="3160.6" y2="1423.99" gradientTransform="matrix(465.45, 0, 0, -465.45, -1470567.11, 664975.42)" xlink:href="#linear-gradient"/><linearGradient id="linear-gradient-132" x1="3159.59" y1="1423.77" x2="3160.66" y2="1423.77" gradientTransform="matrix(268.34, 0, 0, -268.34, -847876.64, 384283.86)" xlink:href="#linear-gradient"/><linearGradient id="linear-gradient-133" x1="3159.97" y1="1423.71" x2="3161.04" y2="1423.71" gradientTransform="matrix(180.6, 0, 0, -180.6, -569897.15, 258842)" xlink:href="#linear-gradient"/><linearGradient id="linear-gradient-134" x1="3160.12" y1="1423.64" x2="3161.19" y2="1423.64" gradientTransform="matrix(154.81, 0, 0, -154.81, -488304.4, 222075.02)" xlink:href="#linear-gradient"/><linearGradient id="linear-gradient-136" x1="3159.91" y1="1423.74" x2="3160.98" y2="1423.74" gradientTransform="matrix(169.4, 0, 0, -169.4, -534767.94, 242745.4)" xlink:href="#linear-gradient"/></defs><g style="clip-path:url(#clip-path)"><polygon points="1124.19 162.86 1124.19 77.28 1262.02 -61.89 1347.7 -61.89 1124.19 162.86" style="fill:url(#linear-gradient)"/><polygon points="1124.19 334.98 1124.23 248.9 1434.51 -61.89 1520.71 -61.75 1124.19 334.98" style="fill:url(#linear-gradient-2)"/><polygon points="1124.46 507.36 1124.32 421.24 1606.9 -61.75 1692.75 -61.75 1124.46 507.36" style="fill:url(#linear-gradient-3)"/><polygon points="1468.28 274.28 1452.42 264.98 1553.17 165.05 1890.16 -1.6 1909.43 56.09 1468.28 274.28" style="fill:url(#linear-gradient-4)"/><polygon points="1603.16 343.09 1536.54 308.55 1929.62 114.97 1948.49 173.02 1603.16 343.09" style="fill:url(#linear-gradient-5)"/><polygon points="1738.96 412.9 1671.52 378.08 1968.63 231.08 1987.77 289.59 1738.96 412.9" style="fill:url(#linear-gradient-6)"/><polygon points="1874.71 481.52 1807.04 447.35 2008.14 348.65 2027.14 406.2 1874.71 481.52" style="fill:url(#linear-gradient-7)"/><polygon points="2029.74 561.91 1971.36 531.29 2279.5 278.65 2279.5 356.99 2029.74 561.91" style="fill:url(#linear-gradient-8)"/><polygon points="2148.12 622.2 2089.48 591.99 2279.64 435.73 2279.64 514.47 2148.12 622.2" style="fill:url(#linear-gradient-9)"/><polygon points="2265.83 683.3 2207.45 653.09 2279.36 593.9 2279.64 671.41 2265.83 683.3" style="fill:url(#linear-gradient-10)"/><polygon points="2080.45 724.86 1362.33 355.62 1406.49 311.32 2213.26 725 2080.45 724.86" style="fill:url(#linear-gradient-11)"/><polygon points="1812.33 724.96 1271.42 446.8 1316.26 401.42 1946.39 724.96 1812.33 724.96" style="fill:url(#linear-gradient-12)"/><polygon points="1546.34 725 1180.37 537.16 1226.17 492.05 1678.81 724.86 1546.34 725" style="fill:url(#linear-gradient-13)"/><polygon points="1279.08 725 1124.19 645.3 1124.19 593.9 1135.12 582.96 1411.55 724.86 1279.08 725" style="fill:url(#linear-gradient-14)"/><polygon points="2077.63 364.87 1934.54 -61.75 1998.7 -61.75 2127.94 323.76 2077.63 364.87" style="fill:url(#linear-gradient-15)"/><polygon points="2178.43 281.84 2062.95 -61.75 2127.34 -61.89 2228.74 240.1 2178.43 281.84" style="fill:url(#linear-gradient-16)"/><polygon points="2279.36 199.36 2192.69 -61.61 2255.85 -61.75 2279.36 8.38 2279.36 199.36" style="fill:url(#linear-gradient-17)"/><polygon points="1688.92 29.02 1688.79 28.89 1779.42 -61.75 1870.2 -61.61 1688.92 29.02" style="fill:url(#linear-gradient-18)"/><polygon points="875.33 561.91 816.96 531.29 1125.1 278.65 1125.1 356.99 875.33 561.91" style="fill:url(#linear-gradient-19)"/><polygon points="993.72 622.2 935.08 591.99 1125.23 435.73 1125.23 514.47 993.72 622.2" style="fill:url(#linear-gradient-20)"/><polygon points="1111.43 683.3 1053.05 653.09 1124.96 593.9 1125.23 671.41 1111.43 683.3" style="fill:url(#linear-gradient-21)"/><polygon points="1124.96 199.36 1038.29 -61.61 1101.45 -61.75 1124.96 8.38 1124.96 199.36" style="fill:url(#linear-gradient-22)"/></g><g style="clip-path:url(#clip-path-2)"><polygon points="1124.19 949.95 1124.19 864.37 1262.02 725.21 1347.7 725.21 1124.19 949.95" style="fill:url(#linear-gradient-23)"/><polygon points="1124.19 1122.07 1124.23 1035.99 1434.51 725.21 1520.71 725.34 1124.19 1122.07" style="fill:url(#linear-gradient-24)"/><polygon points="1124.46 1294.45 1124.32 1208.33 1606.9 725.34 1692.75 725.34 1124.46 1294.45" style="fill:url(#linear-gradient-25)"/><polygon points="1124.26 777.31 1124.16 725.18 1176.3 725.18 1124.26 777.31" style="fill:url(#linear-gradient-26)"/><polygon points="1468.28 1061.37 1452.42 1052.07 1553.17 952.14 1890.16 785.49 1909.43 843.18 1468.28 1061.37" style="fill:url(#linear-gradient-27)"/><polygon points="1603.16 1130.18 1536.54 1095.64 1929.62 902.06 1948.49 960.12 1603.16 1130.18" style="fill:url(#linear-gradient-28)"/><polygon points="1738.96 1199.99 1671.52 1165.17 1968.63 1018.17 1987.77 1076.68 1738.96 1199.99" style="fill:url(#linear-gradient-29)"/><polygon points="1874.71 1268.62 1807.04 1234.44 2008.14 1135.74 2027.14 1193.29 1874.71 1268.62" style="fill:url(#linear-gradient-30)"/><polygon points="2029.74 1349 1971.36 1318.38 2279.5 1065.74 2279.5 1144.08 2029.74 1349" style="fill:url(#linear-gradient-31)"/><polygon points="2148.12 1409.29 2089.48 1379.08 2279.64 1222.82 2279.64 1301.56 2148.12 1409.29" style="fill:url(#linear-gradient-32)"/><polygon points="2265.83 1470.4 2207.45 1440.18 2279.36 1380.99 2279.64 1458.5 2265.83 1470.4" style="fill:url(#linear-gradient-33)"/><polygon points="2080.45 1511.96 1362.33 1142.71 1406.49 1098.42 2213.26 1512.09 2080.45 1511.96" style="fill:url(#linear-gradient-34)"/><polygon points="1812.33 1512.05 1271.42 1233.89 1316.26 1188.51 1946.39 1512.05 1812.33 1512.05" style="fill:url(#linear-gradient-35)"/><polygon points="1546.34 1512.09 1180.37 1324.26 1226.17 1279.14 1678.81 1511.96 1546.34 1512.09" style="fill:url(#linear-gradient-36)"/><polygon points="1279.08 1512.09 1124.19 1432.39 1124.19 1380.99 1135.12 1370.05 1411.55 1511.96 1279.08 1512.09" style="fill:url(#linear-gradient-37)"/><polygon points="2077.63 1151.96 1934.54 725.34 1998.7 725.34 2127.94 1110.86 2077.63 1151.96" style="fill:url(#linear-gradient-38)"/><polygon points="2178.43 1068.93 2062.95 725.34 2127.34 725.21 2228.74 1027.19 2178.43 1068.93" style="fill:url(#linear-gradient-39)"/><polygon points="2279.36 986.45 2192.69 725.48 2255.85 725.34 2279.36 795.47 2279.36 986.45" style="fill:url(#linear-gradient-40)"/><polygon points="1688.92 816.12 1688.79 815.98 1779.42 725.34 1870.2 725.48 1688.92 816.12" style="fill:url(#linear-gradient-41)"/><polygon points="875.33 1349 816.96 1318.38 1125.1 1065.74 1125.1 1144.08 875.33 1349" style="fill:url(#linear-gradient-42)"/><polygon points="993.72 1409.29 935.08 1379.08 1125.23 1222.82 1125.23 1301.56 993.72 1409.29" style="fill:url(#linear-gradient-43)"/><polygon points="1111.43 1470.4 1053.05 1440.18 1124.96 1380.99 1125.23 1458.5 1111.43 1470.4" style="fill:url(#linear-gradient-44)"/><polygon points="1124.96 986.45 1038.29 725.48 1101.45 725.34 1124.96 795.47 1124.96 986.45" style="fill:url(#linear-gradient-45)"/></g><g style="clip-path:url(#clip-path-3)"><polygon points="1124.19 1737.05 1124.19 1651.47 1262.02 1512.3 1347.7 1512.3 1124.19 1737.05" style="fill:url(#linear-gradient-46)"/><polygon points="1124.19 1909.16 1124.23 1823.08 1434.51 1512.3 1520.71 1512.43 1124.19 1909.16" style="fill:url(#linear-gradient-47)"/><polygon points="1124.46 2081.55 1124.32 1995.42 1606.9 1512.43 1692.75 1512.43 1124.46 2081.55" style="fill:url(#linear-gradient-48)"/><polygon points="1124.26 1564.41 1124.16 1512.28 1176.3 1512.28 1124.26 1564.41" style="fill:url(#linear-gradient-49)"/><polygon points="1468.28 1848.46 1452.42 1839.16 1553.17 1739.23 1890.16 1572.59 1909.43 1630.28 1468.28 1848.46" style="fill:url(#linear-gradient-50)"/><polygon points="1603.16 1917.27 1536.54 1882.73 1929.62 1689.15 1948.49 1747.21 1603.16 1917.27" style="fill:url(#linear-gradient-51)"/><polygon points="1738.96 1987.08 1671.52 1952.27 1968.63 1805.26 1987.77 1863.77 1738.96 1987.08" style="fill:url(#linear-gradient-52)"/><polygon points="1874.71 2055.71 1807.04 2021.53 2008.14 1922.83 2027.14 1980.38 1874.71 2055.71" style="fill:url(#linear-gradient-53)"/><polygon points="2029.74 2136.09 1971.36 2105.47 2279.5 1852.84 2279.5 1931.17 2029.74 2136.09" style="fill:url(#linear-gradient-54)"/><polygon points="2148.12 2196.38 2089.48 2166.17 2279.64 2009.91 2279.64 2088.66 2148.12 2196.38" style="fill:url(#linear-gradient-55)"/><polygon points="2265.83 2257.49 2207.45 2227.28 2279.36 2168.08 2279.64 2245.6 2265.83 2257.49" style="fill:url(#linear-gradient-56)"/><polygon points="2080.45 2299.05 1362.33 1929.8 1406.49 1885.51 2213.26 2299.18 2080.45 2299.05" style="fill:url(#linear-gradient-57)"/><polygon points="1812.33 2299.14 1271.42 2020.99 1316.26 1975.6 1946.39 2299.14 1812.33 2299.14" style="fill:url(#linear-gradient-58)"/><polygon points="1546.34 2299.18 1180.37 2111.35 1226.17 2066.24 1678.81 2299.05 1546.34 2299.18" style="fill:url(#linear-gradient-59)"/><polygon points="1279.08 2299.18 1124.19 2219.49 1124.19 2168.08 1135.12 2157.15 1411.55 2299.05 1279.08 2299.18" style="fill:url(#linear-gradient-60)"/><polygon points="2077.63 1939.05 1934.54 1512.43 1998.7 1512.43 2127.94 1897.95 2077.63 1939.05" style="fill:url(#linear-gradient-61)"/><polygon points="2178.43 1856.03 2062.95 1512.43 2127.34 1512.3 2228.74 1814.28 2178.43 1856.03" style="fill:url(#linear-gradient-62)"/><polygon points="2279.36 1773.55 2192.69 1512.57 2255.85 1512.43 2279.36 1582.57 2279.36 1773.55" style="fill:url(#linear-gradient-63)"/><polygon points="1688.92 1603.21 1688.79 1603.07 1779.42 1512.43 1870.2 1512.57 1688.92 1603.21" style="fill:url(#linear-gradient-64)"/><polygon points="875.33 2136.09 816.96 2105.47 1125.1 1852.84 1125.1 1931.17 875.33 2136.09" style="fill:url(#linear-gradient-65)"/><polygon points="993.72 2196.38 935.08 2166.17 1125.23 2009.91 1125.23 2088.66 993.72 2196.38" style="fill:url(#linear-gradient-66)"/><polygon points="1111.43 2257.49 1053.05 2227.28 1124.96 2168.08 1125.23 2245.6 1111.43 2257.49" style="fill:url(#linear-gradient-67)"/><polygon points="1124.96 1773.55 1038.29 1512.57 1101.45 1512.43 1124.96 1582.57 1124.96 1773.55" style="fill:url(#linear-gradient-68)"/></g><g style="clip-path:url(#clip-path-4)"><polygon points="1124.19 162.86 1124.19 77.28 1262.02 -61.89 1347.7 -61.89 1124.19 162.86" style="fill:url(#linear-gradient)"/><polygon points="1124.19 334.98 1124.23 248.9 1434.51 -61.89 1520.71 -61.75 1124.19 334.98" style="fill:url(#linear-gradient-2)"/><polygon points="1124.46 507.36 1124.32 421.24 1606.9 -61.75 1692.75 -61.75 1124.46 507.36" style="fill:url(#linear-gradient-3)"/><polygon points="1279.08 725 1124.19 645.3 1124.19 593.9 1135.12 582.96 1411.55 724.86 1279.08 725" style="fill:url(#linear-gradient-14)"/><polygon points="-30.21 162.86 -30.21 77.28 107.62 -61.89 193.3 -61.89 -30.21 162.86" style="fill:url(#linear-gradient-73)"/><polygon points="-30.21 334.98 -30.17 248.9 280.11 -61.89 366.3 -61.75 -30.21 334.98" style="fill:url(#linear-gradient-74)"/><polygon points="-29.94 507.36 -30.08 421.24 452.5 -61.75 538.35 -61.75 -29.94 507.36" style="fill:url(#linear-gradient-75)"/><polygon points="313.88 274.28 298.02 264.98 398.77 165.05 735.76 -1.6 755.03 56.09 313.88 274.28" style="fill:url(#linear-gradient-76)"/><polygon points="448.76 343.09 382.14 308.55 775.22 114.97 794.08 173.02 448.76 343.09" style="fill:url(#linear-gradient-77)"/><polygon points="584.56 412.9 517.12 378.08 814.23 231.08 833.37 289.59 584.56 412.9" style="fill:url(#linear-gradient-78)"/><polygon points="720.31 481.52 652.64 447.35 853.73 348.65 872.74 406.2 720.31 481.52" style="fill:url(#linear-gradient-79)"/><polygon points="875.33 561.91 816.96 531.29 1125.1 278.65 1125.1 356.99 875.33 561.91" style="fill:url(#linear-gradient-19)"/><polygon points="993.72 622.2 935.08 591.99 1125.23 435.73 1125.23 514.47 993.72 622.2" style="fill:url(#linear-gradient-20)"/><polygon points="1111.43 683.3 1053.05 653.09 1124.96 593.9 1125.23 671.41 1111.43 683.3" style="fill:url(#linear-gradient-21)"/><polygon points="926.05 724.86 207.93 355.62 252.09 311.32 1058.86 725 926.05 724.86" style="fill:url(#linear-gradient-83)"/><polygon points="657.92 724.96 117.02 446.8 161.86 401.42 791.99 724.96 657.92 724.96" style="fill:url(#linear-gradient-84)"/><polygon points="391.94 725 25.97 537.16 71.77 492.05 524.41 724.86 391.94 725" style="fill:url(#linear-gradient-85)"/><polygon points="124.67 725 -30.21 645.3 -30.21 593.9 -19.28 582.96 257.14 724.86 124.67 725" style="fill:url(#linear-gradient-86)"/><polygon points="923.23 364.87 780.14 -61.75 844.3 -61.75 973.53 323.76 923.23 364.87" style="fill:url(#linear-gradient-87)"/><polygon points="1024.03 281.84 908.55 -61.75 972.94 -61.89 1074.33 240.1 1024.03 281.84" style="fill:url(#linear-gradient-88)"/><polygon points="1124.96 199.36 1038.29 -61.61 1101.45 -61.75 1124.96 8.38 1124.96 199.36" style="fill:url(#linear-gradient-22)"/><polygon points="534.52 29.02 534.39 28.89 625.02 -61.75 715.8 -61.61 534.52 29.02" style="fill:url(#linear-gradient-90)"/></g><g style="clip-path:url(#clip-path-5)"><polygon points="1124.19 949.95 1124.19 864.37 1262.02 725.21 1347.7 725.21 1124.19 949.95" style="fill:url(#linear-gradient-23)"/><polygon points="1124.19 1122.07 1124.23 1035.99 1434.51 725.21 1520.71 725.34 1124.19 1122.07" style="fill:url(#linear-gradient-24)"/><polygon points="1124.46 1294.45 1124.32 1208.33 1606.9 725.34 1692.75 725.34 1124.46 1294.45" style="fill:url(#linear-gradient-25)"/><polygon points="1124.26 777.31 1124.16 725.18 1176.3 725.18 1124.26 777.31" style="fill:url(#linear-gradient-26)"/><polygon points="1279.08 1512.09 1124.19 1432.39 1124.19 1380.99 1135.12 1370.05 1411.55 1511.96 1279.08 1512.09" style="fill:url(#linear-gradient-37)"/><polygon points="-30.21 949.95 -30.21 864.37 107.62 725.21 193.3 725.21 -30.21 949.95" style="fill:url(#linear-gradient-96)"/><polygon points="-30.21 1122.07 -30.17 1035.99 280.11 725.21 366.3 725.34 -30.21 1122.07" style="fill:url(#linear-gradient-97)"/><polygon points="-29.94 1294.45 -30.08 1208.33 452.5 725.34 538.35 725.34 -29.94 1294.45" style="fill:url(#linear-gradient-98)"/><polygon points="313.88 1061.37 298.02 1052.07 398.77 952.14 735.76 785.49 755.03 843.18 313.88 1061.37" style="fill:url(#linear-gradient-99)"/><polygon points="448.76 1130.18 382.14 1095.64 775.22 902.06 794.08 960.12 448.76 1130.18" style="fill:url(#linear-gradient-100)"/><polygon points="584.56 1199.99 517.12 1165.17 814.23 1018.17 833.37 1076.68 584.56 1199.99" style="fill:url(#linear-gradient-101)"/><polygon points="720.31 1268.62 652.64 1234.44 853.73 1135.74 872.74 1193.29 720.31 1268.62" style="fill:url(#linear-gradient-102)"/><polygon points="875.33 1349 816.96 1318.38 1125.1 1065.74 1125.1 1144.08 875.33 1349" style="fill:url(#linear-gradient-42)"/><polygon points="993.72 1409.29 935.08 1379.08 1125.23 1222.82 1125.23 1301.56 993.72 1409.29" style="fill:url(#linear-gradient-43)"/><polygon points="1111.43 1470.4 1053.05 1440.18 1124.96 1380.99 1125.23 1458.5 1111.43 1470.4" style="fill:url(#linear-gradient-44)"/><polygon points="926.05 1511.96 207.93 1142.71 252.09 1098.42 1058.86 1512.09 926.05 1511.96" style="fill:url(#linear-gradient-106)"/><polygon points="657.92 1512.05 117.02 1233.89 161.86 1188.51 791.99 1512.05 657.92 1512.05" style="fill:url(#linear-gradient-107)"/><polygon points="391.94 1512.09 25.97 1324.26 71.77 1279.14 524.41 1511.96 391.94 1512.09" style="fill:url(#linear-gradient-108)"/><polygon points="124.67 1512.09 -30.21 1432.39 -30.21 1380.99 -19.28 1370.05 257.14 1511.96 124.67 1512.09" style="fill:url(#linear-gradient-109)"/><polygon points="923.23 1151.96 780.14 725.34 844.3 725.34 973.53 1110.86 923.23 1151.96" style="fill:url(#linear-gradient-110)"/><polygon points="1024.03 1068.93 908.55 725.34 972.94 725.21 1074.33 1027.19 1024.03 1068.93" style="fill:url(#linear-gradient-111)"/><polygon points="1124.96 986.45 1038.29 725.48 1101.45 725.34 1124.96 795.47 1124.96 986.45" style="fill:url(#linear-gradient-45)"/><polygon points="534.52 816.12 534.39 815.98 625.02 725.34 715.8 725.48 534.52 816.12" style="fill:url(#linear-gradient-113)"/></g><g style="clip-path:url(#clip-path-6)"><polygon points="1124.19 1737.05 1124.19 1651.47 1262.02 1512.3 1347.7 1512.3 1124.19 1737.05" style="fill:url(#linear-gradient-46)"/><polygon points="1124.19 1909.16 1124.23 1823.08 1434.51 1512.3 1520.71 1512.43 1124.19 1909.16" style="fill:url(#linear-gradient-47)"/><polygon points="1124.46 2081.55 1124.32 1995.42 1606.9 1512.43 1692.75 1512.43 1124.46 2081.55" style="fill:url(#linear-gradient-48)"/><polygon points="1124.26 1564.41 1124.16 1512.28 1176.3 1512.28 1124.26 1564.41" style="fill:url(#linear-gradient-49)"/><polygon points="1279.08 2299.18 1124.19 2219.49 1124.19 2168.08 1135.12 2157.15 1411.55 2299.05 1279.08 2299.18" style="fill:url(#linear-gradient-60)"/><polygon points="-30.21 1737.05 -30.21 1651.47 107.62 1512.3 193.3 1512.3 -30.21 1737.05" style="fill:url(#linear-gradient-119)"/><polygon points="-30.21 1909.16 -30.17 1823.08 280.11 1512.3 366.3 1512.43 -30.21 1909.16" style="fill:url(#linear-gradient-120)"/><polygon points="-29.94 2081.55 -30.08 1995.42 452.5 1512.43 538.35 1512.43 -29.94 2081.55" style="fill:url(#linear-gradient-121)"/><polygon points="313.88 1848.46 298.02 1839.16 398.77 1739.23 735.76 1572.59 755.03 1630.28 313.88 1848.46" style="fill:url(#linear-gradient-122)"/><polygon points="448.76 1917.27 382.14 1882.73 775.22 1689.15 794.08 1747.21 448.76 1917.27" style="fill:url(#linear-gradient-123)"/><polygon points="584.56 1987.08 517.12 1952.27 814.23 1805.26 833.37 1863.77 584.56 1987.08" style="fill:url(#linear-gradient-124)"/><polygon points="720.31 2055.71 652.64 2021.53 853.73 1922.83 872.74 1980.38 720.31 2055.71" style="fill:url(#linear-gradient-125)"/><polygon points="875.33 2136.09 816.96 2105.47 1125.1 1852.84 1125.1 1931.17 875.33 2136.09" style="fill:url(#linear-gradient-65)"/><polygon points="993.72 2196.38 935.08 2166.17 1125.23 2009.91 1125.23 2088.66 993.72 2196.38" style="fill:url(#linear-gradient-66)"/><polygon points="1111.43 2257.49 1053.05 2227.28 1124.96 2168.08 1125.23 2245.6 1111.43 2257.49" style="fill:url(#linear-gradient-67)"/><polygon points="926.05 2299.05 207.93 1929.8 252.09 1885.51 1058.86 2299.18 926.05 2299.05" style="fill:url(#linear-gradient-129)"/><polygon points="657.92 2299.14 117.02 2020.99 161.86 1975.6 791.99 2299.14 657.92 2299.14" style="fill:url(#linear-gradient-130)"/><polygon points="391.94 2299.18 25.97 2111.35 71.77 2066.24 524.41 2299.05 391.94 2299.18" style="fill:url(#linear-gradient-131)"/><polygon points="124.67 2299.18 -30.21 2219.49 -30.21 2168.08 -19.28 2157.15 257.14 2299.05 124.67 2299.18" style="fill:url(#linear-gradient-132)"/><polygon points="923.23 1939.05 780.14 1512.43 844.3 1512.43 973.53 1897.95 923.23 1939.05" style="fill:url(#linear-gradient-133)"/><polygon points="1024.03 1856.03 908.55 1512.43 972.94 1512.3 1074.33 1814.28 1024.03 1856.03" style="fill:url(#linear-gradient-134)"/><polygon points="1124.96 1773.55 1038.29 1512.57 1101.45 1512.43 1124.96 1582.57 1124.96 1773.55" style="fill:url(#linear-gradient-68)"/><polygon points="534.52 1603.21 534.39 1603.07 625.02 1512.43 715.8 1512.57 534.52 1603.21" style="fill:url(#linear-gradient-136)"/></g><rect x="23.91" y="-52.41" width="2473.85" height="2473.85" style="fill:none"/></svg>