<?xml version="1.0" standalone="no"?>
<!DOCTYPE svg PUBLIC "-//W3C//DTD SVG 20010904//EN"
 "http://www.w3.org/TR/2001/REC-SVG-20010904/DTD/svg10.dtd">
<svg version="1.0" xmlns="http://www.w3.org/2000/svg"
 width="900.000000pt" height="900.000000pt" viewBox="0 0 900.000000 900.000000"
 preserveAspectRatio="xMidYMid meet">

<g transform="translate(0.000000,900.000000) scale(0.100000,-0.100000)"
fill="#000000" stroke="none">
<path d="M0 8648 c0 -193 2 -349 4 -347 4 4 330 608 360 667 l17 32 -191 0
-190 0 0 -352z"/>
<path d="M495 8818 c-54 -101 -144 -268 -200 -373 -56 -104 -144 -266 -194
-359 l-92 -170 213 -390 c116 -215 247 -458 291 -539 l79 -148 -291 -541 -292
-541 272 -501 c149 -275 281 -517 292 -538 l20 -36 -88 -164 c-48 -89 -180
-333 -292 -541 l-204 -377 267 -493 c147 -270 278 -512 292 -537 l25 -46 -185
-344 c-102 -190 -234 -434 -292 -542 l-107 -198 291 -534 c159 -294 290 -537
290 -541 0 -3 -43 -86 -95 -182 -52 -97 -93 -178 -92 -180 2 -2 153 -2 335 -1
l331 3 -96 180 -96 179 43 81 c24 44 95 175 158 290 63 116 129 237 147 270
17 33 78 144 134 247 l102 188 -286 530 c-157 291 -288 536 -291 543 -3 8 33
84 79 168 46 85 177 326 291 536 l207 382 -292 542 -293 542 21 36 c11 20 142
262 292 537 l272 501 -292 543 c-288 533 -292 542 -277 568 9 15 134 245 278
512 144 267 269 496 277 510 14 24 9 35 -113 260 -69 129 -176 327 -237 440
-60 113 -135 251 -166 308 l-56 102 -141 0 -140 0 -99 -182z m433 -560 c100
-186 182 -340 182 -342 0 -7 -361 -670 -370 -679 -4 -5 -29 31 -56 80 -26 48
-110 203 -187 343 l-140 255 30 55 c17 30 101 187 188 348 87 161 161 289 165
285 4 -4 89 -160 188 -345z m2 -2162 l182 -338 -28 -52 c-16 -28 -99 -181
-185 -339 -86 -159 -159 -289 -163 -290 -4 -1 -91 152 -192 340 l-185 341 187
347 c103 190 190 343 194 338 4 -4 89 -160 190 -347z m0 -2159 l182 -338 -187
-344 c-103 -190 -188 -345 -190 -345 -2 0 -87 155 -190 345 l-187 344 83 153
c246 457 292 539 299 531 4 -4 90 -160 190 -346z m0 -2159 l182 -338 -181
-332 c-99 -183 -184 -339 -188 -347 -6 -9 -68 96 -197 333 l-188 347 152 282
c216 399 222 409 230 400 5 -4 90 -160 190 -345z"/>
<path d="M698 8168 c-20 -35 -58 -106 -86 -158 l-50 -95 83 -153 c45 -84 85
-155 88 -158 5 -6 170 296 170 312 0 11 -149 292 -163 307 -4 5 -23 -20 -42
-55z"/>
<path d="M724 6058 c-5 -7 -43 -77 -85 -156 l-77 -143 70 -132 c39 -73 79
-144 88 -159 l17 -28 86 160 86 159 -81 148 c-89 165 -92 170 -104 151z"/>
<path d="M647 3759 l-86 -160 85 -157 c48 -86 87 -158 89 -160 1 -1 40 70 88
158 l86 160 -85 158 c-48 86 -87 158 -88 159 -1 1 -41 -70 -89 -158z"/>
<path d="M647 1600 l-87 -160 83 -151 c46 -83 87 -151 92 -151 5 0 46 68 92
151 l82 151 -84 156 c-47 87 -86 159 -88 160 -2 2 -42 -69 -90 -156z"/>
<path d="M1090 8994 c0 -3 78 -150 174 -327 96 -177 226 -418 290 -536 l115
-214 -16 -31 c-9 -17 -139 -257 -290 -534 -150 -276 -273 -506 -273 -511 0
-10 157 -305 462 -864 l118 -218 -171 -317 c-95 -174 -180 -330 -189 -347 -9
-16 -32 -59 -52 -95 -19 -36 -66 -121 -103 -189 l-68 -124 27 -56 c16 -31 73
-139 128 -241 56 -102 131 -241 168 -310 37 -69 111 -205 164 -303 l97 -177
-124 -228 c-69 -125 -200 -366 -292 -536 l-168 -308 20 -42 c11 -23 143 -268
292 -544 l271 -503 -118 -217 c-263 -479 -462 -850 -462 -857 0 -4 43 -88 96
-186 l96 -179 174 0 c96 0 174 2 174 5 0 2 -43 84 -96 182 l-96 178 25 45 c14
25 84 155 157 290 178 330 191 353 200 343 6 -6 212 -382 347 -634 l24 -45
-95 -177 c-53 -97 -96 -179 -96 -182 0 -3 78 -5 173 -5 l172 0 23 43 c13 23
57 105 97 182 l74 141 -105 194 c-244 452 -390 720 -430 794 -24 43 -44 81
-44 85 0 4 88 172 196 372 108 200 239 442 291 538 l94 174 -142 261 c-78 144
-155 285 -171 313 -96 175 -268 498 -268 503 0 5 46 91 409 764 l172 318 -202
372 c-111 204 -243 445 -292 536 l-90 165 37 70 c19 39 66 126 104 195 37 69
92 170 121 225 30 55 114 211 188 348 l134 247 -262 483 c-144 265 -276 507
-292 538 l-31 55 288 535 c159 294 291 537 293 542 2 4 -75 6 -172 5 l-176 -3
-183 -340 c-101 -187 -187 -339 -192 -339 -8 2 -48 75 -279 502 l-98 182 -174
0 c-95 0 -173 -3 -173 -6z m919 -1817 l182 -338 -184 -340 c-101 -188 -187
-342 -192 -342 -4 -1 -91 152 -192 341 l-185 342 74 138 c41 75 126 231 188
345 62 115 116 205 120 200 4 -4 89 -160 189 -346z m-4 -2151 l186 -345 -184
-341 c-101 -188 -188 -342 -192 -342 -11 0 -376 674 -372 687 3 14 368 685
372 685 2 0 87 -155 190 -344z m4 -2167 l182 -336 -187 -347 c-103 -191 -190
-344 -194 -339 -10 10 -370 680 -370 687 0 3 22 45 49 93 26 49 97 178 156
288 152 284 166 308 175 298 4 -4 89 -159 189 -344z"/>
<path d="M1727 7000 l-86 -160 86 -160 c48 -88 87 -159 89 -158 1 2 40 74 87
160 l85 158 -85 157 c-47 87 -86 159 -87 161 -2 1 -41 -70 -89 -158z"/>
<path d="M1727 4840 l-87 -159 87 -160 87 -160 23 40 c12 22 51 95 87 162 l64
122 -77 140 c-42 77 -81 148 -87 158 -8 14 -25 -10 -97 -143z"/>
<path d="M1727 2681 l-86 -159 80 -148 c44 -82 84 -153 89 -157 7 -8 31 32
128 213 l50 95 -84 154 c-46 85 -86 156 -88 158 -2 2 -42 -68 -89 -156z"/>
<path d="M1663 8958 c13 -24 52 -96 87 -161 72 -136 57 -139 145 28 32 61 66
125 77 143 l20 32 -177 0 -177 0 25 -42z"/>
<path d="M2632 8778 c-65 -123 -196 -366 -291 -540 -94 -175 -171 -320 -171
-323 0 -2 94 -177 208 -387 115 -211 246 -452 291 -536 l83 -152 -292 -542
c-222 -411 -290 -546 -283 -557 5 -9 137 -251 292 -538 l283 -522 -250 -463
c-138 -255 -269 -498 -292 -541 l-42 -77 150 -278 c83 -152 214 -394 291 -536
78 -143 141 -261 141 -263 0 -2 -131 -246 -291 -543 l-291 -540 272 -503 c150
-276 282 -518 292 -538 l20 -36 -96 -176 c-53 -97 -96 -179 -96 -182 0 -3 151
-5 336 -5 l336 0 -63 118 c-35 64 -79 147 -98 183 l-34 65 291 538 292 537
-34 62 c-331 611 -546 1013 -546 1021 0 4 74 143 164 309 90 166 207 383 261
482 53 99 110 203 126 232 l29 51 -91 169 c-50 92 -109 202 -131 243 -169 315
-211 392 -280 518 -43 78 -78 147 -78 152 0 11 42 90 255 480 62 113 160 294
219 403 l107 197 -19 33 c-19 30 -292 536 -444 822 -39 72 -81 149 -94 172
-13 23 -24 46 -24 52 0 5 40 83 89 173 337 620 484 894 484 904 0 6 -130 252
-289 547 l-289 537 -142 0 -141 0 -120 -222z m380 -383 c48 -88 125 -231 172
-319 74 -136 84 -161 75 -180 -105 -203 -364 -665 -369 -659 -8 8 -63 107
-274 496 -55 102 -95 185 -92 194 5 11 334 625 363 676 6 11 19 -11 125 -208z
m-34 -2095 c38 -69 94 -174 127 -235 32 -60 83 -154 112 -209 l54 -98 -187
-345 c-103 -189 -191 -340 -195 -336 -4 4 -48 83 -98 176 -50 92 -132 242
-182 334 -82 151 -89 169 -79 192 9 21 339 634 358 665 7 12 4 15 90 -144z
m111 -2363 l182 -338 -107 -197 c-120 -221 -265 -485 -269 -490 -1 -2 -78 136
-170 305 -92 169 -177 325 -188 345 l-20 36 163 304 c199 371 211 391 220 381
4 -4 89 -160 189 -346z m0 -2160 l182 -337 -119 -218 c-65 -119 -143 -262
-172 -317 -30 -55 -61 -113 -71 -128 l-17 -29 -148 274 c-81 150 -165 304
-186 341 -21 38 -38 72 -38 76 0 8 275 522 342 639 17 30 34 50 38 45 4 -4 89
-160 189 -346z"/>
<path d="M2867 8188 c-14 -24 -52 -94 -86 -157 l-61 -114 86 -159 c47 -88 87
-158 89 -156 9 9 167 305 168 313 0 11 -162 315 -169 315 -2 0 -14 -19 -27
-42z"/>
<path d="M2880 6062 c0 -5 -36 -75 -80 -156 l-80 -147 86 -160 c48 -88 88
-159 89 -157 1 2 41 73 87 159 l85 157 -84 156 c-74 136 -103 178 -103 148z"/>
<path d="M2806 3760 l-86 -162 87 -159 86 -160 79 143 c43 79 81 153 84 165 4
16 -17 65 -76 175 -46 84 -84 154 -85 156 -2 2 -41 -70 -89 -158z"/>
<path d="M2806 1601 l-86 -160 72 -133 c40 -73 77 -143 82 -155 6 -13 15 -22
19 -20 5 1 46 71 92 155 l83 152 -85 158 c-47 86 -87 158 -88 160 -1 2 -41
-69 -89 -157z"/>
<path d="M3250 8994 c0 -5 69 -134 395 -739 98 -181 178 -334 178 -340 0 -9
-37 -78 -150 -285 -215 -390 -423 -779 -423 -790 0 -6 109 -212 241 -458 133
-246 263 -487 289 -537 l48 -90 -265 -485 c-145 -267 -276 -509 -291 -538
l-27 -54 34 -61 c18 -34 144 -267 278 -517 135 -250 251 -465 259 -476 15 -25
45 35 -320 -637 -131 -241 -240 -446 -243 -456 -2 -10 23 -68 57 -132 35 -63
77 -141 95 -174 85 -158 252 -467 333 -617 l90 -167 -137 -253 c-375 -691
-433 -799 -437 -815 -3 -10 37 -96 90 -193 l94 -175 177 -3 177 -2 -63 117
c-35 65 -79 147 -98 183 l-34 65 184 342 c101 188 187 342 190 343 6 0 141
-244 333 -601 l46 -85 -95 -175 c-52 -96 -95 -177 -95 -181 0 -5 78 -8 173 -8
l172 1 94 177 c52 97 94 181 94 187 0 10 -116 227 -484 903 -49 89 -89 167
-89 172 0 5 129 249 287 541 157 293 286 537 286 543 0 6 -57 115 -126 243
-310 569 -447 824 -447 832 0 5 75 148 166 318 92 169 222 411 290 536 l123
228 -93 172 c-51 95 -182 335 -290 534 -108 199 -196 366 -196 371 0 5 88 173
196 373 108 200 239 442 290 536 l93 173 -118 217 c-64 120 -195 360 -289 534
-95 173 -172 322 -172 330 0 8 4 19 9 25 5 5 46 79 91 164 93 174 394 732 447
828 l34 62 -176 -2 -177 -3 -183 -340 c-101 -187 -188 -341 -192 -342 -4 -2
-25 30 -45 70 -21 39 -69 129 -107 198 -38 70 -97 180 -132 245 -34 65 -70
131 -78 146 l-16 28 -172 0 c-95 0 -173 -3 -173 -6z m840 -1674 c45 -85 123
-228 171 -317 l89 -162 -187 -347 c-182 -338 -187 -347 -202 -324 -16 22 -37
62 -143 260 -28 52 -89 164 -135 248 -45 84 -83 157 -83 162 0 6 22 49 49 97
26 49 97 178 156 288 59 110 121 224 137 253 l30 53 17 -28 c10 -15 55 -98
101 -183z m88 -2322 l172 -316 -187 -346 c-102 -191 -190 -343 -194 -339 -8 9
-318 581 -351 648 l-20 40 152 280 c83 154 168 309 187 343 l35 64 17 -29 c10
-15 95 -170 189 -345z m-9 -2139 l181 -337 -187 -346 c-103 -190 -190 -343
-194 -338 -4 4 -90 160 -190 346 l-183 339 39 71 c322 597 335 620 344 609 5
-4 90 -159 190 -344z"/>
<path d="M3886 7000 l-86 -160 86 -160 c48 -88 88 -159 89 -158 15 19 165 309
165 319 0 8 -38 83 -84 167 l-83 153 -87 -161z"/>
<path d="M3925 4913 c-26 -48 -65 -120 -87 -160 l-38 -71 86 -162 87 -161 84
157 c60 110 83 162 79 177 -3 12 -41 87 -85 165 l-78 144 -48 -89z"/>
<path d="M3937 2778 c-19 -35 -58 -106 -86 -159 l-51 -96 81 -152 c45 -83 85
-153 89 -156 9 -6 170 286 170 308 0 10 -152 302 -165 315 -1 2 -18 -25 -38
-60z"/>
<path d="M3846 8913 c26 -49 65 -121 87 -161 l39 -74 22 39 c44 76 146 271
146 277 0 3 -77 6 -171 6 l-170 0 47 -87z"/>
<path d="M4872 8928 c-55 -101 -457 -846 -506 -938 l-39 -75 222 -410 c123
-226 255 -467 293 -537 l69 -127 -280 -518 c-154 -285 -285 -530 -291 -544
-10 -22 -5 -36 42 -124 30 -55 161 -297 291 -537 l237 -437 -201 -373 c-111
-205 -237 -440 -281 -523 -44 -82 -84 -154 -89 -160 -5 -5 -9 -15 -9 -22 0 -7
94 -185 209 -395 114 -211 245 -451 290 -534 l81 -151 -231 -429 c-128 -236
-258 -478 -290 -537 -33 -60 -59 -112 -59 -117 0 -4 17 -39 38 -77 22 -37 152
-278 291 -534 l251 -466 -96 -177 c-52 -98 -94 -180 -91 -182 2 -2 153 -3 335
-2 l331 3 -94 173 c-52 95 -95 179 -95 185 0 7 130 252 289 545 l289 532 -289
536 c-159 295 -289 541 -289 547 0 10 393 741 531 989 l49 87 -19 33 c-112
193 -561 1045 -558 1057 2 9 133 254 290 544 267 492 286 530 273 550 -35 54
-566 1047 -566 1057 0 9 368 694 550 1025 l28 51 -175 324 c-96 179 -199 370
-229 425 -30 55 -82 153 -117 217 l-62 118 -142 0 -142 0 -39 -72z m406 -732
l151 -279 -44 -81 c-24 -45 -104 -193 -179 -331 -155 -286 -152 -282 -158
-275 -2 3 -87 158 -188 345 l-183 339 36 71 c20 38 67 126 105 195 37 69 94
175 126 235 33 61 70 130 84 153 l25 44 37 -69 c21 -37 106 -194 188 -347z
m-128 -1921 c35 -66 112 -209 172 -318 l108 -199 -69 -126 c-38 -70 -85 -156
-105 -192 -20 -36 -73 -134 -118 -218 -72 -135 -84 -151 -95 -136 -7 10 -92
163 -189 341 -114 211 -173 330 -169 341 10 28 233 444 337 630 l30 53 17 -28
c10 -15 46 -82 81 -148z m-80 -2004 c0 -4 24 -53 54 -107 29 -54 110 -204 180
-332 l126 -233 -113 -207 c-63 -114 -147 -269 -188 -344 -40 -75 -77 -134 -80
-130 -15 16 -369 670 -369 682 0 7 328 621 357 668 13 21 33 22 33 3z m21
-2203 c17 -35 51 -97 74 -138 23 -41 66 -120 95 -175 29 -55 79 -148 111 -207
l59 -107 -151 -278 c-83 -153 -168 -309 -189 -347 l-37 -68 -95 173 c-237 434
-279 512 -276 524 6 24 363 684 370 685 4 0 22 -28 39 -62z"/>
<path d="M5010 8162 c-19 -37 -57 -108 -84 -158 l-48 -91 50 -89 c27 -49 66
-120 87 -158 l37 -68 85 153 c70 128 83 158 76 179 -11 35 -154 300 -162 300
-3 0 -22 -30 -41 -68z"/>
<path d="M4962 5914 l-83 -155 81 -152 c45 -84 85 -155 88 -159 7 -7 172 291
172 311 0 15 -161 311 -169 311 -3 -1 -43 -71 -89 -156z"/>
<path d="M4966 3760 l-87 -161 87 -160 86 -160 84 155 c46 85 84 160 84 166 0
6 -38 81 -84 166 l-84 155 -86 -161z"/>
<path d="M5012 1688 c-21 -40 -61 -112 -86 -160 l-47 -87 83 -155 c46 -86 86
-156 89 -156 9 0 169 295 169 310 0 6 -38 81 -84 167 l-84 155 -40 -74z"/>
<path d="M5418 8968 c16 -27 169 -309 405 -748 22 -41 67 -124 100 -185 33
-60 60 -114 60 -120 0 -5 -69 -136 -153 -290 -84 -154 -215 -393 -290 -532
l-138 -252 150 -278 c83 -153 213 -394 290 -536 85 -157 138 -266 135 -277 -4
-17 -534 -999 -563 -1045 -14 -22 -41 31 379 -747 103 -190 187 -352 187 -359
0 -14 -1 -15 -335 -629 -131 -239 -238 -439 -238 -445 0 -8 141 -273 527 -986
25 -47 46 -92 46 -100 -1 -8 -131 -252 -289 -544 l-289 -530 46 -85 c26 -47
69 -128 97 -180 l51 -95 178 -3 177 -2 -66 122 c-36 68 -80 151 -97 184 l-31
62 184 341 c101 187 187 341 190 341 3 0 77 -132 164 -293 87 -160 171 -314
186 -342 l28 -50 -94 -175 c-52 -96 -95 -178 -95 -183 0 -4 77 -6 172 -5 l171
3 98 180 98 180 -29 50 c-15 27 -57 104 -92 170 -36 66 -153 283 -261 482
-109 199 -197 368 -197 375 0 7 131 253 289 547 l289 535 -28 50 c-15 28 -128
236 -250 461 -122 226 -240 442 -261 481 -22 39 -39 77 -39 83 0 7 128 250
285 540 157 291 285 535 285 544 0 8 -31 70 -68 138 -199 362 -502 927 -502
937 0 6 129 250 286 542 186 345 284 537 281 550 -3 10 -129 249 -282 529
-152 281 -279 519 -282 529 -2 11 72 159 193 383 281 521 362 672 370 692 6
16 -5 17 -167 15 l-173 -3 -183 -340 c-100 -187 -186 -341 -190 -342 -5 -1
-91 153 -193 342 l-185 345 -178 0 -179 0 20 -32z m910 -1795 l181 -332 -160
-298 c-194 -360 -213 -393 -219 -393 -6 1 -364 666 -368 685 -2 7 27 69 64
137 317 585 305 564 314 547 4 -8 89 -163 188 -346z m-4 -2150 l185 -342 -73
-133 c-39 -73 -123 -229 -186 -345 -62 -117 -116 -213 -119 -213 -7 1 -364
666 -369 686 -2 7 74 156 169 331 180 335 199 367 204 361 2 -1 87 -157 189
-345z m-127 -1925 c34 -62 118 -217 187 -344 l125 -231 -94 -174 c-52 -96
-136 -252 -187 -346 -80 -149 -95 -170 -105 -156 -7 9 -56 98 -110 197 -53
100 -132 245 -175 324 -43 78 -78 148 -78 154 0 13 363 687 370 688 3 0 33
-51 67 -112z"/>
<path d="M6042 6995 l-84 -155 52 -98 c29 -53 68 -125 87 -160 l35 -63 84 155
c46 85 84 160 84 166 0 15 -160 310 -169 310 -3 0 -44 -70 -89 -155z"/>
<path d="M6065 4878 c-37 -68 -76 -139 -87 -159 l-20 -36 82 -154 c80 -151
100 -183 100 -163 0 5 36 76 80 158 44 82 80 153 80 158 0 5 -38 79 -84 164
l-84 155 -67 -123z"/>
<path d="M6045 2684 l-87 -158 18 -36 c64 -124 150 -280 155 -280 7 0 169 298
169 312 0 8 -154 302 -165 316 -2 2 -42 -68 -90 -154z"/>
<path d="M5960 8995 c0 -3 6 -16 14 -28 7 -12 46 -82 86 -155 l72 -134 80 148
c44 81 82 154 85 161 4 10 -30 13 -166 13 -94 0 -171 -2 -171 -5z"/>
<path d="M7036 8938 c-44 -80 -341 -630 -458 -851 -83 -155 -89 -171 -78 -195
6 -15 80 -153 165 -307 84 -154 209 -385 278 -512 l126 -233 -289 -537 c-160
-295 -290 -541 -290 -546 0 -5 74 -145 164 -311 90 -165 220 -405 290 -533
l125 -232 -158 -293 c-87 -161 -217 -402 -290 -536 -72 -134 -131 -247 -131
-253 0 -8 164 -313 512 -952 47 -87 67 -132 60 -140 -5 -7 -62 -111 -127 -232
-65 -121 -191 -356 -281 -522 -90 -166 -164 -306 -164 -311 0 -11 2 -15 345
-647 126 -231 228 -425 228 -430 0 -6 -41 -89 -92 -183 -52 -95 -91 -175 -89
-178 3 -2 153 -3 335 -2 l330 3 -98 180 -98 180 23 40 c80 139 556 1026 556
1036 0 6 -129 251 -287 543 -157 292 -286 536 -286 541 0 6 79 154 175 330
325 596 398 732 398 744 0 10 -156 304 -404 761 -22 41 -70 131 -107 199 l-66
123 288 532 c159 292 289 536 289 543 0 7 -128 250 -285 541 -157 291 -285
535 -285 543 0 7 49 103 109 213 60 111 182 336 271 501 89 165 170 314 180
330 l18 30 -292 540 -291 540 -142 3 -142 3 -35 -63z m364 -672 c101 -189 184
-346 185 -349 0 -9 -370 -687 -375 -687 -7 1 -370 674 -370 686 0 6 73 145
161 310 89 164 171 318 183 341 11 23 23 42 26 42 3 0 88 -154 190 -343z m1
-2162 l186 -346 -71 -132 c-199 -369 -301 -556 -306 -555 -10 0 -371 679 -368
693 4 19 362 685 368 686 3 0 89 -156 191 -346z m0 -2159 l186 -346 -186 -344
c-102 -190 -188 -345 -191 -344 -10 0 -365 670 -365 689 0 18 355 689 365 690
3 0 89 -155 191 -345z m-106 -1962 c43 -82 127 -237 186 -345 l107 -197 -188
-346 -188 -346 -55 98 c-139 249 -317 583 -317 593 0 14 363 690 370 690 4 0
42 -66 85 -147z"/>
<path d="M7123 8075 c-46 -85 -83 -156 -83 -159 0 -5 103 -198 147 -274 l25
-44 80 149 c44 81 83 153 85 160 5 12 -157 323 -167 323 -3 0 -42 -70 -87
-155z"/>
<path d="M7122 5916 c-45 -85 -82 -157 -82 -160 0 -5 95 -182 147 -274 l25
-44 80 149 c44 81 83 153 85 160 5 13 -154 323 -166 323 -3 0 -43 -69 -89
-154z"/>
<path d="M7121 3755 l-83 -155 83 -155 c46 -85 86 -155 90 -155 7 0 169 296
169 309 0 13 -162 311 -169 311 -4 0 -44 -70 -90 -155z"/>
<path d="M7198 1738 c-8 -13 -47 -85 -87 -161 l-73 -137 84 -155 c45 -85 85
-155 88 -155 7 0 170 298 170 310 0 5 -38 79 -84 165 -80 150 -84 154 -98 133z"/>
<path d="M7583 8958 c14 -24 106 -194 205 -378 99 -184 219 -407 266 -494 47
-88 86 -164 86 -169 0 -6 -20 -47 -44 -91 -24 -45 -154 -285 -289 -533 l-246
-452 290 -537 c159 -295 289 -540 289 -546 0 -5 -130 -250 -289 -543 l-290
-534 290 -535 c159 -295 289 -541 289 -547 0 -9 -352 -664 -521 -968 -57 -103
-57 -105 -42 -135 9 -17 139 -259 289 -538 151 -279 274 -512 274 -517 0 -9
-164 -315 -510 -951 l-68 -125 59 -110 c33 -60 76 -143 97 -183 l36 -72 178 0
179 0 -42 77 c-23 43 -67 122 -96 177 -30 54 -53 106 -51 116 4 21 361 680
368 680 3 0 39 -62 80 -137 41 -76 123 -228 183 -338 61 -110 110 -204 110
-210 0 -9 -111 -221 -170 -323 l-24 -42 176 2 177 3 89 164 c58 107 89 174 89
195 0 22 -86 189 -284 554 l-284 522 284 527 c191 353 284 536 284 556 0 20
-93 201 -284 554 l-285 524 19 32 c10 18 138 254 284 525 180 334 266 503 266
524 0 20 -90 195 -281 546 -155 285 -281 522 -282 527 0 6 126 246 281 533
189 351 282 532 282 552 0 20 -92 198 -281 547 -155 285 -282 523 -282 528 0
6 126 245 281 532 155 287 282 529 282 538 0 14 -20 15 -167 13 l-167 -3 -71
-130 c-39 -71 -122 -226 -185 -342 -62 -117 -116 -213 -119 -213 -3 0 -89 155
-191 345 l-185 344 -178 1 -178 0 24 -42z m898 -1774 l186 -344 -186 -345
c-102 -190 -188 -345 -191 -345 -8 0 -370 676 -370 690 0 14 362 689 370 689
3 0 89 -155 191 -345z m0 -2159 l186 -344 -186 -345 c-102 -190 -188 -346
-191 -346 -7 1 -364 665 -368 685 -3 15 357 694 368 695 3 0 89 -155 191 -345z
m-71 -2027 c63 -117 147 -271 186 -344 l71 -132 -186 -346 c-102 -190 -188
-345 -191 -345 -6 0 -364 665 -368 685 -3 14 357 694 368 694 3 0 57 -96 120
-212z"/>
<path d="M8205 7002 c-44 -81 -80 -154 -80 -162 0 -18 156 -310 165 -310 7 0
170 297 170 310 0 12 -163 310 -169 310 -3 0 -42 -66 -86 -148z"/>
<path d="M8209 4853 c-41 -75 -78 -145 -83 -154 -6 -14 12 -56 75 -174 46 -85
86 -155 89 -155 7 0 163 286 168 307 2 6 -9 34 -24 60 -15 26 -51 94 -81 151
-30 56 -58 102 -62 102 -5 0 -41 -62 -82 -137z"/>
<path d="M8250 2772 c-19 -37 -57 -108 -84 -159 l-49 -91 84 -156 c46 -86 86
-156 89 -156 4 0 44 70 89 156 l84 157 -19 36 c-60 117 -150 281 -154 281 -3
0 -21 -30 -40 -68z"/>
<path d="M8122 8992 c12 -30 164 -312 168 -312 3 0 20 28 37 63 18 34 55 104
83 155 27 51 50 95 50 97 0 3 -77 5 -171 5 -94 0 -169 -4 -167 -8z"/>
<path d="M8825 8254 c-93 -174 -171 -323 -173 -332 -2 -13 324 -630 344 -651
2 -2 4 289 4 647 0 359 -1 652 -3 652 -1 -1 -78 -143 -172 -316z"/>
<path d="M0 6841 c0 -387 2 -702 4 -700 2 2 88 160 191 352 l187 347 -113 208
c-62 114 -148 272 -191 352 l-78 145 0 -704z"/>
<path d="M8823 6090 c-95 -175 -173 -324 -173 -331 0 -11 261 -501 326 -614
l24 -40 0 653 c0 358 -1 652 -3 652 -1 0 -80 -144 -174 -320z"/>
<path d="M0 4679 c0 -387 4 -697 9 -689 5 8 90 167 190 353 l183 338 -188 347
c-103 191 -189 349 -191 351 -1 2 -3 -313 -3 -700z"/>
<path d="M8822 3931 c-95 -176 -172 -326 -172 -333 0 -7 79 -157 175 -333
l175 -320 0 653 c0 358 -1 652 -3 652 -1 0 -80 -144 -175 -319z"/>
<path d="M0 2520 c0 -387 2 -701 3 -699 2 2 25 45 52 94 26 50 110 207 187
349 l140 259 -20 36 c-11 20 -95 176 -187 346 -92 171 -169 312 -171 314 -2 2
-4 -312 -4 -699z"/>
<path d="M8822 1771 c-95 -175 -172 -325 -172 -332 1 -8 79 -158 175 -334
l175 -320 0 653 c0 358 -1 652 -3 652 -1 0 -80 -143 -175 -319z"/>
<path d="M0 533 l0 -533 93 0 93 0 90 167 c49 91 93 174 97 183 6 12 -42 109
-173 351 -100 184 -186 341 -191 349 -5 8 -9 -216 -9 -517z"/>
<path d="M1737 543 c-41 -76 -79 -147 -85 -159 -9 -18 1 -44 69 -170 45 -82
84 -153 89 -157 7 -8 173 287 173 308 0 10 -163 315 -168 315 -2 0 -37 -62
-78 -137z"/>
<path d="M3900 548 c-40 -73 -79 -144 -87 -156 -14 -22 -12 -29 18 -85 51 -99
140 -257 143 -257 6 0 171 313 169 319 -2 8 -164 305 -168 309 -2 2 -36 -57
-75 -130z"/>
<path d="M6107 639 c-14 -24 -53 -96 -87 -159 l-62 -115 46 -85 c26 -47 63
-118 84 -158 20 -39 39 -72 42 -72 3 0 43 69 88 152 55 102 81 160 78 173 -3
11 -41 85 -85 164 l-79 144 -25 -44z"/>
<path d="M8220 558 c-36 -67 -73 -138 -84 -158 l-18 -36 83 -157 c46 -86 86
-157 89 -157 3 0 43 70 89 156 l84 156 -19 37 c-60 118 -150 281 -154 281 -3
0 -34 -55 -70 -122z"/>
</g>
</svg>
