<svg xmlns="http://www.w3.org/2000/svg" width="36.757" height="34.71" viewBox="0 0 36.757 34.71">
  <g id="Icon_material-format-color-fill" data-name="Icon material-format-color-fill" transform="translate(0)">
    <path id="Path_104071" data-name="Path 104071" d="M32.188,18.253,13.934,0,11.055,2.879l4.859,4.859L5.4,18.253a3.044,3.044,0,0,0,0,4.329l11.23,11.23a3.056,3.056,0,0,0,4.329,0l11.23-11.23A3.044,3.044,0,0,0,32.188,18.253ZM9.014,20.418l9.78-9.78,9.78,9.78ZM37.17,23.48s-4.084,4.431-4.084,7.146a4.084,4.084,0,1,0,8.167,0C41.253,27.911,37.17,23.48,37.17,23.48Z" transform="translate(-4.496 0)" fill="#656565"/>
  </g>
</svg>
