<svg xmlns="http://www.w3.org/2000/svg" width="17.112" height="17.112" viewBox="0 0 17.112 17.112">
  <path id="Icon_material-tag-faces" data-name="Icon material-tag-faces" d="M11.547,3a8.556,8.556,0,1,0,8.565,8.556A8.552,8.552,0,0,0,11.547,3Zm.009,15.4A6.845,6.845,0,1,1,18.4,11.556,6.843,6.843,0,0,1,11.556,18.4Zm2.995-7.7a1.283,1.283,0,1,0-1.283-1.283A1.282,1.282,0,0,0,14.551,10.7Zm-5.989,0A1.283,1.283,0,1,0,7.278,9.417,1.282,1.282,0,0,0,8.561,10.7Zm2.995,5.561a4.7,4.7,0,0,0,4.372-2.995H7.184A4.7,4.7,0,0,0,11.556,16.262Z" transform="translate(-3 -3)" fill="#656565"/>
</svg>
