<svg xmlns="http://www.w3.org/2000/svg" width="30.008" height="27.256" viewBox="0 0 30.008 27.256">
  <g id="Group_65667" data-name="Group 65667" transform="translate(-995.153 -595.686)">
    <g id="Icon_feather-rotate-ccw" data-name="Icon feather-rotate-ccw" transform="translate(996.403 596.944)">
      <path id="Path_104329" data-name="Path 104329" d="M1.5,6v8.248H9.748" transform="translate(-1.5 -4.638)" fill="none" stroke="#4b4b4b" stroke-linejoin="round" stroke-width="2.5"/>
      <path id="Path_104330" data-name="Path 104330" d="M4.951,21A12.372,12.372,0,1,0,7.879,8.13L1.5,14.124" transform="translate(-1.5 -4.514)" fill="none" stroke="#4b4b4b" stroke-linejoin="round" stroke-width="2.5"/>
    </g>
    <g id="Polygon_1" data-name="Polygon 1" transform="matrix(0.848, -0.53, 0.53, 0.848, 1005.7, 605.807)" fill="#4b4b4b">
      <path d="M 4.554504871368408 4.86352014541626 L 0.8090150952339172 4.86352014541626 L 2.68176007270813 1.118030309677124 L 4.554504871368408 4.86352014541626 Z" stroke="none"/>
      <path d="M 2.68176007270813 2.236070394515991 L 1.618035078048706 4.36352014541626 L 3.745485067367554 4.36352014541626 L 2.68176007270813 2.236070394515991 M 2.68176007270813 4.76837158203125e-07 L 5.36352014541626 5.36352014541626 L 0 5.36352014541626 L 2.68176007270813 4.76837158203125e-07 Z" stroke="none" fill="#4b4b4b"/>
    </g>
    <g id="Polygon_2" data-name="Polygon 2" transform="matrix(-0.848, 0.53, -0.53, -0.848, 1016.783, 613.362)" fill="#4b4b4b">
      <path d="M 4.554361820220947 4.863377094268799 L 0.8090116381645203 4.863377094268799 L 2.681686639785767 1.118026852607727 L 4.554361820220947 4.863377094268799 Z" stroke="none"/>
      <path d="M 2.681686639785767 2.236066818237305 L 1.618031740188599 4.363376617431641 L 3.745341777801514 4.363376617431641 L 2.681686639785767 2.236066818237305 M 2.681686639785767 -3.337860107421875e-06 L 5.363376617431641 5.363377094268799 L -3.337860107421875e-06 5.363377094268799 L 2.681686639785767 -3.337860107421875e-06 Z" stroke="none" fill="#4b4b4b"/>
    </g>
  </g>
</svg>
