<svg id="Layer_1" data-name="Layer 1" xmlns="http://www.w3.org/2000/svg" xmlns:xlink="http://www.w3.org/1999/xlink" viewBox="0 0 2261.11 2236.6"><defs><pattern id="New_Pattern_13" data-name="New Pattern 13" width="608" height="423" patternTransform="translate(-3509.34 2241.51) scale(0.73 1)" patternUnits="userSpaceOnUse" viewBox="0 0 608 423"><rect width="608" height="423" fill="none"/><polyline points="614.41 440 718.37 439.49 718.27 423.27 606.19 422.93"/><polyline points="52.91 594.41 220.29 423.11 194.02 422.51 49.19 570.66"/><polyline points="101.83 621.88 321 845.9 333 845.39 332.9 831.35 128.59 622.1 330.74 422.54 302.7 422.59"/><polyline points="524.47 600.21 433.88 422.81 414.44 422.79 412.74 430.16 507.65 609.04"/><polyline points="6.41 440 110.37 439.49 110.27 423.27 -1.81 422.93"/><polyline points="149.14 470.46 148.63 422.49 129.63 422.59 130.19 480.72"/><polyline points="278.48 455.78 247.72 422.84 222.44 423.1 263.84 468.27"/><polyline points="304.02 430.75 294.31 422.33 269.04 422.58 289.46 443.78"/><polyline points="186.16 449.65 185.65 422.49 166.65 422.59 167.22 459.91"/><polyline points="111.12 463.18 110.59 422.49 91.59 422.58 92.15 467.52"/><polyline points="295.97 504.7 380.74 422.67 353.43 422.42 274.96 498.85"/><polyline points="351.46 506.58 439.46 423 412.66 422.93 331.23 501.3"/><polyline points="699.46 107.84 606.53 74.9 606.4 95.46 689.12 124.45"/><polyline points="725.56 77.42 606.58 36.06 606.78 56.27 719.32 95.37"/><polyline points="754.69 48.83 606.27 0.61 606.53 16.44 748.4 66.76"/><polyline points="607.04 390.73 640.15 422.98 666.82 422.78 606.78 364.69"/><polyline points="614.41 17 718.37 16.49 718.27 0.27 606.19 -0.07"/><polyline points="91.46 107.84 -1.47 74.9 -1.6 95.46 81.12 124.45"/><polyline points="117.56 77.42 -1.42 36.06 -1.22 56.27 111.32 95.37"/><polyline points="146.69 48.83 -1.73 0.61 -1.47 16.44 140.4 66.76"/><polyline points="52.91 171.41 220.29 0.1 194.02 -0.49 49.19 147.66"/><polyline points="90.7 184.44 256.29 13.38 242.72 0.09 85.19 160.94"/><polyline points="101.83 198.88 321 422.9 333 422.39 332.9 408.35 128.59 199.09 330.74 -0.46 302.7 -0.41"/><polyline points="336.31 357.8 152.03 170.81 138.64 184.28 332.23 381.8"/><polyline points="321.76 344.78 471.81 188.75 460.58 173.12 305.68 330.73"/><polyline points="295.04 318.55 461 152.08 447.54 138.66 281.59 305.13"/><polyline points="264.33 290.53 436.93 121 426.44 103.75 251.02 276.98"/><polyline points="156.82 168.1 375.1 168.15 389.68 148.18 162.72 148.64"/><polyline points="193.34 128.83 421.59 128.83 421.59 109.83 205.08 109.83"/><polyline points="233.42 90.53 417.5 90.53 411.38 71.53 241.85 71.53"/><polyline points="484.14 180.81 404.48 28.13 387.64 36.92 467.3 189.6"/><polyline points="524.47 177.21 433.88 -0.19 414.44 -0.21 412.74 7.16 507.65 186.04"/><polyline points="563.35 173.77 474.95 0.61 454.27 0.61 546.39 182.34"/><polyline points="248.18 162.73 248.18 280.18 267.18 280.18 267.18 162.73"/><polyline points="286.47 163.25 286.53 247.25 305.47 238.31 305.47 163.25"/><polyline points="322.73 161.71 322.78 213.03 341.73 205.63 341.73 161.71"/><polyline points="250.27 181.88 223.23 257.5 241.06 264.05 263.02 204.31"/><polyline points="221.23 157.8 194.17 228.26 211.91 235.08 238.97 164.61"/><polyline points="181.44 157.2 165.09 198.56 182.77 205.54 199.11 164.18"/><polyline points="462.44 195.21 607.97 195.21 607.97 176.21 462.44 176.21"/><polyline points="432.77 235.55 608.94 236.57 609.05 217.57 432.88 216.55"/><polyline points="609 251.79 464.74 251.79 475.72 270.79 609 270.79"/><polyline points="590.3 261.29 590.3 423.67 609.3 423.67 609.3 261.29"/><polyline points="550.98 259.75 550.98 423.67 569.98 423.67 569.98 259.75"/><polyline points="511.15 259.25 511.15 422.14 530.15 422.14 530.15 259.25"/><polyline points="418.94 228.67 513.04 323.28 523.82 307.18 432.41 215.27"/><polyline points="393.36 255.17 491.91 355.76 505.48 342.47 406.93 241.87"/><polyline points="367.77 283.71 464.8 384.31 478.47 371.12 381.45 270.52"/><polyline points="513.49 318.84 407.55 422.74 434.78 422.39 526.79 332.41"/><polyline points="512.91 375.08 463 422.86 491.8 423.07 526.35 388.51"/><polyline points="365.11 282.78 366.13 422.55 385.13 422.45 384.11 282.69"/><polyline points="403.41 314.42 403.92 423.12 422.92 423.07 422.41 314.37"/><polyline points="326.3 316.97 326.81 422.82 345.81 422.77 345.3 316.92"/><polyline points="297.5 422.9 91.79 217.28 78.37 230.74 273.25 422.9"/><polyline points="1.54 87.67 1.54 379.25 20.54 379.25 20.54 87.67"/><polyline points="7.46 386.7 235.97 386.65 231.63 367.7 7.46 367.7"/><polyline points="31.46 420.4 271.97 420.4 271.97 401.4 31.46 401.4"/><polyline points="-0.96 390.73 32.15 422.98 58.82 422.78 -1.22 364.69"/><polyline points="36.26 98.96 37.79 375.72 56.79 375.62 55.26 98.85"/><polyline points="74.05 110.71 75.58 346.63 94.58 346.5 93.05 110.59"/><polyline points="63.55 381.01 152.91 295.73 139.8 281.99 50.44 367.27"/><polyline points="114.72 384.99 180.6 320.14 167.27 306.6 101.39 371.45"/><polyline points="172.43 382.43 209.2 346.18 195.86 332.65 159.09 368.91"/><polyline points="131.44 291.11 86.5 291.62 86.72 310.62 131.66 310.11"/><polygon points="130.02 272.52 84.57 273.03 85.08 238.82 94.78 230.65 130.02 272.52"/><polyline points="6.41 17 110.37 16.49 110.27 0.27 -1.81 -0.07"/><polyline points="149.14 47.46 148.63 -0.51 129.63 -0.41 130.19 57.72"/><polyline points="278.48 32.78 247.72 -0.16 222.44 0.1 263.84 45.27"/><polyline points="304.02 7.75 294.31 -0.67 269.04 -0.41 289.46 20.78"/><polyline points="186.16 26.65 185.65 -0.51 166.65 -0.41 167.22 36.91"/><polyline points="111.12 40.18 110.59 -0.51 91.59 -0.42 92.15 44.52"/><polyline points="295.97 81.7 380.74 -0.33 353.43 -0.58 274.96 75.85"/><polyline points="351.46 83.58 439.46 0 412.66 -0.07 331.23 78.3"/><polyline points="475.72 22.62 608.74 22.62 608.74 3.62 475.72 3.62"/><polyline points="493.59 56.83 609.76 56.83 609.76 37.83 493.59 37.83"/><polyline points="590.81 49.88 590.81 181.12 609.81 181.12 609.81 49.88"/><polyline points="551.5 47.84 551.5 186.22 570.5 186.22 570.5 47.84"/><polyline points="506.36 93.08 557.93 93.08 557.93 74.08 506.36 74.08"/><polyline points="523.72 132.91 559.46 132.91 559.46 113.92 523.72 113.92"/><polyline points="-175.23 235.55 0.94 236.57 1.05 217.57 -175.12 216.55"/><polyline points="0.99 251.79 -143.26 251.79 -132.28 270.79 0.99 270.79"/><polyline points="-17.7 261.29 -17.7 423.67 1.3 423.67 1.3 261.29"/><polyline points="-132.28 22.62 0.74 22.62 0.74 3.62 -132.28 3.62"/><polyline points="-114.41 56.83 1.76 56.83 1.76 37.83 -114.41 37.83"/><polyline points="-17.19 49.88 -17.19 181.12 1.81 181.12 1.81 49.88"/><polyline points="590.3 -161.71 590.3 0.67 609.3 0.67 609.3 -161.71"/><polyline points="550.98 -163.25 550.98 0.67 569.98 0.67 569.98 -163.25"/><polyline points="512.91 -47.92 463 -0.14 491.8 0.07 526.35 -34.48"/><polyline points="403.41 -108.58 403.92 0.12 422.92 0.07 422.41 -108.63"/><polyline points="-17.7 -161.71 -17.7 0.67 1.3 0.67 1.3 -161.71"/></pattern></defs><rect x="-9.19" y="-21.45" width="2279.49" height="2279.49" fill="url(#New_Pattern_13)"/></svg>