<?xml version="1.0" standalone="no"?>
<!DOCTYPE svg PUBLIC "-//W3C//DTD SVG 20010904//EN"
 "http://www.w3.org/TR/2001/REC-SVG-20010904/DTD/svg10.dtd">
<svg version="1.0" xmlns="http://www.w3.org/2000/svg"
 width="1500.000000pt" height="1000.000000pt" viewBox="0 0 1500.000000 1000.000000"
 preserveAspectRatio="xMidYMid meet">

<g transform="translate(0.000000,1000.000000) scale(0.100000,-0.100000)"
fill="#000000" stroke="none">
<path d="M222 9777 l-222 -222 2 -458 3 -457 680 680 680 680 -460 0 -460 0
-223 -223z"/>
<path d="M1147 8852 l-1147 -1147 2 -458 3 -457 1605 1605 1605 1605 -460 0
-460 0 -1148 -1148z"/>
<path d="M2070 7928 l-2070 -2072 0 -460 0 -461 2530 2530 c1392 1391 2530
2531 2530 2532 0 2 -207 3 -460 3 l-459 0 -2071 -2072z"/>
<path d="M2992 7007 l-2992 -2993 2 -462 3 -462 3455 3455 3455 3455 -465 0
-465 0 -2993 -2993z"/>
<path d="M7240 9405 c-327 -327 -592 -595 -589 -595 9 0 1928 946 1937 954 2
3 -13 57 -34 120 l-38 116 -341 0 -340 0 -595 -595z"/>
<path d="M9210 9992 c0 -4 59 -183 131 -398 72 -214 249 -742 394 -1174 145
-432 440 -1309 655 -1950 216 -641 398 -1187 406 -1213 11 -35 19 -46 27 -39
7 5 102 82 212 172 110 90 226 184 257 209 42 33 57 51 54 66 -2 11 -166 504
-365 1095 -199 591 -490 1455 -646 1920 -155 465 -319 951 -362 1080 l-80 235
-341 3 c-188 1 -342 -1 -342 -6z"/>
<path d="M10657 9778 c41 -123 266 -792 500 -1488 711 -2119 733 -2183 737
-2188 5 -4 516 412 529 431 5 7 -147 474 -378 1162 -213 633 -473 1409 -579
1725 l-193 575 -346 3 -346 2 76 -222z"/>
<path d="M12345 8858 c370 -1104 617 -1840 626 -1865 4 -11 539 421 539 436 0
6 -499 1497 -774 2311 -47 140 -86 256 -86 257 0 2 -155 3 -345 3 l-344 0 384
-1142z"/>
<path d="M13345 9983 c3 -10 108 -319 231 -688 253 -756 476 -1419 479 -1423
1 -1 98 77 216 174 118 97 237 195 266 218 29 22 52 46 52 52 1 6 -109 337
-243 735 -133 398 -260 775 -280 837 l-38 112 -345 0 c-325 0 -345 -1 -338
-17z"/>
<path d="M14720 9997 c0 -8 272 -812 276 -816 2 -2 4 181 4 407 l0 412 -140 0
c-77 0 -140 -1 -140 -3z"/>
<path d="M8545 9011 c-132 -65 -598 -295 -1035 -511 -437 -216 -939 -464
-1115 -550 -176 -87 -520 -257 -765 -378 l-445 -220 -539 -540 -539 -540 88
-45 87 -45 282 138 c278 136 671 330 1501 740 237 117 547 270 690 340 618
303 2248 1110 2253 1114 8 9 -202 616 -213 616 -5 -1 -118 -54 -250 -119z"/>
<path d="M8485 7524 c-396 -196 -819 -404 -940 -464 -244 -119 -745 -366
-1590 -784 -308 -153 -644 -318 -747 -368 -104 -50 -188 -94 -188 -98 0 -7 39
-27 463 -245 l249 -127 481 238 c265 131 658 324 872 430 215 105 655 323 979
483 324 160 591 291 592 291 4 0 768 381 772 385 7 7 -204 615 -213 615 -5 0
-334 -160 -730 -356z"/>
<path d="M14393 7299 c-681 -559 -889 -730 -1193 -980 -118 -97 -307 -252
-420 -345 -113 -92 -290 -238 -395 -324 -574 -472 -1158 -951 -1304 -1070 -91
-75 -222 -182 -291 -239 -153 -126 -688 -566 -781 -641 -37 -30 -128 -104
-202 -165 -74 -60 -133 -113 -130 -117 2 -4 88 -50 191 -102 103 -52 242 -123
308 -158 l122 -62 159 129 c88 72 307 252 488 400 181 149 356 293 390 320 79
64 246 201 604 495 157 130 601 494 986 810 385 316 799 655 920 755 121 99
309 254 418 343 108 89 284 233 390 320 105 87 227 186 270 221 l77 64 0 418
c0 231 -2 419 -4 419 -2 0 -274 -221 -603 -491z"/>
<path d="M8935 6289 c-379 -188 -865 -427 -1080 -533 -214 -106 -616 -304
-892 -441 l-503 -248 98 -52 c198 -104 613 -315 621 -315 5 0 375 181 822 401
448 221 909 448 1024 504 571 279 820 407 818 424 -4 38 -199 601 -208 601 -5
-1 -320 -154 -700 -341z"/>
<path d="M14919 6042 c-57 -50 -137 -115 -439 -362 -110 -89 -205 -168 -384
-316 -93 -76 -183 -150 -200 -164 -17 -13 -80 -65 -141 -115 -60 -50 -148
-122 -195 -160 -47 -38 -375 -308 -730 -599 -355 -292 -717 -589 -805 -661
-88 -72 -263 -216 -390 -320 -126 -104 -333 -274 -460 -378 -126 -103 -231
-191 -232 -195 -2 -4 138 -79 310 -167 l313 -159 49 39 c48 39 192 157 389
319 55 44 127 104 161 131 34 28 135 111 225 185 89 74 177 146 194 160 17 13
99 80 181 148 185 153 295 243 545 448 107 88 458 376 780 640 322 264 612
502 646 530 33 27 106 86 162 132 l102 83 0 419 c0 231 -3 420 -7 420 -5 -1
-38 -27 -74 -58z"/>
<path d="M3376 5541 l-238 -239 143 -74 c170 -89 335 -174 1124 -578 325 -166
678 -347 785 -402 107 -55 283 -146 390 -201 107 -55 276 -141 375 -192 99
-51 439 -225 755 -388 1805 -925 2461 -1262 2688 -1378 105 -54 281 -145 390
-200 108 -56 283 -146 387 -199 105 -54 537 -276 960 -493 424 -217 1122 -575
1552 -796 l783 -401 709 2 708 3 -205 106 -205 105 -1 78 c-1 85 -14 106 -66
106 -36 0 -59 -27 -62 -73 -3 -54 -31 -46 -39 11 -3 24 -12 48 -20 53 -22 14
-62 11 -88 -8 -22 -15 -25 -15 -36 0 -7 10 -20 17 -30 17 -10 0 -131 58 -269
129 -138 71 -762 391 -1386 711 -624 320 -1223 627 -1330 682 -478 246 -579
298 -980 503 -234 120 -488 250 -565 290 -77 40 -243 125 -370 190 -287 147
-569 291 -790 405 -93 48 -523 269 -955 490 -756 387 -966 495 -1355 695 -99
51 -450 231 -780 400 -699 358 -1261 647 -1531 786 -106 55 -196 99 -200 99
-5 0 -117 -107 -248 -239z m10902 -5198 c3 -21 1 -22 -27 -12 -17 6 -31 14
-31 18 0 31 54 25 58 -6z m163 0 c9 -25 7 -89 -4 -100 -3 -2 -16 2 -31 8 -21
10 -26 19 -26 50 0 20 3 44 6 53 10 26 43 19 55 -11z"/>
<path d="M9660 5189 c-212 -104 -583 -288 -825 -407 -242 -119 -550 -271 -685
-338 l-244 -121 269 -138 c149 -76 311 -159 361 -186 l91 -48 384 191 c211
104 429 211 484 238 364 174 770 383 769 396 -4 35 -200 604 -209 604 -5 0
-183 -86 -395 -191z"/>
<path d="M2405 4570 c-131 -131 -237 -241 -235 -243 3 -3 75 -40 160 -82 85
-43 382 -194 660 -337 278 -143 606 -312 730 -375 124 -64 297 -153 385 -198
88 -46 518 -266 955 -490 437 -224 876 -449 975 -500 99 -51 446 -229 770
-395 660 -338 915 -469 1120 -575 77 -40 262 -134 410 -210 149 -76 324 -166
390 -200 66 -35 325 -167 575 -295 250 -128 509 -260 575 -295 66 -34 251
-129 410 -210 160 -81 294 -152 299 -156 6 -5 334 -9 730 -9 l721 0 -225 116
c-598 307 -730 374 -920 472 -113 57 -277 142 -365 187 -88 45 -263 135 -390
200 -126 65 -288 148 -360 185 -71 37 -240 124 -375 193 -274 140 -1263 646
-1555 797 -104 54 -368 189 -585 300 -217 111 -476 244 -575 295 -240 123
-686 353 -1155 593 -1131 579 -1795 919 -1945 997 -99 51 -274 141 -390 200
-115 59 -283 145 -371 191 -89 46 -166 84 -170 84 -5 0 -117 -108 -249 -240z"/>
<path d="M14922 4353 c-109 -90 -263 -217 -1227 -1008 -495 -406 -977 -802
-1071 -879 -94 -78 -226 -185 -293 -240 -66 -54 -121 -102 -121 -105 0 -4 141
-78 313 -166 l313 -159 84 69 c97 78 150 122 270 221 47 39 175 144 285 234
110 90 245 201 300 246 158 131 333 274 425 350 47 38 246 201 443 362 l357
294 0 419 c0 230 -2 419 -4 419 -2 0 -36 -26 -74 -57z"/>
<path d="M1435 3600 c-131 -131 -237 -241 -235 -243 3 -2 140 -73 305 -157
165 -84 350 -179 410 -210 61 -32 477 -246 925 -475 448 -229 887 -454 975
-500 88 -45 268 -138 400 -205 132 -67 312 -160 400 -205 88 -46 426 -219 750
-385 325 -166 662 -339 750 -385 88 -45 261 -134 385 -198 124 -63 454 -233
734 -376 l508 -261 711 2 711 3 -174 89 c-96 49 -233 119 -305 156 -71 37
-413 213 -760 390 -346 177 -697 357 -780 400 -82 42 -253 130 -380 195 -126
65 -306 157 -400 205 -93 49 -606 312 -1140 585 -533 274 -1229 630 -1545 792
-654 336 -857 440 -1335 685 -453 233 -660 338 -665 338 -3 0 -113 -108 -245
-240z"/>
<path d="M465 2630 c-131 -131 -237 -241 -235 -243 3 -2 91 -48 195 -102 404
-208 818 -420 1160 -595 121 -62 301 -154 400 -205 427 -219 562 -289 770
-395 461 -236 635 -325 780 -400 83 -43 419 -215 747 -384 l597 -306 713 0
713 0 -140 73 c-77 41 -354 183 -615 317 -261 133 -547 280 -635 325 -88 46
-689 354 -1335 685 -646 331 -1260 646 -1365 700 -863 444 -1500 770 -1506
770 -2 0 -112 -108 -244 -240z"/>
<path d="M14665 2449 c-182 -148 -389 -318 -461 -377 -519 -424 -724 -595
-724 -601 0 -8 605 -321 620 -321 9 0 82 59 464 374 54 44 113 92 130 106 18
14 94 76 169 138 l137 114 0 419 c0 230 -1 419 -3 419 -2 0 -151 -122 -332
-271z"/>
<path d="M0 1398 l0 -363 168 -86 c175 -91 664 -342 1407 -723 l440 -226 711
2 711 3 -761 390 c-418 215 -878 450 -1021 523 -143 74 -438 225 -655 337
-860 441 -975 500 -987 503 -10 3 -13 -74 -13 -360z"/>
<path d="M14868 929 c-70 -57 -127 -106 -127 -109 -1 -7 250 -132 255 -127 3
2 3 80 2 172 l-3 167 -127 -103z"/>
<path d="M0 150 l0 -150 288 0 287 0 -60 33 c-33 19 -162 86 -287 150 l-228
116 0 -149z"/>
</g>
</svg>
