<svg id="Layer_1" data-name="Layer 1" xmlns="http://www.w3.org/2000/svg" xmlns:xlink="http://www.w3.org/1999/xlink" viewBox="0 0 2261.11 2236.6"><defs><pattern id="New_Pattern_7" data-name="New Pattern 7" width="485" height="348" patternTransform="translate(-85.87 21.96)" patternUnits="userSpaceOnUse" viewBox="0 0 485 348"><rect width="485" height="348" fill="none"/><polygon points="544.28 404.21 514.41 421.45 484.54 404.21 484.54 369.75 514.41 352.51 544.28 369.75 544.28 404.21" fill="none" stroke="#000" stroke-miterlimit="10" stroke-width="10"/><polygon points="59.28 404.21 29.41 421.45 -0.46 404.21 -0.46 369.75 29.41 352.51 59.28 369.75 59.28 404.21" fill="none" stroke="#000" stroke-miterlimit="10" stroke-width="10"/><polygon points="180.81 404.21 150.94 421.45 121.07 404.21 121.07 369.75 150.94 352.51 180.81 369.75 180.81 404.21" fill="none" stroke="#000" stroke-miterlimit="10" stroke-width="10"/><polygon points="119.2 331.02 89.33 348.25 59.45 331.02 59.45 296.55 89.33 279.32 119.2 296.55 119.2 331.02" fill="none" stroke="#000" stroke-miterlimit="10" stroke-width="10"/><polygon points="99.44 319.96 88.3 326.38 77.17 319.96 77.17 307.11 88.3 300.68 99.44 307.11 99.44 319.96"/><polygon points="240.99 331.02 211.11 348.25 181.24 331.02 181.24 296.55 211.11 279.32 240.99 296.55 240.99 331.02" fill="none" stroke="#000" stroke-miterlimit="10" stroke-width="10"/><polygon points="221.23 319.96 210.09 326.38 198.95 319.96 198.95 307.11 210.09 300.68 221.23 307.11 221.23 319.96"/><polyline points="29.41 352.51 29.41 278.64 89.24 244.25 150.52 281.7 150.52 353.19" fill="none" stroke="#000" stroke-miterlimit="10" stroke-width="10"/><polyline points="149.66 352.51 149.66 278.64 209.5 244.25 270.77 281.7 270.77 353.19" fill="none" stroke="#000" stroke-miterlimit="10" stroke-width="10"/><polygon points="301.84 401.75 271.96 418.98 242.09 401.75 242.09 367.28 271.96 350.04 301.84 367.28 301.84 401.75" fill="none" stroke="#000" stroke-miterlimit="10" stroke-width="10"/><polygon points="423.37 401.75 393.5 418.98 363.62 401.75 363.62 367.28 393.5 350.04 423.37 367.28 423.37 401.75" fill="none" stroke="#000" stroke-miterlimit="10" stroke-width="10"/><polygon points="361.75 328.55 331.88 345.79 302.01 328.55 302.01 294.08 331.88 276.85 361.75 294.08 361.75 328.55" fill="none" stroke="#000" stroke-miterlimit="10" stroke-width="10"/><polygon points="341.99 317.49 330.86 323.92 319.72 317.49 319.72 304.64 330.86 298.21 341.99 304.64 341.99 317.49"/><polygon points="481.24 328.55 451.37 345.79 421.5 328.55 421.5 294.08 451.37 276.85 481.24 294.08 481.24 328.55" fill="none" stroke="#000" stroke-miterlimit="10" stroke-width="10"/><polygon points="461.48 317.49 450.35 323.92 439.21 317.49 439.21 304.64 450.35 298.21 461.48 304.64 461.48 317.49"/><polyline points="271.96 350.04 271.96 276.17 331.79 241.79 393.07 279.23 393.07 350.72" fill="none" stroke="#000" stroke-miterlimit="10" stroke-width="10"/><polyline points="392.99 350.04 392.99 276.17 452.81 241.79 514.09 279.23 514.09 350.72" fill="none" stroke="#000" stroke-miterlimit="10" stroke-width="10"/><polyline points="331.54 345.96 331.54 419.83 391.37 454.21 452.64 416.77 452.64 345.28" fill="none" stroke="#000" stroke-miterlimit="10" stroke-width="10"/><polyline points="331.11 417.79 270.52 453.87 210.6 416.43 209.92 341.87" fill="none" stroke="#000" stroke-miterlimit="10" stroke-width="10"/><polyline points="89.5 345.96 89.5 419.83 149.32 454.21 210.6 416.77 210.6 345.28" fill="none" stroke="#000" stroke-miterlimit="10" stroke-width="10"/><polygon points="-3.76 328.55 -33.63 345.79 -63.51 328.55 -63.51 294.08 -33.63 276.85 -3.76 294.08 -3.76 328.55" fill="none" stroke="#000" stroke-miterlimit="10" stroke-width="10"/><polyline points="-92.02 350.04 -92.02 276.17 -32.19 241.79 29.09 279.23 29.09 350.72" fill="none" stroke="#000" stroke-miterlimit="10" stroke-width="10"/><polygon points="544.28 230.21 514.41 247.45 484.54 230.21 484.54 195.75 514.41 178.51 544.28 195.75 544.28 230.21" fill="none" stroke="#000" stroke-miterlimit="10" stroke-width="10"/><polyline points="574.07 243.79 513.47 279.87 453.56 242.43" fill="none" stroke="#000" stroke-miterlimit="10" stroke-width="10"/><polygon points="59.28 230.21 29.41 247.45 -0.46 230.21 -0.46 195.75 29.41 178.51 59.28 195.75 59.28 230.21" fill="none" stroke="#000" stroke-miterlimit="10" stroke-width="10"/><polygon points="39.53 219.15 28.39 225.57 17.25 219.15 17.25 206.3 28.39 199.87 39.53 206.3 39.53 219.15"/><polygon points="180.81 230.21 150.94 247.45 121.07 230.21 121.07 195.75 150.94 178.51 180.81 195.75 180.81 230.21" fill="none" stroke="#000" stroke-miterlimit="10" stroke-width="10"/><polygon points="161.06 219.15 149.92 225.57 138.78 219.15 138.78 206.3 149.92 199.87 161.06 206.3 161.06 219.15"/><polygon points="119.2 157.02 89.33 174.25 59.45 157.02 59.45 122.55 89.33 105.32 119.2 122.55 119.2 157.02" fill="none" stroke="#000" stroke-miterlimit="10" stroke-width="10"/><polygon points="99.44 145.96 88.3 152.38 77.17 145.96 77.17 133.11 88.3 126.68 99.44 133.11 99.44 145.96"/><polygon points="240.99 157.02 211.11 174.25 181.24 157.02 181.24 122.55 211.11 105.32 240.99 122.55 240.99 157.02" fill="none" stroke="#000" stroke-miterlimit="10" stroke-width="10"/><polygon points="221.23 145.96 210.09 152.38 198.95 145.96 198.95 133.11 210.09 126.68 221.23 133.11 221.23 145.96"/><polyline points="29.41 178.51 29.41 104.64 89.24 70.25 150.52 107.7 150.52 179.19" fill="none" stroke="#000" stroke-miterlimit="10" stroke-width="10"/><polyline points="149.66 178.51 149.66 104.64 209.5 70.25 270.77 107.7 270.77 179.19" fill="none" stroke="#000" stroke-miterlimit="10" stroke-width="10"/><line x1="88.98" y1="174.43" x2="88.98" y2="248.3" fill="none" stroke="#000" stroke-miterlimit="10" stroke-width="10"/><polygon points="301.84 227.75 271.96 244.98 242.09 227.75 242.09 193.28 271.96 176.04 301.84 193.28 301.84 227.75" fill="none" stroke="#000" stroke-miterlimit="10" stroke-width="10"/><polygon points="282.08 216.68 270.94 223.11 259.8 216.68 259.8 203.83 270.94 197.4 282.08 203.83 282.08 216.68"/><polygon points="423.37 227.75 393.5 244.98 363.62 227.75 363.62 193.28 393.5 176.04 423.37 193.28 423.37 227.75" fill="none" stroke="#000" stroke-miterlimit="10" stroke-width="10"/><polygon points="403.61 216.68 392.47 223.11 381.34 216.68 381.34 203.83 392.47 197.4 403.61 203.83 403.61 216.68"/><polygon points="361.75 154.55 331.88 171.79 302.01 154.55 302.01 120.08 331.88 102.85 361.75 120.08 361.75 154.55" fill="none" stroke="#000" stroke-miterlimit="10" stroke-width="10"/><polygon points="341.99 143.49 330.86 149.91 319.72 143.49 319.72 130.64 330.86 124.21 341.99 130.64 341.99 143.49"/><polygon points="481.24 154.55 451.37 171.79 421.5 154.55 421.5 120.08 451.37 102.85 481.24 120.08 481.24 154.55" fill="none" stroke="#000" stroke-miterlimit="10" stroke-width="10"/><polygon points="461.48 143.49 450.35 149.91 439.21 143.49 439.21 130.64 450.35 124.21 461.48 130.64 461.48 143.49"/><polyline points="271.96 176.04 271.96 102.17 331.79 67.79 393.07 105.23 393.07 176.72" fill="none" stroke="#000" stroke-miterlimit="10" stroke-width="10"/><polyline points="392.99 176.04 392.99 102.17 452.81 67.79 514.09 105.23 514.09 176.72" fill="none" stroke="#000" stroke-miterlimit="10" stroke-width="10"/><polyline points="331.54 171.96 331.54 245.83 391.37 280.21 452.64 242.77 452.64 171.28" fill="none" stroke="#000" stroke-miterlimit="10" stroke-width="10"/><polyline points="331.11 243.79 270.52 279.87 210.6 242.43 209.92 167.87" fill="none" stroke="#000" stroke-miterlimit="10" stroke-width="10"/><polyline points="89.5 171.96 89.5 245.83 149.32 280.21 210.6 242.77 210.6 171.28" fill="none" stroke="#000" stroke-miterlimit="10" stroke-width="10"/><polyline points="89.07 243.79 28.47 279.87 -31.44 242.43" fill="none" stroke="#000" stroke-miterlimit="10" stroke-width="10"/><polygon points="-3.76 154.55 -33.63 171.79 -63.51 154.55 -63.51 120.08 -33.63 102.85 -3.76 120.08 -3.76 154.55" fill="none" stroke="#000" stroke-miterlimit="10" stroke-width="10"/><polyline points="-92.02 176.04 -92.02 102.17 -32.19 67.79 29.09 105.23 29.09 176.72" fill="none" stroke="#000" stroke-miterlimit="10" stroke-width="10"/><polygon points="544.28 56.21 514.41 73.45 484.54 56.21 484.54 21.75 514.41 4.51 544.28 21.75 544.28 56.21" fill="none" stroke="#000" stroke-miterlimit="10" stroke-width="10"/><polyline points="574.07 69.79 513.47 105.87 453.56 68.43" fill="none" stroke="#000" stroke-miterlimit="10" stroke-width="10"/><polygon points="59.28 56.21 29.41 73.45 -0.46 56.21 -0.46 21.75 29.41 4.51 59.28 21.75 59.28 56.21" fill="none" stroke="#000" stroke-miterlimit="10" stroke-width="10"/><polygon points="39.53 45.15 28.39 51.58 17.25 45.15 17.25 32.3 28.39 25.87 39.53 32.3 39.53 45.15"/><polygon points="180.81 56.21 150.94 73.45 121.07 56.21 121.07 21.75 150.94 4.51 180.81 21.75 180.81 56.21" fill="none" stroke="#000" stroke-miterlimit="10" stroke-width="10"/><polygon points="161.06 45.15 149.92 51.58 138.78 45.15 138.78 32.3 149.92 25.87 161.06 32.3 161.06 45.15"/><polygon points="119.2 -16.98 89.33 0.26 59.45 -16.98 59.45 -51.45 89.33 -68.68 119.2 -51.45 119.2 -16.98" fill="none" stroke="#000" stroke-miterlimit="10" stroke-width="10"/><polygon points="240.99 -16.98 211.11 0.26 181.24 -16.98 181.24 -51.45 211.11 -68.68 240.99 -51.45 240.99 -16.98" fill="none" stroke="#000" stroke-miterlimit="10" stroke-width="10"/><polyline points="29.41 4.51 29.41 -69.36 89.24 -103.75 150.52 -66.3 150.52 5.19" fill="none" stroke="#000" stroke-miterlimit="10" stroke-width="10"/><polyline points="149.66 4.51 149.66 -69.36 209.5 -103.75 270.77 -66.3 270.77 5.19" fill="none" stroke="#000" stroke-miterlimit="10" stroke-width="10"/><line x1="88.98" y1="0.43" x2="88.98" y2="74.3" fill="none" stroke="#000" stroke-miterlimit="10" stroke-width="10"/><polygon points="301.84 53.74 271.96 70.98 242.09 53.74 242.09 19.28 271.96 2.04 301.84 19.28 301.84 53.74" fill="none" stroke="#000" stroke-miterlimit="10" stroke-width="10"/><polygon points="282.08 42.68 270.94 49.11 259.8 42.68 259.8 29.83 270.94 23.4 282.08 29.83 282.08 42.68"/><polygon points="423.37 53.74 393.5 70.98 363.62 53.74 363.62 19.28 393.5 2.04 423.37 19.28 423.37 53.74" fill="none" stroke="#000" stroke-miterlimit="10" stroke-width="10"/><polygon points="403.61 42.68 392.47 49.11 381.34 42.68 381.34 29.83 392.47 23.4 403.61 29.83 403.61 42.68"/><polygon points="361.75 -19.45 331.88 -2.21 302.01 -19.45 302.01 -53.91 331.88 -71.15 361.75 -53.91 361.75 -19.45" fill="none" stroke="#000" stroke-miterlimit="10" stroke-width="10"/><polygon points="481.24 -19.45 451.37 -2.21 421.5 -19.45 421.5 -53.91 451.37 -71.15 481.24 -53.91 481.24 -19.45" fill="none" stroke="#000" stroke-miterlimit="10" stroke-width="10"/><polyline points="271.96 2.04 271.96 -71.83 331.79 -106.21 393.07 -68.77 393.07 2.72" fill="none" stroke="#000" stroke-miterlimit="10" stroke-width="10"/><polyline points="392.99 2.04 392.99 -71.83 452.81 -106.21 514.09 -68.77 514.09 2.72" fill="none" stroke="#000" stroke-miterlimit="10" stroke-width="10"/><polyline points="331.54 -2.04 331.54 71.83 391.37 106.21 452.64 68.77 452.64 -2.72" fill="none" stroke="#000" stroke-miterlimit="10" stroke-width="10"/><polyline points="331.11 69.79 270.52 105.87 210.6 68.43 209.92 -6.13" fill="none" stroke="#000" stroke-miterlimit="10" stroke-width="10"/><polyline points="89.5 -2.04 89.5 71.83 149.32 106.21 210.6 68.77 210.6 -2.72" fill="none" stroke="#000" stroke-miterlimit="10" stroke-width="10"/><polyline points="89.07 69.79 28.47 105.87 -31.44 68.43" fill="none" stroke="#000" stroke-miterlimit="10" stroke-width="10"/><polygon points="-3.76 -19.45 -33.63 -2.21 -63.51 -19.45 -63.51 -53.91 -33.63 -71.15 -3.76 -53.91 -3.76 -19.45" fill="none" stroke="#000" stroke-miterlimit="10" stroke-width="10"/><polyline points="-92.02 2.04 -92.02 -71.83 -32.19 -106.21 29.09 -68.77 29.09 2.72" fill="none" stroke="#000" stroke-miterlimit="10" stroke-width="10"/></pattern></defs><rect x="6.13" y="-6.13" width="2248.85" height="2248.85" fill="url(#New_Pattern_7)"/></svg>