<?xml version="1.0" standalone="no"?>
<!DOCTYPE svg PUBLIC "-//W3C//DTD SVG 20010904//EN"
 "http://www.w3.org/TR/2001/REC-SVG-20010904/DTD/svg10.dtd">
<svg version="1.0" xmlns="http://www.w3.org/2000/svg"
 width="1500.000000pt" height="1000.000000pt" viewBox="0 0 1500.000000 1000.000000"
 preserveAspectRatio="xMidYMid meet">

<g transform="translate(0.000000,1000.000000) scale(0.100000,-0.100000)"
fill="#000000" stroke="none">
<path d="M7 9993 c-4 -3 -7 -31 -6 -62 0 -42 3 -50 8 -31 23 75 22 117 -2 93z"/>
<path d="M56 9983 c-23 -77 -56 -251 -55 -290 1 -41 7 -26 38 102 21 83 40
162 44 178 6 20 4 27 -7 27 -8 0 -17 -8 -20 -17z"/>
<path d="M101 9923 c-55 -208 -101 -417 -100 -460 l1 -48 10 40 c6 22 41 154
78 293 58 219 64 252 49 252 -13 0 -22 -19 -38 -77z"/>
<path d="M152 9853 c-105 -377 -153 -573 -150 -619 3 -42 7 -31 47 117 24 90
75 269 112 398 38 129 69 238 69 243 0 4 -8 8 -18 8 -15 0 -26 -27 -60 -147z"/>
<path d="M231 9843 c-143 -454 -231 -775 -230 -838 1 -61 -7 -81 98 270 44
149 114 372 154 498 73 223 74 227 51 227 -21 0 -27 -13 -73 -157z"/>
<path d="M360 9938 c-86 -248 -220 -651 -281 -848 -54 -174 -74 -253 -76 -305
-3 -69 -3 -68 61 135 81 255 194 583 340 983 l36 97 -29 0 c-27 0 -31 -5 -51
-62z"/>
<path d="M476 9928 c-114 -289 -294 -781 -377 -1029 -79 -236 -99 -307 -98
-350 l1 -54 42 125 c97 283 207 576 358 950 88 217 162 403 165 413 4 14 -1
17 -28 17 -33 0 -35 -2 -63 -72z"/>
<path d="M487 9613 c-213 -498 -315 -754 -433 -1091 -42 -118 -54 -167 -54
-210 l1 -57 58 160 c93 255 223 573 374 910 67 151 298 658 303 667 3 4 -15 8
-39 8 l-44 0 -166 -387z"/>
<path d="M772 9873 c-33 -71 -120 -252 -192 -403 -253 -528 -390 -837 -514
-1159 -54 -140 -66 -182 -66 -229 l0 -57 79 195 c114 285 218 505 552 1172
164 329 299 600 299 603 0 3 -22 5 -49 5 l-48 0 -61 -127z"/>
<path d="M993 9898 c-78 -154 -215 -416 -292 -558 -313 -575 -502 -954 -637
-1278 -54 -129 -64 -163 -64 -210 l1 -57 51 120 c63 145 245 515 330 668 33
62 71 130 83 152 12 22 110 196 217 386 218 385 362 648 432 787 l46 92 -58 0
-57 0 -52 -102z"/>
<path d="M1200 9833 c-147 -288 -322 -593 -637 -1108 -217 -356 -391 -673
-511 -932 -44 -95 -52 -122 -52 -170 l0 -58 58 120 c123 252 284 524 582 980
225 345 276 425 386 615 175 300 196 339 335 623 l48 97 -62 0 -62 0 -85 -167z"/>
<path d="M1506 9933 c-51 -120 -212 -433 -307 -598 -137 -240 -278 -457 -511
-788 -349 -497 -482 -705 -622 -969 -60 -113 -66 -130 -66 -184 l0 -59 61 110
c135 244 265 435 569 835 332 437 466 628 630 900 117 193 293 551 381 773
l19 47 -63 0 -63 0 -28 -67z"/>
<path d="M1741 9887 c-251 -646 -512 -1073 -1052 -1722 -371 -447 -518 -645
-647 -873 -36 -62 -42 -83 -42 -130 l0 -56 56 90 c139 221 258 367 663 808
406 445 649 782 851 1187 83 165 197 428 268 619 28 74 55 147 61 163 l11 27
-63 0 -62 -1 -44 -112z"/>
<path d="M2030 9978 c-5 -13 -54 -140 -109 -283 -131 -343 -166 -426 -271
-642 -100 -207 -171 -331 -278 -488 -176 -259 -318 -420 -743 -845 -326 -326
-438 -452 -562 -631 -64 -92 -67 -100 -67 -154 l0 -58 60 80 c140 188 257 306
630 631 738 645 925 941 1426 2259 30 79 54 145 54 148 0 3 -29 5 -65 5 -58 0
-66 -2 -75 -22z"/>
<path d="M2305 9964 c-8 -20 -15 -38 -15 -40 0 -2 -58 -149 -129 -326 -433
-1088 -600 -1395 -956 -1767 -106 -111 -274 -252 -530 -447 -347 -262 -488
-389 -618 -550 -54 -68 -57 -74 -57 -128 l0 -58 51 57 c147 160 248 242 539
433 457 301 502 334 678 507 341 332 488 600 977 1785 92 223 182 441 201 484
19 44 34 81 34 83 0 2 -36 3 -80 3 l-80 0 -15 -36z"/>
<path d="M2653 9973 c-6 -16 -57 -129 -113 -253 -56 -124 -165 -371 -242 -550
-323 -747 -515 -1147 -654 -1358 -92 -140 -132 -191 -238 -300 -189 -195 -354
-310 -731 -507 -301 -158 -449 -255 -589 -387 l-86 -80 0 -60 0 -60 57 52
c135 120 291 208 573 325 458 191 663 314 858 519 222 234 362 491 847 1551
196 429 405 861 499 1030 31 54 56 100 56 102 0 2 -51 3 -113 3 l-113 0 -11
-27z"/>
<path d="M3185 9948 c-130 -145 -297 -396 -475 -718 -78 -141 -268 -523 -440
-885 -395 -834 -581 -1144 -802 -1335 -216 -187 -340 -244 -933 -430 -166 -52
-299 -112 -406 -183 -130 -87 -131 -87 -127 -151 l3 -55 68 46 c135 90 306
143 701 218 466 89 717 228 940 525 124 164 300 475 581 1025 347 681 492 937
677 1197 229 322 396 438 629 438 163 0 351 -66 652 -230 292 -159 451 -226
616 -260 302 -61 532 25 826 309 129 125 282 287 393 416 l104 120 -332 3
-331 2 -62 -43 c-177 -126 -304 -169 -492 -169 -176 0 -370 54 -647 181 l-68
31 -514 0 -514 0 -47 -52z"/>
<path d="M6804 9976 c-52 -65 -573 -667 -680 -786 -167 -185 -442 -453 -541
-527 -205 -153 -381 -210 -572 -184 -193 27 -366 104 -751 337 -393 237 -537
297 -715 298 -209 1 -359 -101 -586 -395 -181 -235 -280 -398 -635 -1046 -420
-768 -561 -987 -745 -1148 -89 -78 -190 -136 -313 -180 -142 -51 -271 -74
-545 -96 -345 -27 -498 -57 -625 -121 -88 -44 -96 -54 -96 -114 0 -30 2 -54 5
-54 3 0 28 11 55 25 28 14 89 35 138 48 84 21 102 22 467 19 245 -2 412 1 470
9 175 22 339 85 455 174 177 136 323 345 736 1052 342 586 463 770 644 984
256 301 444 376 720 288 98 -32 236 -109 425 -237 406 -276 507 -341 615 -394
289 -141 480 -154 705 -44 250 121 500 357 1146 1081 465 522 811 861 1039
1018 23 16 4 17 -386 17 l-410 0 -20 -24z"/>
<path d="M8981 9942 c218 -149 393 -289 934 -748 481 -407 754 -610 1027 -763
278 -155 473 -222 688 -238 243 -17 480 74 816 313 272 193 500 400 1109 1006
l490 488 -444 0 -444 0 -91 -88 c-447 -430 -829 -703 -1126 -803 -91 -31 -102
-33 -255 -33 -144 0 -171 2 -264 27 -352 93 -769 344 -1300 781 l-141 116
-542 0 -542 0 85 -58z"/>
<path d="M11430 9977 c111 -30 388 -30 475 0 l60 21 -305 0 -305 0 75 -21z"/>
<path d="M14780 9833 c-102 -92 -498 -479 -880 -862 -840 -839 -1059 -1046
-1340 -1263 -230 -177 -468 -312 -645 -364 -77 -23 -109 -26 -220 -27 -234 0
-428 61 -734 231 -286 159 -613 407 -1116 848 -690 604 -1001 833 -1285 947
-131 52 -211 69 -330 68 -171 0 -322 -49 -515 -166 -320 -194 -550 -408 -1322
-1230 -317 -338 -596 -595 -776 -718 -276 -189 -525 -198 -837 -30 -136 73
-235 143 -635 453 -213 165 -300 224 -420 282 -130 63 -239 85 -340 70 -184
-28 -375 -185 -614 -502 -109 -145 -209 -296 -446 -675 -309 -494 -464 -714
-591 -840 -126 -124 -241 -187 -404 -220 -120 -24 -373 -16 -570 18 -235 41
-331 50 -478 45 -109 -4 -151 -10 -207 -29 l-70 -24 -3 -59 c-3 -50 -1 -58 13
-53 46 18 158 29 240 24 109 -7 225 -31 475 -97 282 -75 397 -93 565 -87 160
5 228 22 334 84 143 84 334 313 636 761 200 298 375 548 460 657 98 127 285
315 371 375 118 82 173 103 285 108 114 5 171 -9 299 -73 131 -66 242 -151
586 -451 304 -266 474 -391 637 -470 286 -137 520 -108 815 103 201 143 340
272 877 809 247 248 499 495 558 548 339 301 599 469 842 542 77 23 108 27
215 27 151 0 242 -24 415 -108 262 -127 513 -322 1224 -949 637 -563 933 -782
1275 -946 231 -111 379 -151 561 -151 183 0 325 42 527 156 356 199 669 474
1578 1385 700 702 844 842 1068 1038 l142 126 0 428 c0 401 -1 428 -17 428
-10 -1 -101 -76 -203 -167z"/>
<path d="M14860 8138 c-214 -190 -386 -357 -985 -958 -319 -320 -665 -662
-770 -760 -512 -480 -836 -713 -1140 -817 -109 -37 -112 -38 -265 -38 -216 0
-348 35 -599 161 -359 180 -648 403 -1386 1073 -732 664 -1069 900 -1380 966
-334 71 -713 -105 -1250 -579 -119 -105 -171 -154 -555 -523 -418 -401 -553
-518 -746 -654 -387 -271 -640 -270 -1024 1 -121 86 -240 189 -465 404 -303
289 -328 312 -395 370 -138 120 -281 209 -405 251 -31 11 -81 18 -130 18 -141
1 -259 -54 -427 -198 -157 -135 -262 -263 -703 -860 -346 -469 -520 -633 -716
-680 -171 -40 -397 -1 -734 127 -371 141 -509 180 -645 182 -47 1 -97 -2 -112
-7 -26 -7 -28 -11 -28 -62 l0 -55 68 0 c143 0 264 -42 637 -222 420 -202 565
-251 750 -251 96 -1 119 3 178 26 169 66 322 213 670 647 280 349 355 436 483
560 377 364 605 382 991 76 29 -22 178 -169 330 -326 471 -485 612 -616 780
-727 356 -234 618 -200 1068 137 144 109 268 216 584 504 368 336 427 388 571
507 358 297 622 452 867 510 74 18 109 20 218 16 114 -4 141 -9 220 -37 312
-111 581 -313 1315 -990 343 -317 429 -394 575 -520 484 -416 886 -650 1224
-714 390 -74 765 110 1421 698 167 150 426 404 1005 986 444 445 772 762 952
916 l92 79 0 438 c1 240 -2 437 -6 437 -5 -1 -64 -51 -133 -112z"/>
<path d="M14889 6399 c-205 -180 -444 -412 -1059 -1029 -730 -731 -1014 -995
-1300 -1206 -571 -422 -902 -464 -1440 -183 -331 173 -692 460 -1270 1008
-722 685 -996 910 -1275 1049 -189 95 -335 125 -500 104 -368 -46 -746 -294
-1605 -1052 -391 -345 -708 -555 -930 -615 -96 -26 -227 -25 -320 4 -266 82
-487 276 -1055 926 -421 482 -636 644 -855 645 -254 0 -461 -152 -935 -690
-219 -249 -387 -419 -485 -494 -127 -96 -267 -145 -374 -131 -195 25 -370 103
-758 337 -360 216 -564 308 -686 308 l-42 0 0 -54 0 -54 49 -11 c153 -33 302
-117 681 -388 354 -252 520 -350 688 -403 145 -47 246 -39 383 31 108 54 226
156 549 474 334 328 413 397 560 485 122 73 226 104 338 98 76 -3 99 -9 167
-41 192 -92 344 -236 685 -652 521 -635 685 -810 889 -948 149 -100 271 -142
411 -140 115 1 220 30 365 103 217 107 370 216 815 580 671 549 936 725 1245
825 201 65 354 69 520 14 306 -102 648 -364 1290 -989 650 -632 977 -912 1307
-1117 326 -203 608 -291 842 -264 322 37 674 255 1241 770 88 80 477 461 865
847 700 696 798 791 1003 974 l107 95 0 437 c0 241 -2 438 -4 438 -2 0 -50
-41 -107 -91z"/>
<path d="M0 5097 l0 -55 83 -40 c148 -71 286 -183 638 -513 525 -494 731 -639
929 -656 164 -14 336 71 667 330 342 267 479 352 649 402 213 63 406 -4 624
-217 153 -148 236 -255 610 -778 350 -489 512 -691 695 -869 218 -210 375
-291 570 -291 143 0 253 28 430 111 170 80 331 183 718 461 482 346 671 468
892 574 222 106 381 148 555 148 183 -1 311 -41 505 -159 256 -156 408 -290
1105 -980 267 -264 560 -547 650 -629 469 -423 821 -648 1152 -738 69 -18 109
-22 238 -22 154 -1 156 0 265 37 309 106 648 347 1165 828 85 79 439 428 785
774 562 563 886 875 1027 991 l47 39 0 438 c1 277 -3 437 -9 435 -38 -13 -446
-403 -1090 -1043 -885 -880 -1079 -1059 -1393 -1288 -218 -160 -421 -267 -587
-312 -163 -43 -357 -33 -546 29 -200 66 -510 250 -771 457 -220 176 -415 355
-843 774 -761 746 -1015 959 -1316 1102 -126 59 -224 83 -346 83 -259 0 -537
-111 -925 -371 -70 -47 -349 -255 -782 -583 -317 -240 -566 -386 -756 -442
-114 -34 -289 -39 -370 -10 -303 107 -529 335 -1170 1181 -178 235 -288 368
-395 479 -289 299 -508 363 -787 231 -150 -70 -249 -145 -565 -427 -252 -224
-386 -326 -508 -386 -85 -42 -102 -46 -181 -50 -104 -5 -164 10 -293 75 -153
77 -282 169 -591 423 -265 218 -367 298 -465 365 -89 61 -222 128 -277 140
l-33 7 0 -55z"/>
<path d="M0 4866 l0 -55 73 -48 c103 -68 344 -314 607 -618 461 -534 577 -656
753 -797 168 -134 268 -170 415 -149 141 20 269 75 588 253 153 85 266 135
371 164 82 22 242 30 311 14 165 -37 313 -147 499 -372 136 -164 239 -315 543
-798 514 -816 761 -1133 1020 -1310 126 -85 237 -120 386 -120 108 0 163 10
294 52 191 61 368 156 827 441 535 333 760 446 1038 524 134 37 346 43 469 14
164 -39 353 -145 566 -316 206 -165 428 -384 1069 -1050 202 -210 404 -409
581 -571 l135 -124 1144 0 1143 0 116 103 c201 177 311 284 977 946 712 708
871 861 1048 1012 l28 24 -3 440 -3 440 -155 -140 c-85 -77 -483 -466 -885
-865 -887 -882 -1086 -1065 -1425 -1318 -132 -98 -256 -175 -385 -237 -257
-125 -460 -144 -724 -69 -120 35 -344 148 -502 253 -324 217 -526 399 -1221
1097 -674 678 -857 846 -1083 998 -395 267 -701 277 -1190 42 -197 -96 -343
-184 -736 -446 -386 -258 -542 -353 -704 -431 -201 -96 -319 -129 -465 -129
-156 0 -274 43 -422 152 -241 178 -435 422 -963 1208 -270 403 -393 571 -522
716 -302 337 -545 395 -908 214 -66 -33 -196 -110 -290 -172 -340 -223 -456
-284 -599 -315 -231 -49 -427 80 -955 628 -358 370 -569 578 -656 644 -71 55
-182 125 -197 125 -4 0 -8 -24 -8 -54z"/>
<path d="M0 4633 c1 -57 2 -59 46 -93 130 -101 300 -314 829 -1045 415 -574
635 -824 797 -906 170 -86 327 -80 680 30 224 69 309 89 411 100 264 26 469
-64 676 -299 181 -204 300 -390 686 -1065 449 -785 640 -1087 823 -1302 l44
-53 836 0 835 0 196 104 c499 264 781 359 1076 359 185 1 345 -47 517 -154 95
-58 260 -184 339 -256 l57 -53 412 0 412 0 -71 79 c-129 143 -573 592 -710
718 -247 226 -469 374 -654 435 -100 32 -105 33 -277 32 -163 0 -183 -2 -290
-31 -244 -65 -476 -175 -994 -472 -456 -261 -623 -340 -832 -397 -138 -38
-314 -40 -424 -5 -137 43 -235 106 -379 245 -214 208 -420 506 -886 1281 -142
237 -309 507 -370 600 -236 358 -403 540 -580 627 -105 52 -155 63 -285 62
-170 0 -238 -21 -655 -198 -181 -77 -296 -106 -415 -107 -58 0 -115 6 -147 16
-158 47 -397 278 -755 730 -600 757 -698 873 -836 991 -113 96 -112 96 -112
27z"/>
<path d="M0 4407 c0 -56 2 -61 46 -107 131 -138 308 -395 644 -935 330 -530
390 -625 511 -808 244 -366 403 -551 548 -637 156 -92 279 -108 643 -87 355
22 474 8 639 -73 319 -156 548 -489 1142 -1657 l52 -103 163 0 c89 0 162 2
162 5 0 3 -33 63 -74 133 -77 134 -133 235 -447 812 -209 385 -335 602 -438
750 -283 411 -482 557 -786 577 -101 6 -200 -5 -425 -47 -361 -68 -489 -63
-662 27 -190 99 -382 334 -868 1063 -453 679 -619 907 -767 1060 l-82 85 -1
-58z"/>
<path d="M0 4178 c0 -50 4 -59 71 -152 171 -238 354 -552 776 -1336 624 -1156
811 -1414 1122 -1545 93 -39 203 -66 411 -100 259 -43 385 -78 515 -143 250
-125 458 -361 698 -793 l60 -109 138 0 c77 0 139 2 139 5 0 21 -226 446 -333
625 -306 515 -533 714 -881 776 -44 7 -187 21 -318 29 -311 20 -413 39 -545
105 -253 125 -418 350 -1033 1410 -315 542 -437 746 -558 930 -89 136 -234
334 -253 346 -5 3 -9 -19 -9 -48z"/>
<path d="M0 3945 c0 -45 5 -65 23 -89 27 -36 163 -262 239 -399 73 -131 299
-586 483 -972 367 -771 686 -1394 830 -1620 63 -99 158 -216 233 -287 136
-128 274 -207 567 -323 206 -81 346 -148 441 -209 l72 -46 227 2 227 3 -63 84
c-171 226 -375 381 -624 474 -38 14 -163 53 -276 86 -384 112 -482 162 -655
336 -170 171 -416 584 -777 1300 -298 593 -580 1127 -725 1375 -76 130 -191
310 -213 335 -5 5 -9 -16 -9 -50z"/>
<path d="M0 3719 c0 -48 6 -67 45 -135 70 -122 254 -489 345 -689 88 -192 205
-460 515 -1175 427 -985 620 -1388 778 -1627 l61 -93 185 0 185 0 -84 57 c-47
32 -130 103 -185 158 -111 111 -196 225 -298 402 -86 150 -363 708 -500 1008
-58 127 -212 464 -342 750 -324 711 -528 1120 -673 1350 l-32 50 0 -56z"/>
<path d="M0 3491 c0 -47 9 -74 71 -200 165 -338 319 -702 641 -1515 362 -916
551 -1386 636 -1586 l79 -185 66 -3 67 -3 -36 78 c-196 419 -324 714 -574
1318 -404 977 -472 1141 -574 1372 -111 254 -265 576 -334 703 l-42 75 0 -54z"/>
<path d="M2 3250 c4 -55 18 -96 90 -260 186 -423 270 -644 896 -2360 116 -316
215 -587 221 -602 9 -25 15 -28 60 -28 l49 0 -60 153 c-79 199 -181 467 -498
1302 -305 803 -419 1092 -540 1375 -92 213 -208 471 -217 480 -3 3 -3 -24 -1
-60z"/>
<path d="M0 3029 c0 -43 11 -82 50 -178 146 -360 361 -961 658 -1841 53 -157
151 -447 218 -645 l121 -360 41 -3 41 -3 -28 83 c-157 458 -646 1838 -764
2158 -105 283 -320 826 -333 839 -2 2 -4 -20 -4 -50z"/>
<path d="M0 2799 c0 -37 11 -83 36 -149 199 -533 440 -1269 809 -2462 l58
-188 34 0 c18 0 33 3 33 6 0 27 -488 1520 -632 1934 -102 294 -325 900 -334
909 -2 2 -4 -20 -4 -50z"/>
<path d="M1 2570 c-1 -39 11 -88 39 -170 141 -402 554 -1749 712 -2317 23 -82
23 -83 55 -83 30 0 32 1 23 28 -5 15 -82 268 -170 562 -245 812 -490 1572
-624 1940 l-35 95 0 -55z"/>
<path d="M1 2342 c-1 -41 19 -119 84 -325 146 -469 373 -1253 530 -1827 53
-196 48 -185 78 -188 15 -2 27 -1 27 1 0 5 -225 792 -285 997 -107 368 -285
944 -379 1230 -53 160 -54 163 -55 112z"/>
<path d="M1 2113 c-1 -36 18 -117 59 -260 133 -457 291 -1031 458 -1663 43
-163 52 -185 71 -188 12 -2 21 2 21 9 0 24 -250 938 -386 1406 -62 215 -210
716 -219 738 -2 6 -4 -14 -4 -42z"/>
<path d="M3 1870 c2 -41 24 -142 61 -275 83 -302 232 -871 321 -1225 95 -379
92 -370 116 -370 10 0 19 2 19 4 0 32 -400 1526 -496 1851 l-23 80 2 -65z"/>
<path d="M1 1654 c-1 -33 24 -151 70 -330 65 -255 294 -1184 316 -1279 6 -30
14 -41 31 -43 15 -2 20 1 17 10 -2 7 -56 222 -120 478 -122 490 -209 829 -274
1070 -36 133 -40 141 -40 94z"/>
<path d="M1 1424 c-1 -31 21 -143 53 -276 58 -236 236 -993 257 -1090 10 -47
16 -58 32 -58 15 0 18 5 13 23 -3 12 -29 119 -57 237 -63 270 -288 1192 -293
1205 -3 6 -5 -13 -5 -41z"/>
<path d="M1 1196 c-1 -29 34 -203 84 -425 47 -207 105 -464 128 -571 35 -155
47 -196 61 -198 13 -3 16 2 11 20 -119 517 -270 1170 -275 1193 -7 26 -8 24
-9 -19z"/>
<path d="M14955 1163 c-207 -188 -296 -272 -536 -504 -276 -268 -276 -268
-313 -262 -52 8 -76 -16 -76 -77 0 -38 -5 -51 -29 -74 -20 -20 -37 -27 -57
-24 l-28 3 31 35 c45 52 55 75 44 103 -21 56 -108 49 -126 -10 -5 -18 -2 -23
13 -23 12 0 22 9 25 21 8 29 51 22 55 -8 2 -15 -11 -38 -42 -71 -57 -61 -60
-82 -10 -82 l36 0 -88 -92 -88 -93 443 -3 443 -2 104 98 c57 55 135 126 173
158 l70 59 0 443 c1 243 0 442 -1 442 -2 0 -21 -17 -43 -37z m-845 -801 c0 -5
-11 -19 -25 -32 -20 -19 -25 -20 -25 -8 0 30 12 48 31 48 10 0 19 -4 19 -8z"/>
<path d="M1 965 c-1 -28 30 -192 68 -370 39 -176 82 -381 98 -455 21 -101 32
-136 44 -138 18 -3 22 -23 -131 663 -57 257 -78 337 -79 300z"/>
<path d="M1 728 c-1 -26 6 -80 15 -120 26 -125 124 -600 124 -604 0 -2 7 -4
16 -4 10 0 14 6 10 18 -3 9 -26 116 -51 237 -52 250 -68 327 -94 440 -18 77
-19 78 -20 33z"/>
<path d="M0 499 c0 -46 83 -486 94 -496 20 -21 13 35 -34 269 -28 145 -54 265
-56 267 -2 2 -4 -16 -4 -40z"/>
<path d="M13277 393 c-4 -3 -7 -17 -7 -30 0 -16 -6 -23 -20 -23 -11 0 -20 -7
-20 -15 0 -8 7 -15 15 -15 8 0 15 -7 15 -15 0 -8 -9 -15 -20 -15 -11 0 -20 -7
-20 -15 0 -8 6 -15 13 -15 9 0 12 -10 9 -30 -3 -22 0 -30 11 -30 10 0 17 11
19 27 2 14 9 29 17 31 11 4 13 -2 8 -27 -5 -24 -3 -31 9 -31 8 0 17 13 21 30
4 21 11 30 24 30 11 0 19 7 19 15 0 8 -7 15 -15 15 -8 0 -15 7 -15 15 0 8 9
15 20 15 11 0 20 7 20 15 0 8 -7 15 -15 15 -11 0 -13 8 -8 30 4 23 2 30 -9 30
-9 0 -18 -13 -21 -30 -4 -16 -12 -30 -18 -30 -7 0 -10 12 -7 30 4 28 -9 40
-25 23z m37 -98 c-4 -8 -12 -15 -20 -15 -8 0 -11 6 -8 15 4 8 12 15 20 15 8 0
11 -6 8 -15z"/>
<path d="M13423 384 c-40 -17 -46 -48 -8 -38 l25 6 0 -81 c0 -74 2 -81 20 -81
19 0 20 7 20 105 0 114 0 114 -57 89z"/>
<path d="M13568 388 c-9 -7 -19 -23 -23 -35 -5 -18 -2 -23 13 -23 12 0 22 9
25 21 8 29 51 22 55 -8 2 -15 -11 -38 -42 -71 -66 -70 -63 -84 21 -80 42 2 68
8 71 16 2 8 -10 12 -42 12 -25 0 -46 4 -46 8 0 5 12 19 26 33 39 37 56 74 45
102 -14 37 -70 50 -103 25z"/>
<path d="M13720 380 c-11 -11 -20 -27 -20 -35 0 -23 37 -18 43 6 8 29 51 22
55 -8 2 -15 -11 -38 -42 -71 -66 -70 -62 -82 24 -82 56 0 70 3 70 15 0 11 -12
15 -45 15 -52 0 -55 7 -19 41 39 37 56 74 45 102 -16 41 -77 51 -111 17z"/>
<path d="M1 276 c-1 -62 39 -276 52 -276 11 0 7 35 -27 205 -20 99 -24 112
-25 71z"/>
<path d="M0 47 c0 -26 5 -47 10 -47 6 0 8 16 4 43 -9 58 -14 59 -14 4z"/>
</g>
</svg>
