<svg id="Layer_1" data-name="Layer 1" xmlns="http://www.w3.org/2000/svg" xmlns:xlink="http://www.w3.org/1999/xlink" viewBox="0 0 1080 1080"><defs><clipPath id="clip-path"><rect x="867.41" width="327.41" height="360" style="fill:none"/></clipPath><linearGradient id="linear-gradient" x1="5221.45" y1="-1433.57" x2="5223" y2="-1433.57" gradientTransform="matrix(202.91, 0, 0, -202.91, -1058448.56, -290525.53)" gradientUnits="userSpaceOnUse"><stop offset="0" stop-color="#bcbcbc"/><stop offset="1" stop-color="#b1b1b1"/></linearGradient><linearGradient id="linear-gradient-2" x1="5222.63" y1="-1432.84" x2="5224.18" y2="-1432.84" gradientTransform="matrix(80.36, 0, 0, -80.36, -418611.35, -114839.16)" xlink:href="#linear-gradient"/><linearGradient id="linear-gradient-3" x1="5220.87" y1="-1433.57" x2="5222.42" y2="-1433.57" gradientTransform="matrix(202.91, 0, 0, -202.91, -1058659.56, -290525.53)" xlink:href="#linear-gradient"/><linearGradient id="linear-gradient-4" x1="5222.88" y1="-1432.18" x2="5224.43" y2="-1432.18" gradientTransform="matrix(36.23, 0, 0, -36.23, -188338.24, -51519.59)" xlink:href="#linear-gradient"/><linearGradient id="linear-gradient-5" x1="5222.06" y1="-1432.57" x2="5223.61" y2="-1432.57" gradientTransform="matrix(59.3, 0, 0, -59.3, -308811.55, -84636.29)" xlink:href="#linear-gradient"/><linearGradient id="linear-gradient-6" x1="5221.73" y1="-1432.84" x2="5223.28" y2="-1432.84" gradientTransform="matrix(80.36, 0, 0, -80.36, -418741.93, -114839.16)" xlink:href="#linear-gradient"/><linearGradient id="linear-gradient-7" x1="5222.38" y1="-1432.18" x2="5223.93" y2="-1432.18" gradientTransform="matrix(36.23, 0, 0, -36.23, -188370.8, -51519.59)" xlink:href="#linear-gradient"/><linearGradient id="linear-gradient-8" x1="5221.54" y1="-1432.57" x2="5223.09" y2="-1432.57" gradientTransform="matrix(59.3, 0, 0, -59.3, -308867.81, -84636.29)" xlink:href="#linear-gradient"/><linearGradient id="linear-gradient-9" x1="5221.16" y1="-1433.25" x2="5222.71" y2="-1433.25" gradientTransform="matrix(202.91, 0, 0, -202.91, -1058554.06, -290641.53)" xlink:href="#linear-gradient"/><linearGradient id="linear-gradient-10" x1="5224.49" y1="-1430.41" x2="5226.04" y2="-1430.41" gradientTransform="matrix(36.23, 0, 0, -36.23, -188232.74, -51635.59)" xlink:href="#linear-gradient"/><linearGradient id="linear-gradient-11" x1="5223.04" y1="-1431.49" x2="5224.59" y2="-1431.49" gradientTransform="matrix(59.3, 0, 0, -59.3, -308706.05, -84752.29)" xlink:href="#linear-gradient"/><linearGradient id="linear-gradient-12" x1="5222.46" y1="-1432.04" x2="5224.01" y2="-1432.04" gradientTransform="matrix(80.36, 0, 0, -80.36, -418636.43, -114955.16)" xlink:href="#linear-gradient"/><linearGradient id="linear-gradient-13" x1="5223.99" y1="-1430.41" x2="5225.54" y2="-1430.41" gradientTransform="matrix(36.23, 0, 0, -36.23, -188265.3, -51635.59)" xlink:href="#linear-gradient"/><linearGradient id="linear-gradient-14" x1="5222.52" y1="-1431.49" x2="5224.07" y2="-1431.49" gradientTransform="matrix(59.3, 0, 0, -59.3, -308762.31, -84752.29)" xlink:href="#linear-gradient"/><linearGradient id="linear-gradient-15" x1="5221.9" y1="-1432.04" x2="5223.46" y2="-1432.04" gradientTransform="matrix(80.36, 0, 0, -80.36, -418716.85, -114955.16)" xlink:href="#linear-gradient"/><linearGradient id="linear-gradient-16" x1="5221.45" y1="-1432.94" x2="5223" y2="-1432.94" gradientTransform="matrix(202.91, 0, 0, -202.91, -1058448.56, -290757.53)" xlink:href="#linear-gradient"/><linearGradient id="linear-gradient-17" x1="5222.63" y1="-1431.25" x2="5224.18" y2="-1431.25" gradientTransform="matrix(80.36, 0, 0, -80.36, -418611.35, -115071.16)" xlink:href="#linear-gradient"/><linearGradient id="linear-gradient-18" x1="5220.87" y1="-1432.94" x2="5222.42" y2="-1432.94" gradientTransform="matrix(202.91, 0, 0, -202.91, -1058659.56, -290757.53)" xlink:href="#linear-gradient"/><linearGradient id="linear-gradient-19" x1="5222.88" y1="-1428.64" x2="5224.43" y2="-1428.64" gradientTransform="matrix(36.23, 0, 0, -36.23, -188338.24, -51751.59)" xlink:href="#linear-gradient"/><linearGradient id="linear-gradient-20" x1="5222.06" y1="-1430.41" x2="5223.61" y2="-1430.41" gradientTransform="matrix(59.3, 0, 0, -59.3, -308811.55, -84868.29)" xlink:href="#linear-gradient"/><linearGradient id="linear-gradient-21" x1="5221.73" y1="-1431.25" x2="5223.28" y2="-1431.25" gradientTransform="matrix(80.36, 0, 0, -80.36, -418741.93, -115071.16)" xlink:href="#linear-gradient"/><linearGradient id="linear-gradient-22" x1="5222.38" y1="-1428.64" x2="5223.93" y2="-1428.64" gradientTransform="matrix(36.23, 0, 0, -36.23, -188370.8, -51751.59)" xlink:href="#linear-gradient"/><linearGradient id="linear-gradient-23" x1="5221.54" y1="-1430.41" x2="5223.09" y2="-1430.41" gradientTransform="matrix(59.3, 0, 0, -59.3, -308867.81, -84868.29)" xlink:href="#linear-gradient"/><clipPath id="clip-path-2"><rect x="867.41" y="360" width="327.41" height="360" style="fill:none"/></clipPath><linearGradient id="linear-gradient-24" x1="5221.45" y1="-1434.2" x2="5223" y2="-1434.2" gradientTransform="matrix(202.91, 0, 0, -202.91, -1058448.56, -290293.53)" xlink:href="#linear-gradient"/><linearGradient id="linear-gradient-25" x1="5222.63" y1="-1434.43" x2="5224.18" y2="-1434.43" gradientTransform="matrix(80.36, 0, 0, -80.36, -418611.35, -114607.16)" xlink:href="#linear-gradient"/><linearGradient id="linear-gradient-26" x1="5220.87" y1="-1434.2" x2="5222.42" y2="-1434.2" gradientTransform="matrix(202.91, 0, 0, -202.91, -1058659.56, -290293.53)" xlink:href="#linear-gradient"/><linearGradient id="linear-gradient-27" x1="5222.88" y1="-1435.71" x2="5224.43" y2="-1435.71" gradientTransform="matrix(36.23, 0, 0, -36.23, -188338.24, -51287.59)" xlink:href="#linear-gradient"/><linearGradient id="linear-gradient-28" x1="5222.06" y1="-1434.73" x2="5223.61" y2="-1434.73" gradientTransform="matrix(59.3, 0, 0, -59.3, -308811.55, -84404.29)" xlink:href="#linear-gradient"/><linearGradient id="linear-gradient-29" x1="5221.73" y1="-1434.43" x2="5223.28" y2="-1434.43" gradientTransform="matrix(80.36, 0, 0, -80.36, -418741.93, -114607.16)" xlink:href="#linear-gradient"/><linearGradient id="linear-gradient-30" x1="5222.38" y1="-1435.71" x2="5223.93" y2="-1435.71" gradientTransform="matrix(36.23, 0, 0, -36.23, -188370.8, -51287.59)" xlink:href="#linear-gradient"/><linearGradient id="linear-gradient-31" x1="5221.54" y1="-1434.73" x2="5223.09" y2="-1434.73" gradientTransform="matrix(59.3, 0, 0, -59.3, -308867.81, -84404.29)" xlink:href="#linear-gradient"/><linearGradient id="linear-gradient-32" x1="5221.16" y1="-1433.88" x2="5222.71" y2="-1433.88" gradientTransform="matrix(202.91, 0, 0, -202.91, -1058554.06, -290409.53)" xlink:href="#linear-gradient"/><linearGradient id="linear-gradient-33" x1="5224.49" y1="-1433.94" x2="5226.04" y2="-1433.94" gradientTransform="matrix(36.23, 0, 0, -36.23, -188232.74, -51403.59)" xlink:href="#linear-gradient"/><linearGradient id="linear-gradient-34" x1="5223.04" y1="-1433.65" x2="5224.59" y2="-1433.65" gradientTransform="matrix(59.3, 0, 0, -59.3, -308706.05, -84520.29)" xlink:href="#linear-gradient"/><linearGradient id="linear-gradient-35" x1="5222.46" y1="-1433.64" x2="5224.01" y2="-1433.64" gradientTransform="matrix(80.36, 0, 0, -80.36, -418636.43, -114723.16)" xlink:href="#linear-gradient"/><linearGradient id="linear-gradient-36" x1="5223.99" y1="-1433.94" x2="5225.54" y2="-1433.94" gradientTransform="matrix(36.23, 0, 0, -36.23, -188265.3, -51403.59)" xlink:href="#linear-gradient"/><linearGradient id="linear-gradient-37" x1="5222.52" y1="-1433.65" x2="5224.07" y2="-1433.65" gradientTransform="matrix(59.3, 0, 0, -59.3, -308762.31, -84520.29)" xlink:href="#linear-gradient"/><linearGradient id="linear-gradient-38" x1="5221.9" y1="-1433.64" x2="5223.46" y2="-1433.64" gradientTransform="matrix(80.36, 0, 0, -80.36, -418716.85, -114723.16)" xlink:href="#linear-gradient"/><clipPath id="clip-path-3"><rect x="867.41" y="720" width="327.41" height="360" style="fill:none"/></clipPath><linearGradient id="linear-gradient-47" x1="5221.45" y1="-1434.83" x2="5223" y2="-1434.83" gradientTransform="matrix(202.91, 0, 0, -202.91, -1058448.56, -290061.53)" xlink:href="#linear-gradient"/><linearGradient id="linear-gradient-48" x1="5222.63" y1="-1436.03" x2="5224.18" y2="-1436.03" gradientTransform="matrix(80.36, 0, 0, -80.36, -418611.35, -114375.16)" xlink:href="#linear-gradient"/><linearGradient id="linear-gradient-49" x1="5220.87" y1="-1434.83" x2="5222.42" y2="-1434.83" gradientTransform="matrix(202.91, 0, 0, -202.91, -1058659.56, -290061.53)" xlink:href="#linear-gradient"/><linearGradient id="linear-gradient-50" x1="5222.88" y1="-1439.24" x2="5224.43" y2="-1439.24" gradientTransform="matrix(36.23, 0, 0, -36.23, -188338.24, -51055.59)" xlink:href="#linear-gradient"/><linearGradient id="linear-gradient-51" x1="5222.06" y1="-1436.89" x2="5223.61" y2="-1436.89" gradientTransform="matrix(59.3, 0, 0, -59.3, -308811.55, -84172.29)" xlink:href="#linear-gradient"/><linearGradient id="linear-gradient-52" x1="5221.73" y1="-1436.03" x2="5223.28" y2="-1436.03" gradientTransform="matrix(80.36, 0, 0, -80.36, -418741.93, -114375.16)" xlink:href="#linear-gradient"/><linearGradient id="linear-gradient-53" x1="5222.38" y1="-1439.24" x2="5223.93" y2="-1439.24" gradientTransform="matrix(36.23, 0, 0, -36.23, -188370.8, -51055.59)" xlink:href="#linear-gradient"/><linearGradient id="linear-gradient-54" x1="5221.54" y1="-1436.89" x2="5223.09" y2="-1436.89" gradientTransform="matrix(59.3, 0, 0, -59.3, -308867.81, -84172.29)" xlink:href="#linear-gradient"/><linearGradient id="linear-gradient-55" x1="5221.16" y1="-1434.51" x2="5222.71" y2="-1434.51" gradientTransform="matrix(202.91, 0, 0, -202.91, -1058554.06, -290177.53)" xlink:href="#linear-gradient"/><linearGradient id="linear-gradient-56" x1="5224.49" y1="-1437.48" x2="5226.04" y2="-1437.48" gradientTransform="matrix(36.23, 0, 0, -36.23, -188232.74, -51171.59)" xlink:href="#linear-gradient"/><linearGradient id="linear-gradient-57" x1="5223.04" y1="-1435.81" x2="5224.59" y2="-1435.81" gradientTransform="matrix(59.3, 0, 0, -59.3, -308706.05, -84288.29)" xlink:href="#linear-gradient"/><linearGradient id="linear-gradient-58" x1="5222.46" y1="-1435.23" x2="5224.01" y2="-1435.23" gradientTransform="matrix(80.36, 0, 0, -80.36, -418636.43, -114491.16)" xlink:href="#linear-gradient"/><linearGradient id="linear-gradient-59" x1="5223.99" y1="-1437.48" x2="5225.54" y2="-1437.48" gradientTransform="matrix(36.23, 0, 0, -36.23, -188265.3, -51171.59)" xlink:href="#linear-gradient"/><linearGradient id="linear-gradient-60" x1="5222.52" y1="-1435.81" x2="5224.07" y2="-1435.81" gradientTransform="matrix(59.3, 0, 0, -59.3, -308762.31, -84288.29)" xlink:href="#linear-gradient"/><linearGradient id="linear-gradient-61" x1="5221.9" y1="-1435.23" x2="5223.46" y2="-1435.23" gradientTransform="matrix(80.36, 0, 0, -80.36, -418716.85, -114491.16)" xlink:href="#linear-gradient"/><clipPath id="clip-path-4"><rect x="540" width="327.41" height="360" style="fill:none"/></clipPath><linearGradient id="linear-gradient-76" x1="5221.18" y1="-1432.84" x2="5222.73" y2="-1432.84" gradientTransform="matrix(80.36, 0, 0, -80.36, -418822.35, -114839.16)" xlink:href="#linear-gradient"/><linearGradient id="linear-gradient-77" x1="5220.3" y1="-1433.57" x2="5221.85" y2="-1433.57" gradientTransform="matrix(202.91, 0, 0, -202.91, -1058870.56, -290525.53)" xlink:href="#linear-gradient"/><linearGradient id="linear-gradient-78" x1="5219.67" y1="-1432.18" x2="5221.22" y2="-1432.18" gradientTransform="matrix(36.23, 0, 0, -36.23, -188549.24, -51519.59)" xlink:href="#linear-gradient"/><linearGradient id="linear-gradient-79" x1="5220.1" y1="-1432.57" x2="5221.65" y2="-1432.57" gradientTransform="matrix(59.3, 0, 0, -59.3, -309022.55, -84636.29)" xlink:href="#linear-gradient"/><linearGradient id="linear-gradient-80" x1="5220.28" y1="-1432.84" x2="5221.83" y2="-1432.84" gradientTransform="matrix(80.36, 0, 0, -80.36, -418952.93, -114839.16)" xlink:href="#linear-gradient"/><linearGradient id="linear-gradient-81" x1="5219.17" y1="-1432.18" x2="5220.72" y2="-1432.18" gradientTransform="matrix(36.23, 0, 0, -36.23, -188581.8, -51519.59)" xlink:href="#linear-gradient"/><linearGradient id="linear-gradient-82" x1="5219.57" y1="-1432.57" x2="5221.12" y2="-1432.57" gradientTransform="matrix(59.3, 0, 0, -59.3, -309078.81, -84636.29)" xlink:href="#linear-gradient"/><linearGradient id="linear-gradient-83" x1="5220.59" y1="-1433.25" x2="5222.14" y2="-1433.25" gradientTransform="matrix(202.91, 0, 0, -202.91, -1058765.06, -290641.53)" xlink:href="#linear-gradient"/><linearGradient id="linear-gradient-84" x1="5221.27" y1="-1430.41" x2="5222.82" y2="-1430.41" gradientTransform="matrix(36.23, 0, 0, -36.23, -188443.74, -51635.59)" xlink:href="#linear-gradient"/><linearGradient id="linear-gradient-85" x1="5221.08" y1="-1431.49" x2="5222.63" y2="-1431.49" gradientTransform="matrix(59.3, 0, 0, -59.3, -308917.05, -84752.29)" xlink:href="#linear-gradient"/><linearGradient id="linear-gradient-86" x1="5221.01" y1="-1432.04" x2="5222.56" y2="-1432.04" gradientTransform="matrix(80.36, 0, 0, -80.36, -418847.43, -114955.16)" xlink:href="#linear-gradient"/><linearGradient id="linear-gradient-87" x1="5220.78" y1="-1430.41" x2="5222.33" y2="-1430.41" gradientTransform="matrix(36.23, 0, 0, -36.23, -188476.3, -51635.59)" xlink:href="#linear-gradient"/><linearGradient id="linear-gradient-88" x1="5220.55" y1="-1431.49" x2="5222.11" y2="-1431.49" gradientTransform="matrix(59.3, 0, 0, -59.3, -308973.31, -84752.29)" xlink:href="#linear-gradient"/><linearGradient id="linear-gradient-89" x1="5220.45" y1="-1432.04" x2="5222.01" y2="-1432.04" gradientTransform="matrix(80.36, 0, 0, -80.36, -418927.85, -114955.16)" xlink:href="#linear-gradient"/><linearGradient id="linear-gradient-96" x1="5221.18" y1="-1431.25" x2="5222.73" y2="-1431.25" gradientTransform="matrix(80.36, 0, 0, -80.36, -418822.35, -115071.16)" xlink:href="#linear-gradient"/><linearGradient id="linear-gradient-97" x1="5220.3" y1="-1432.94" x2="5221.85" y2="-1432.94" gradientTransform="matrix(202.91, 0, 0, -202.91, -1058870.56, -290757.53)" xlink:href="#linear-gradient"/><linearGradient id="linear-gradient-98" x1="5219.67" y1="-1428.64" x2="5221.22" y2="-1428.64" gradientTransform="matrix(36.23, 0, 0, -36.23, -188549.24, -51751.59)" xlink:href="#linear-gradient"/><linearGradient id="linear-gradient-99" x1="5220.1" y1="-1430.41" x2="5221.65" y2="-1430.41" gradientTransform="matrix(59.3, 0, 0, -59.3, -309022.55, -84868.29)" xlink:href="#linear-gradient"/><linearGradient id="linear-gradient-100" x1="5220.28" y1="-1431.25" x2="5221.83" y2="-1431.25" gradientTransform="matrix(80.36, 0, 0, -80.36, -418952.93, -115071.16)" xlink:href="#linear-gradient"/><linearGradient id="linear-gradient-101" x1="5219.17" y1="-1428.64" x2="5220.72" y2="-1428.64" gradientTransform="matrix(36.23, 0, 0, -36.23, -188581.8, -51751.59)" xlink:href="#linear-gradient"/><linearGradient id="linear-gradient-102" x1="5219.57" y1="-1430.41" x2="5221.12" y2="-1430.41" gradientTransform="matrix(59.3, 0, 0, -59.3, -309078.81, -84868.29)" xlink:href="#linear-gradient"/><clipPath id="clip-path-5"><rect x="540" y="360" width="327.41" height="360" style="fill:none"/></clipPath><linearGradient id="linear-gradient-109" x1="5221.18" y1="-1434.43" x2="5222.73" y2="-1434.43" gradientTransform="matrix(80.36, 0, 0, -80.36, -418822.35, -114607.16)" xlink:href="#linear-gradient"/><linearGradient id="linear-gradient-110" x1="5220.3" y1="-1434.2" x2="5221.85" y2="-1434.2" gradientTransform="matrix(202.91, 0, 0, -202.91, -1058870.56, -290293.53)" xlink:href="#linear-gradient"/><linearGradient id="linear-gradient-111" x1="5219.67" y1="-1435.71" x2="5221.22" y2="-1435.71" gradientTransform="matrix(36.23, 0, 0, -36.23, -188549.24, -51287.59)" xlink:href="#linear-gradient"/><linearGradient id="linear-gradient-112" x1="5220.1" y1="-1434.73" x2="5221.65" y2="-1434.73" gradientTransform="matrix(59.3, 0, 0, -59.3, -309022.55, -84404.29)" xlink:href="#linear-gradient"/><linearGradient id="linear-gradient-113" x1="5220.28" y1="-1434.43" x2="5221.83" y2="-1434.43" gradientTransform="matrix(80.36, 0, 0, -80.36, -418952.93, -114607.16)" xlink:href="#linear-gradient"/><linearGradient id="linear-gradient-114" x1="5219.17" y1="-1435.71" x2="5220.72" y2="-1435.71" gradientTransform="matrix(36.23, 0, 0, -36.23, -188581.8, -51287.59)" xlink:href="#linear-gradient"/><linearGradient id="linear-gradient-115" x1="5219.57" y1="-1434.73" x2="5221.12" y2="-1434.73" gradientTransform="matrix(59.3, 0, 0, -59.3, -309078.81, -84404.29)" xlink:href="#linear-gradient"/><linearGradient id="linear-gradient-116" x1="5220.59" y1="-1433.88" x2="5222.14" y2="-1433.88" gradientTransform="matrix(202.91, 0, 0, -202.91, -1058765.06, -290409.53)" xlink:href="#linear-gradient"/><linearGradient id="linear-gradient-117" x1="5221.27" y1="-1433.94" x2="5222.82" y2="-1433.94" gradientTransform="matrix(36.23, 0, 0, -36.23, -188443.74, -51403.59)" xlink:href="#linear-gradient"/><linearGradient id="linear-gradient-118" x1="5221.08" y1="-1433.65" x2="5222.63" y2="-1433.65" gradientTransform="matrix(59.3, 0, 0, -59.3, -308917.05, -84520.29)" xlink:href="#linear-gradient"/><linearGradient id="linear-gradient-119" x1="5221.01" y1="-1433.64" x2="5222.56" y2="-1433.64" gradientTransform="matrix(80.36, 0, 0, -80.36, -418847.43, -114723.16)" xlink:href="#linear-gradient"/><linearGradient id="linear-gradient-120" x1="5220.78" y1="-1433.94" x2="5222.33" y2="-1433.94" gradientTransform="matrix(36.23, 0, 0, -36.23, -188476.3, -51403.59)" xlink:href="#linear-gradient"/><linearGradient id="linear-gradient-121" x1="5220.55" y1="-1433.65" x2="5222.11" y2="-1433.65" gradientTransform="matrix(59.3, 0, 0, -59.3, -308973.31, -84520.29)" xlink:href="#linear-gradient"/><linearGradient id="linear-gradient-122" x1="5220.45" y1="-1433.64" x2="5222.01" y2="-1433.64" gradientTransform="matrix(80.36, 0, 0, -80.36, -418927.85, -114723.16)" xlink:href="#linear-gradient"/><clipPath id="clip-path-6"><rect x="540" y="720" width="327.41" height="360" style="fill:none"/></clipPath><linearGradient id="linear-gradient-142" x1="5221.18" y1="-1436.03" x2="5222.73" y2="-1436.03" gradientTransform="matrix(80.36, 0, 0, -80.36, -418822.35, -114375.16)" xlink:href="#linear-gradient"/><linearGradient id="linear-gradient-143" x1="5220.3" y1="-1434.83" x2="5221.85" y2="-1434.83" gradientTransform="matrix(202.91, 0, 0, -202.91, -1058870.56, -290061.53)" xlink:href="#linear-gradient"/><linearGradient id="linear-gradient-144" x1="5219.67" y1="-1439.24" x2="5221.22" y2="-1439.24" gradientTransform="matrix(36.23, 0, 0, -36.23, -188549.24, -51055.59)" xlink:href="#linear-gradient"/><linearGradient id="linear-gradient-145" x1="5220.1" y1="-1436.89" x2="5221.65" y2="-1436.89" gradientTransform="matrix(59.3, 0, 0, -59.3, -309022.55, -84172.29)" xlink:href="#linear-gradient"/><linearGradient id="linear-gradient-146" x1="5220.28" y1="-1436.03" x2="5221.83" y2="-1436.03" gradientTransform="matrix(80.36, 0, 0, -80.36, -418952.93, -114375.16)" xlink:href="#linear-gradient"/><linearGradient id="linear-gradient-147" x1="5219.17" y1="-1439.24" x2="5220.72" y2="-1439.24" gradientTransform="matrix(36.23, 0, 0, -36.23, -188581.8, -51055.59)" xlink:href="#linear-gradient"/><linearGradient id="linear-gradient-148" x1="5219.57" y1="-1436.89" x2="5221.12" y2="-1436.89" gradientTransform="matrix(59.3, 0, 0, -59.3, -309078.81, -84172.29)" xlink:href="#linear-gradient"/><linearGradient id="linear-gradient-149" x1="5220.59" y1="-1434.51" x2="5222.14" y2="-1434.51" gradientTransform="matrix(202.91, 0, 0, -202.91, -1058765.06, -290177.53)" xlink:href="#linear-gradient"/><linearGradient id="linear-gradient-150" x1="5221.27" y1="-1437.48" x2="5222.82" y2="-1437.48" gradientTransform="matrix(36.23, 0, 0, -36.23, -188443.74, -51171.59)" xlink:href="#linear-gradient"/><linearGradient id="linear-gradient-151" x1="5221.08" y1="-1435.81" x2="5222.63" y2="-1435.81" gradientTransform="matrix(59.3, 0, 0, -59.3, -308917.05, -84288.29)" xlink:href="#linear-gradient"/><linearGradient id="linear-gradient-152" x1="5221.01" y1="-1435.23" x2="5222.56" y2="-1435.23" gradientTransform="matrix(80.36, 0, 0, -80.36, -418847.43, -114491.16)" xlink:href="#linear-gradient"/><linearGradient id="linear-gradient-153" x1="5220.78" y1="-1437.48" x2="5222.33" y2="-1437.48" gradientTransform="matrix(36.23, 0, 0, -36.23, -188476.3, -51171.59)" xlink:href="#linear-gradient"/><linearGradient id="linear-gradient-154" x1="5220.55" y1="-1435.81" x2="5222.11" y2="-1435.81" gradientTransform="matrix(59.3, 0, 0, -59.3, -308973.31, -84288.29)" xlink:href="#linear-gradient"/><linearGradient id="linear-gradient-155" x1="5220.45" y1="-1435.23" x2="5222.01" y2="-1435.23" gradientTransform="matrix(80.36, 0, 0, -80.36, -418927.85, -114491.16)" xlink:href="#linear-gradient"/><clipPath id="clip-path-7"><rect x="212.59" width="327.41" height="360" style="fill:none"/></clipPath><linearGradient id="linear-gradient-175" x1="5219.73" y1="-1432.84" x2="5221.28" y2="-1432.84" gradientTransform="matrix(80.36, 0, 0, -80.36, -419033.35, -114839.16)" xlink:href="#linear-gradient"/><linearGradient id="linear-gradient-176" x1="5219.73" y1="-1433.57" x2="5221.28" y2="-1433.57" gradientTransform="matrix(202.91, 0, 0, -202.91, -1059081.56, -290525.53)" xlink:href="#linear-gradient"/><linearGradient id="linear-gradient-177" x1="5216.45" y1="-1432.18" x2="5218" y2="-1432.18" gradientTransform="matrix(36.23, 0, 0, -36.23, -188760.24, -51519.59)" xlink:href="#linear-gradient"/><linearGradient id="linear-gradient-178" x1="5218.13" y1="-1432.57" x2="5219.69" y2="-1432.57" gradientTransform="matrix(59.3, 0, 0, -59.3, -309233.55, -84636.29)" xlink:href="#linear-gradient"/><linearGradient id="linear-gradient-179" x1="5218.83" y1="-1432.84" x2="5220.39" y2="-1432.84" gradientTransform="matrix(80.36, 0, 0, -80.36, -419163.93, -114839.16)" xlink:href="#linear-gradient"/><linearGradient id="linear-gradient-180" x1="5215.96" y1="-1432.18" x2="5217.51" y2="-1432.18" gradientTransform="matrix(36.23, 0, 0, -36.23, -188792.8, -51519.59)" xlink:href="#linear-gradient"/><linearGradient id="linear-gradient-181" x1="5217.61" y1="-1432.57" x2="5219.16" y2="-1432.57" gradientTransform="matrix(59.3, 0, 0, -59.3, -309289.81, -84636.29)" xlink:href="#linear-gradient"/><linearGradient id="linear-gradient-182" x1="5220.01" y1="-1433.25" x2="5221.56" y2="-1433.25" gradientTransform="matrix(202.91, 0, 0, -202.91, -1058976.06, -290641.53)" xlink:href="#linear-gradient"/><linearGradient id="linear-gradient-183" x1="5218.06" y1="-1430.41" x2="5219.61" y2="-1430.41" gradientTransform="matrix(36.23, 0, 0, -36.23, -188654.74, -51635.59)" xlink:href="#linear-gradient"/><linearGradient id="linear-gradient-184" x1="5219.11" y1="-1431.49" x2="5220.67" y2="-1431.49" gradientTransform="matrix(59.3, 0, 0, -59.3, -309128.05, -84752.29)" xlink:href="#linear-gradient"/><linearGradient id="linear-gradient-185" x1="5219.56" y1="-1432.04" x2="5221.11" y2="-1432.04" gradientTransform="matrix(80.36, 0, 0, -80.36, -419058.43, -114955.16)" xlink:href="#linear-gradient"/><linearGradient id="linear-gradient-186" x1="5217.56" y1="-1430.41" x2="5219.11" y2="-1430.41" gradientTransform="matrix(36.23, 0, 0, -36.23, -188687.3, -51635.59)" xlink:href="#linear-gradient"/><linearGradient id="linear-gradient-187" x1="5218.59" y1="-1431.49" x2="5220.14" y2="-1431.49" gradientTransform="matrix(59.3, 0, 0, -59.3, -309184.31, -84752.29)" xlink:href="#linear-gradient"/><linearGradient id="linear-gradient-188" x1="5219.01" y1="-1432.04" x2="5220.56" y2="-1432.04" gradientTransform="matrix(80.36, 0, 0, -80.36, -419138.85, -114955.16)" xlink:href="#linear-gradient"/><linearGradient id="linear-gradient-195" x1="5219.73" y1="-1431.25" x2="5221.28" y2="-1431.25" gradientTransform="matrix(80.36, 0, 0, -80.36, -419033.35, -115071.16)" xlink:href="#linear-gradient"/><linearGradient id="linear-gradient-196" x1="5219.73" y1="-1432.94" x2="5221.28" y2="-1432.94" gradientTransform="matrix(202.91, 0, 0, -202.91, -1059081.56, -290757.53)" xlink:href="#linear-gradient"/><linearGradient id="linear-gradient-197" x1="5216.45" y1="-1428.64" x2="5218" y2="-1428.64" gradientTransform="matrix(36.23, 0, 0, -36.23, -188760.24, -51751.59)" xlink:href="#linear-gradient"/><linearGradient id="linear-gradient-198" x1="5218.13" y1="-1430.41" x2="5219.69" y2="-1430.41" gradientTransform="matrix(59.3, 0, 0, -59.3, -309233.55, -84868.29)" xlink:href="#linear-gradient"/><linearGradient id="linear-gradient-199" x1="5218.83" y1="-1431.25" x2="5220.39" y2="-1431.25" gradientTransform="matrix(80.36, 0, 0, -80.36, -419163.93, -115071.16)" xlink:href="#linear-gradient"/><linearGradient id="linear-gradient-200" x1="5215.96" y1="-1428.64" x2="5217.51" y2="-1428.64" gradientTransform="matrix(36.23, 0, 0, -36.23, -188792.8, -51751.59)" xlink:href="#linear-gradient"/><linearGradient id="linear-gradient-201" x1="5217.61" y1="-1430.41" x2="5219.16" y2="-1430.41" gradientTransform="matrix(59.3, 0, 0, -59.3, -309289.81, -84868.29)" xlink:href="#linear-gradient"/><clipPath id="clip-path-8"><rect x="212.59" y="360" width="327.41" height="360" style="fill:none"/></clipPath><linearGradient id="linear-gradient-208" x1="5219.73" y1="-1434.43" x2="5221.28" y2="-1434.43" gradientTransform="matrix(80.36, 0, 0, -80.36, -419033.35, -114607.16)" xlink:href="#linear-gradient"/><linearGradient id="linear-gradient-209" x1="5219.73" y1="-1434.2" x2="5221.28" y2="-1434.2" gradientTransform="matrix(202.91, 0, 0, -202.91, -1059081.56, -290293.53)" xlink:href="#linear-gradient"/><linearGradient id="linear-gradient-210" x1="5216.45" y1="-1435.71" x2="5218" y2="-1435.71" gradientTransform="matrix(36.23, 0, 0, -36.23, -188760.24, -51287.59)" xlink:href="#linear-gradient"/><linearGradient id="linear-gradient-211" x1="5218.13" y1="-1434.73" x2="5219.69" y2="-1434.73" gradientTransform="matrix(59.3, 0, 0, -59.3, -309233.55, -84404.29)" xlink:href="#linear-gradient"/><linearGradient id="linear-gradient-212" x1="5218.83" y1="-1434.43" x2="5220.39" y2="-1434.43" gradientTransform="matrix(80.36, 0, 0, -80.36, -419163.93, -114607.16)" xlink:href="#linear-gradient"/><linearGradient id="linear-gradient-213" x1="5215.96" y1="-1435.71" x2="5217.51" y2="-1435.71" gradientTransform="matrix(36.23, 0, 0, -36.23, -188792.8, -51287.59)" xlink:href="#linear-gradient"/><linearGradient id="linear-gradient-214" x1="5217.61" y1="-1434.73" x2="5219.16" y2="-1434.73" gradientTransform="matrix(59.3, 0, 0, -59.3, -309289.81, -84404.29)" xlink:href="#linear-gradient"/><linearGradient id="linear-gradient-215" x1="5220.01" y1="-1433.88" x2="5221.56" y2="-1433.88" gradientTransform="matrix(202.91, 0, 0, -202.91, -1058976.06, -290409.53)" xlink:href="#linear-gradient"/><linearGradient id="linear-gradient-216" x1="5218.06" y1="-1433.94" x2="5219.61" y2="-1433.94" gradientTransform="matrix(36.23, 0, 0, -36.23, -188654.74, -51403.59)" xlink:href="#linear-gradient"/><linearGradient id="linear-gradient-217" x1="5219.11" y1="-1433.65" x2="5220.67" y2="-1433.65" gradientTransform="matrix(59.3, 0, 0, -59.3, -309128.05, -84520.29)" xlink:href="#linear-gradient"/><linearGradient id="linear-gradient-218" x1="5219.56" y1="-1433.64" x2="5221.11" y2="-1433.64" gradientTransform="matrix(80.36, 0, 0, -80.36, -419058.43, -114723.16)" xlink:href="#linear-gradient"/><linearGradient id="linear-gradient-219" x1="5217.56" y1="-1433.94" x2="5219.11" y2="-1433.94" gradientTransform="matrix(36.23, 0, 0, -36.23, -188687.3, -51403.59)" xlink:href="#linear-gradient"/><linearGradient id="linear-gradient-220" x1="5218.59" y1="-1433.65" x2="5220.14" y2="-1433.65" gradientTransform="matrix(59.3, 0, 0, -59.3, -309184.31, -84520.29)" xlink:href="#linear-gradient"/><linearGradient id="linear-gradient-221" x1="5219.01" y1="-1433.64" x2="5220.56" y2="-1433.64" gradientTransform="matrix(80.36, 0, 0, -80.36, -419138.85, -114723.16)" xlink:href="#linear-gradient"/><clipPath id="clip-path-9"><rect x="212.59" y="720" width="327.41" height="360" style="fill:none"/></clipPath><linearGradient id="linear-gradient-241" x1="5219.73" y1="-1436.03" x2="5221.28" y2="-1436.03" gradientTransform="matrix(80.36, 0, 0, -80.36, -419033.35, -114375.16)" xlink:href="#linear-gradient"/><linearGradient id="linear-gradient-242" x1="5219.73" y1="-1434.83" x2="5221.28" y2="-1434.83" gradientTransform="matrix(202.91, 0, 0, -202.91, -1059081.56, -290061.53)" xlink:href="#linear-gradient"/><linearGradient id="linear-gradient-243" x1="5216.45" y1="-1439.24" x2="5218" y2="-1439.24" gradientTransform="matrix(36.23, 0, 0, -36.23, -188760.24, -51055.59)" xlink:href="#linear-gradient"/><linearGradient id="linear-gradient-244" x1="5218.13" y1="-1436.89" x2="5219.69" y2="-1436.89" gradientTransform="matrix(59.3, 0, 0, -59.3, -309233.55, -84172.29)" xlink:href="#linear-gradient"/><linearGradient id="linear-gradient-245" x1="5218.83" y1="-1436.03" x2="5220.39" y2="-1436.03" gradientTransform="matrix(80.36, 0, 0, -80.36, -419163.93, -114375.16)" xlink:href="#linear-gradient"/><linearGradient id="linear-gradient-246" x1="5215.96" y1="-1439.24" x2="5217.51" y2="-1439.24" gradientTransform="matrix(36.23, 0, 0, -36.23, -188792.8, -51055.59)" xlink:href="#linear-gradient"/><linearGradient id="linear-gradient-247" x1="5217.61" y1="-1436.89" x2="5219.16" y2="-1436.89" gradientTransform="matrix(59.3, 0, 0, -59.3, -309289.81, -84172.29)" xlink:href="#linear-gradient"/><linearGradient id="linear-gradient-248" x1="5220.01" y1="-1434.51" x2="5221.56" y2="-1434.51" gradientTransform="matrix(202.91, 0, 0, -202.91, -1058976.06, -290177.53)" xlink:href="#linear-gradient"/><linearGradient id="linear-gradient-249" x1="5218.06" y1="-1437.48" x2="5219.61" y2="-1437.48" gradientTransform="matrix(36.23, 0, 0, -36.23, -188654.74, -51171.59)" xlink:href="#linear-gradient"/><linearGradient id="linear-gradient-250" x1="5219.11" y1="-1435.81" x2="5220.67" y2="-1435.81" gradientTransform="matrix(59.3, 0, 0, -59.3, -309128.05, -84288.29)" xlink:href="#linear-gradient"/><linearGradient id="linear-gradient-251" x1="5219.56" y1="-1435.23" x2="5221.11" y2="-1435.23" gradientTransform="matrix(80.36, 0, 0, -80.36, -419058.43, -114491.16)" xlink:href="#linear-gradient"/><linearGradient id="linear-gradient-252" x1="5217.56" y1="-1437.48" x2="5219.11" y2="-1437.48" gradientTransform="matrix(36.23, 0, 0, -36.23, -188687.3, -51171.59)" xlink:href="#linear-gradient"/><linearGradient id="linear-gradient-253" x1="5218.59" y1="-1435.81" x2="5220.14" y2="-1435.81" gradientTransform="matrix(59.3, 0, 0, -59.3, -309184.31, -84288.29)" xlink:href="#linear-gradient"/><linearGradient id="linear-gradient-254" x1="5219.01" y1="-1435.23" x2="5220.56" y2="-1435.23" gradientTransform="matrix(80.36, 0, 0, -80.36, -419138.85, -114491.16)" xlink:href="#linear-gradient"/><clipPath id="clip-path-10"><rect x="-114.83" width="327.41" height="360" style="fill:none"/></clipPath><linearGradient id="linear-gradient-274" x1="5218.28" y1="-1432.84" x2="5219.83" y2="-1432.84" gradientTransform="matrix(80.36, 0, 0, -80.36, -419244.35, -114839.16)" xlink:href="#linear-gradient"/><linearGradient id="linear-gradient-275" x1="5219.15" y1="-1433.57" x2="5220.7" y2="-1433.57" gradientTransform="matrix(202.91, 0, 0, -202.91, -1059292.56, -290525.53)" xlink:href="#linear-gradient"/><linearGradient id="linear-gradient-276" x1="5217.39" y1="-1432.84" x2="5218.94" y2="-1432.84" gradientTransform="matrix(80.36, 0, 0, -80.36, -419374.93, -114839.16)" xlink:href="#linear-gradient"/><linearGradient id="linear-gradient-277" x1="5219.44" y1="-1433.25" x2="5220.99" y2="-1433.25" gradientTransform="matrix(202.91, 0, 0, -202.91, -1059187.06, -290641.53)" xlink:href="#linear-gradient"/><linearGradient id="linear-gradient-278" x1="5214.84" y1="-1430.41" x2="5216.4" y2="-1430.41" gradientTransform="matrix(36.23, 0, 0, -36.23, -188865.74, -51635.59)" xlink:href="#linear-gradient"/><linearGradient id="linear-gradient-279" x1="5217.15" y1="-1431.49" x2="5218.7" y2="-1431.49" gradientTransform="matrix(59.3, 0, 0, -59.3, -309339.05, -84752.29)" xlink:href="#linear-gradient"/><linearGradient id="linear-gradient-280" x1="5218.11" y1="-1432.04" x2="5219.66" y2="-1432.04" gradientTransform="matrix(80.36, 0, 0, -80.36, -419269.43, -114955.16)" xlink:href="#linear-gradient"/><linearGradient id="linear-gradient-281" x1="5214.35" y1="-1430.41" x2="5215.9" y2="-1430.41" gradientTransform="matrix(36.23, 0, 0, -36.23, -188898.3, -51635.59)" xlink:href="#linear-gradient"/><linearGradient id="linear-gradient-282" x1="5216.63" y1="-1431.49" x2="5218.18" y2="-1431.49" gradientTransform="matrix(59.3, 0, 0, -59.3, -309395.31, -84752.29)" xlink:href="#linear-gradient"/><linearGradient id="linear-gradient-283" x1="5217.56" y1="-1432.04" x2="5219.11" y2="-1432.04" gradientTransform="matrix(80.36, 0, 0, -80.36, -419349.85, -114955.16)" xlink:href="#linear-gradient"/><linearGradient id="linear-gradient-290" x1="5218.28" y1="-1431.25" x2="5219.83" y2="-1431.25" gradientTransform="matrix(80.36, 0, 0, -80.36, -419244.35, -115071.16)" xlink:href="#linear-gradient"/><linearGradient id="linear-gradient-291" x1="5219.15" y1="-1432.94" x2="5220.7" y2="-1432.94" gradientTransform="matrix(202.91, 0, 0, -202.91, -1059292.56, -290757.53)" xlink:href="#linear-gradient"/><linearGradient id="linear-gradient-292" x1="5217.39" y1="-1431.25" x2="5218.94" y2="-1431.25" gradientTransform="matrix(80.36, 0, 0, -80.36, -419374.93, -115071.16)" xlink:href="#linear-gradient"/><clipPath id="clip-path-11"><rect x="-114.83" y="360" width="327.41" height="360" style="fill:none"/></clipPath><linearGradient id="linear-gradient-299" x1="5218.28" y1="-1434.43" x2="5219.83" y2="-1434.43" gradientTransform="matrix(80.36, 0, 0, -80.36, -419244.35, -114607.16)" xlink:href="#linear-gradient"/><linearGradient id="linear-gradient-300" x1="5219.15" y1="-1434.2" x2="5220.7" y2="-1434.2" gradientTransform="matrix(202.91, 0, 0, -202.91, -1059292.56, -290293.53)" xlink:href="#linear-gradient"/><linearGradient id="linear-gradient-301" x1="5217.39" y1="-1434.43" x2="5218.94" y2="-1434.43" gradientTransform="matrix(80.36, 0, 0, -80.36, -419374.93, -114607.16)" xlink:href="#linear-gradient"/><linearGradient id="linear-gradient-302" x1="5219.44" y1="-1433.88" x2="5220.99" y2="-1433.88" gradientTransform="matrix(202.91, 0, 0, -202.91, -1059187.06, -290409.53)" xlink:href="#linear-gradient"/><linearGradient id="linear-gradient-303" x1="5214.84" y1="-1433.94" x2="5216.4" y2="-1433.94" gradientTransform="matrix(36.23, 0, 0, -36.23, -188865.74, -51403.59)" xlink:href="#linear-gradient"/><linearGradient id="linear-gradient-304" x1="5217.15" y1="-1433.65" x2="5218.7" y2="-1433.65" gradientTransform="matrix(59.3, 0, 0, -59.3, -309339.05, -84520.29)" xlink:href="#linear-gradient"/><linearGradient id="linear-gradient-305" x1="5218.11" y1="-1433.64" x2="5219.66" y2="-1433.64" gradientTransform="matrix(80.36, 0, 0, -80.36, -419269.43, -114723.16)" xlink:href="#linear-gradient"/><linearGradient id="linear-gradient-306" x1="5214.35" y1="-1433.94" x2="5215.9" y2="-1433.94" gradientTransform="matrix(36.23, 0, 0, -36.23, -188898.3, -51403.59)" xlink:href="#linear-gradient"/><linearGradient id="linear-gradient-307" x1="5216.63" y1="-1433.65" x2="5218.18" y2="-1433.65" gradientTransform="matrix(59.3, 0, 0, -59.3, -309395.31, -84520.29)" xlink:href="#linear-gradient"/><linearGradient id="linear-gradient-308" x1="5217.56" y1="-1433.64" x2="5219.11" y2="-1433.64" gradientTransform="matrix(80.36, 0, 0, -80.36, -419349.85, -114723.16)" xlink:href="#linear-gradient"/><clipPath id="clip-path-12"><rect x="-114.83" y="720" width="327.41" height="360" style="fill:none"/></clipPath><linearGradient id="linear-gradient-324" x1="5218.28" y1="-1436.03" x2="5219.83" y2="-1436.03" gradientTransform="matrix(80.36, 0, 0, -80.36, -419244.35, -114375.16)" xlink:href="#linear-gradient"/><linearGradient id="linear-gradient-325" x1="5219.15" y1="-1434.83" x2="5220.7" y2="-1434.83" gradientTransform="matrix(202.91, 0, 0, -202.91, -1059292.56, -290061.53)" xlink:href="#linear-gradient"/><linearGradient id="linear-gradient-326" x1="5217.39" y1="-1436.03" x2="5218.94" y2="-1436.03" gradientTransform="matrix(80.36, 0, 0, -80.36, -419374.93, -114375.16)" xlink:href="#linear-gradient"/><linearGradient id="linear-gradient-327" x1="5219.44" y1="-1434.51" x2="5220.99" y2="-1434.51" gradientTransform="matrix(202.91, 0, 0, -202.91, -1059187.06, -290177.53)" xlink:href="#linear-gradient"/><linearGradient id="linear-gradient-328" x1="5214.84" y1="-1437.48" x2="5216.4" y2="-1437.48" gradientTransform="matrix(36.23, 0, 0, -36.23, -188865.74, -51171.59)" xlink:href="#linear-gradient"/><linearGradient id="linear-gradient-329" x1="5217.15" y1="-1435.81" x2="5218.7" y2="-1435.81" gradientTransform="matrix(59.3, 0, 0, -59.3, -309339.05, -84288.29)" xlink:href="#linear-gradient"/><linearGradient id="linear-gradient-330" x1="5218.11" y1="-1435.23" x2="5219.66" y2="-1435.23" gradientTransform="matrix(80.36, 0, 0, -80.36, -419269.43, -114491.16)" xlink:href="#linear-gradient"/><linearGradient id="linear-gradient-331" x1="5214.35" y1="-1437.48" x2="5215.9" y2="-1437.48" gradientTransform="matrix(36.23, 0, 0, -36.23, -188898.3, -51171.59)" xlink:href="#linear-gradient"/><linearGradient id="linear-gradient-332" x1="5216.63" y1="-1435.81" x2="5218.18" y2="-1435.81" gradientTransform="matrix(59.3, 0, 0, -59.3, -309395.31, -84288.29)" xlink:href="#linear-gradient"/><linearGradient id="linear-gradient-333" x1="5217.56" y1="-1435.23" x2="5219.11" y2="-1435.23" gradientTransform="matrix(80.36, 0, 0, -80.36, -419349.85, -114491.16)" xlink:href="#linear-gradient"/></defs><g style="clip-path:url(#clip-path)"><polygon points="1347.95 360.07 1345.8 357.91 1194.89 508.82 1046.01 359.93 1194.76 211.18 1345.8 362.22 1347.95 360.07 1345.8 357.91 1347.95 360.07 1350.11 357.91 1194.76 202.57 1037.4 359.93 1194.89 517.43 1352.26 360.07 1350.11 357.91 1347.95 360.07" style="fill:url(#linear-gradient)"/><polyline points="1189.46 210.98 1069.82 388.21 1074.86 391.62 1194.51 214.39" style="fill:url(#linear-gradient-2)"/><polygon points="1020.54 360.07 1018.39 357.91 867.48 508.82 718.59 359.93 867.35 211.18 1018.39 362.22 1020.54 360.07 1018.39 357.91 1020.54 360.07 1022.69 357.91 867.35 202.57 709.98 359.93 867.48 517.43 1024.84 360.07 1022.69 357.91 1020.54 360.07" style="fill:url(#linear-gradient-3)"/><polygon points="870.39 513.13 870.39 242.31 914.55 462.62 920.52 461.42 870.33 211.03 864.3 211.63 864.3 513.13 870.39 513.13 870.39 513.13" style="fill:url(#linear-gradient-4)"/><polyline points="956.8 423.91 870.44 208.38 864.78 210.65 951.15 426.17" style="fill:url(#linear-gradient-5)"/><polyline points="867.2 214.39 986.85 391.62 991.89 388.21 872.25 210.98" style="fill:url(#linear-gradient-6)"/><polygon points="870 513.13 870 211.63 863.97 211.03 813.78 461.42 819.75 462.62 863.91 242.31 863.91 513.13 870 513.13 870 513.13" style="fill:url(#linear-gradient-7)"/><polyline points="783.14 426.17 869.51 210.65 863.86 208.38 777.49 423.91" style="fill:url(#linear-gradient-8)"/><polygon points="1184.25 180.07 1182.09 177.91 1031.19 328.82 882.3 179.93 1031.05 31.18 1182.09 182.22 1184.25 180.07 1182.09 177.91 1184.25 180.07 1186.4 177.91 1031.05 22.57 873.69 179.93 1031.18 337.43 1188.55 180.07 1186.4 177.91 1184.25 180.07" style="fill:url(#linear-gradient-9)"/><polygon points="1034.1 333.13 1034.1 62.31 1078.25 282.62 1084.22 281.42 1034.04 31.03 1028.01 31.63 1028.01 333.13 1034.1 333.13 1034.1 333.13" style="fill:url(#linear-gradient-10)"/><polyline points="1120.51 243.91 1034.14 28.38 1028.49 30.65 1114.86 246.17" style="fill:url(#linear-gradient-11)"/><polyline points="1030.91 34.39 1150.56 211.62 1155.6 208.21 1035.95 30.98" style="fill:url(#linear-gradient-12)"/><polygon points="1033.7 333.13 1033.7 31.63 1027.67 31.03 977.49 281.42 983.46 282.62 1027.61 62.31 1027.61 333.13 1033.7 333.13 1033.7 333.13" style="fill:url(#linear-gradient-13)"/><polyline points="946.85 246.17 1033.22 30.65 1027.57 28.38 941.2 243.91" style="fill:url(#linear-gradient-14)"/><polyline points="1025.76 30.98 906.11 208.21 911.16 211.62 1030.8 34.39" style="fill:url(#linear-gradient-15)"/><polygon points="1347.95 0.07 1345.8 -2.09 1194.89 148.82 1046.01 -0.07 1194.76 -148.82 1345.8 2.22 1347.95 0.07 1345.8 -2.09 1347.95 0.07 1350.11 -2.09 1194.76 -157.43 1037.4 -0.07 1194.89 157.43 1352.26 0.07 1350.11 -2.09 1347.95 0.07" style="fill:url(#linear-gradient-16)"/><polyline points="1189.46 -149.02 1069.82 28.21 1074.86 31.61 1194.51 -145.61" style="fill:url(#linear-gradient-17)"/><polygon points="1020.54 0.07 1018.39 -2.09 867.48 148.82 718.59 -0.07 867.35 -148.82 1018.39 2.22 1020.54 0.07 1018.39 -2.09 1020.54 0.07 1022.69 -2.09 867.35 -157.43 709.98 -0.07 867.48 157.43 1024.84 0.07 1022.69 -2.09 1020.54 0.07" style="fill:url(#linear-gradient-18)"/><polygon points="870.39 153.13 870.39 -117.69 914.55 102.62 920.52 101.42 870.33 -148.97 864.3 -148.37 864.3 153.13 870.39 153.13 870.39 153.13" style="fill:url(#linear-gradient-19)"/><polyline points="956.8 63.91 870.44 -151.62 864.78 -149.35 951.15 66.17" style="fill:url(#linear-gradient-20)"/><polyline points="867.2 -145.61 986.85 31.61 991.89 28.21 872.25 -149.02" style="fill:url(#linear-gradient-21)"/><polygon points="870 153.13 870 -148.37 863.97 -148.97 813.78 101.42 819.75 102.62 863.91 -117.69 863.91 153.13 870 153.13 870 153.13" style="fill:url(#linear-gradient-22)"/><polyline points="783.14 66.17 869.51 -149.35 863.86 -151.62 777.49 63.91" style="fill:url(#linear-gradient-23)"/></g><g style="clip-path:url(#clip-path-2)"><polygon points="1347.95 720.07 1345.8 717.91 1194.89 868.82 1046.01 719.93 1194.76 571.18 1345.8 722.22 1347.95 720.07 1345.8 717.91 1347.95 720.07 1350.11 717.91 1194.76 562.57 1037.4 719.93 1194.89 877.43 1352.26 720.07 1350.11 717.91 1347.95 720.07" style="fill:url(#linear-gradient-24)"/><polyline points="1189.46 570.98 1069.82 748.21 1074.86 751.62 1194.51 574.39" style="fill:url(#linear-gradient-25)"/><polygon points="1020.54 720.07 1018.39 717.91 867.48 868.82 718.59 719.93 867.35 571.18 1018.39 722.22 1020.54 720.07 1018.39 717.91 1020.54 720.07 1022.69 717.91 867.35 562.57 709.98 719.93 867.48 877.43 1024.84 720.07 1022.69 717.91 1020.54 720.07" style="fill:url(#linear-gradient-26)"/><polygon points="870.39 873.13 870.39 602.3 914.55 822.62 920.52 821.42 870.33 571.03 864.3 571.63 864.3 873.13 870.39 873.13 870.39 873.13" style="fill:url(#linear-gradient-27)"/><polyline points="956.8 783.91 870.44 568.38 864.78 570.65 951.15 786.17" style="fill:url(#linear-gradient-28)"/><polyline points="867.2 574.39 986.85 751.62 991.89 748.21 872.25 570.98" style="fill:url(#linear-gradient-29)"/><polygon points="870 873.13 870 571.63 863.97 571.03 813.78 821.42 819.75 822.62 863.91 602.31 863.91 873.13 870 873.13 870 873.13" style="fill:url(#linear-gradient-30)"/><polyline points="783.14 786.17 869.51 570.65 863.86 568.38 777.49 783.91" style="fill:url(#linear-gradient-31)"/><polygon points="1184.25 540.07 1182.09 537.91 1031.19 688.82 882.3 539.93 1031.05 391.18 1182.09 542.22 1184.25 540.07 1182.09 537.91 1184.25 540.07 1186.4 537.91 1031.05 382.57 873.69 539.93 1031.18 697.43 1188.55 540.07 1186.4 537.91 1184.25 540.07" style="fill:url(#linear-gradient-32)"/><polygon points="1034.1 693.13 1034.1 422.31 1078.25 642.62 1084.22 641.42 1034.04 391.03 1028.01 391.63 1028.01 693.13 1034.1 693.13 1034.1 693.13" style="fill:url(#linear-gradient-33)"/><polyline points="1120.51 603.91 1034.14 388.38 1028.49 390.65 1114.86 606.17" style="fill:url(#linear-gradient-34)"/><polyline points="1030.91 394.39 1150.56 571.62 1155.6 568.21 1035.95 390.98" style="fill:url(#linear-gradient-35)"/><polygon points="1033.7 693.13 1033.7 391.63 1027.67 391.03 977.49 641.42 983.46 642.62 1027.61 422.31 1027.61 693.13 1033.7 693.13 1033.7 693.13" style="fill:url(#linear-gradient-36)"/><polyline points="946.85 606.17 1033.22 390.65 1027.57 388.38 941.2 603.91" style="fill:url(#linear-gradient-37)"/><polyline points="1025.76 390.98 906.11 568.21 911.16 571.62 1030.8 394.39" style="fill:url(#linear-gradient-38)"/><polygon points="1347.95 360.07 1345.8 357.91 1194.89 508.82 1046.01 359.93 1194.76 211.18 1345.8 362.22 1347.95 360.07 1345.8 357.91 1347.95 360.07 1350.11 357.91 1194.76 202.57 1037.4 359.93 1194.89 517.43 1352.26 360.07 1350.11 357.91 1347.95 360.07" style="fill:url(#linear-gradient)"/><polyline points="1189.46 210.98 1069.82 388.21 1074.86 391.62 1194.51 214.39" style="fill:url(#linear-gradient-2)"/><polygon points="1020.54 360.07 1018.39 357.91 867.48 508.82 718.59 359.93 867.35 211.18 1018.39 362.22 1020.54 360.07 1018.39 357.91 1020.54 360.07 1022.69 357.91 867.35 202.57 709.98 359.93 867.48 517.43 1024.84 360.07 1022.69 357.91 1020.54 360.07" style="fill:url(#linear-gradient-3)"/><polygon points="870.39 513.13 870.39 242.31 914.55 462.62 920.52 461.42 870.33 211.03 864.3 211.63 864.3 513.13 870.39 513.13 870.39 513.13" style="fill:url(#linear-gradient-4)"/><polyline points="956.8 423.91 870.44 208.38 864.78 210.65 951.15 426.17" style="fill:url(#linear-gradient-5)"/><polyline points="867.2 214.39 986.85 391.62 991.89 388.21 872.25 210.98" style="fill:url(#linear-gradient-6)"/><polygon points="870 513.13 870 211.63 863.97 211.03 813.78 461.42 819.75 462.62 863.91 242.31 863.91 513.13 870 513.13 870 513.13" style="fill:url(#linear-gradient-7)"/><polyline points="783.14 426.17 869.51 210.65 863.86 208.38 777.49 423.91" style="fill:url(#linear-gradient-8)"/></g><g style="clip-path:url(#clip-path-3)"><polygon points="1347.95 1080.07 1345.8 1077.91 1194.89 1228.82 1046.01 1079.93 1194.76 931.18 1345.8 1082.22 1347.95 1080.07 1345.8 1077.91 1347.95 1080.07 1350.11 1077.91 1194.76 922.57 1037.4 1079.93 1194.89 1237.43 1352.26 1080.07 1350.11 1077.91 1347.95 1080.07" style="fill:url(#linear-gradient-47)"/><polyline points="1189.46 930.98 1069.82 1108.21 1074.86 1111.62 1194.51 934.39" style="fill:url(#linear-gradient-48)"/><polygon points="1020.54 1080.07 1018.39 1077.91 867.48 1228.82 718.59 1079.93 867.35 931.18 1018.39 1082.22 1020.54 1080.07 1018.39 1077.91 1020.54 1080.07 1022.69 1077.91 867.35 922.57 709.98 1079.93 867.48 1237.43 1024.84 1080.07 1022.69 1077.91 1020.54 1080.07" style="fill:url(#linear-gradient-49)"/><polygon points="870.39 1233.13 870.39 962.31 914.55 1182.62 920.52 1181.42 870.33 931.03 864.3 931.63 864.3 1233.13 870.39 1233.13 870.39 1233.13" style="fill:url(#linear-gradient-50)"/><polyline points="956.8 1143.91 870.44 928.38 864.78 930.65 951.15 1146.17" style="fill:url(#linear-gradient-51)"/><polyline points="867.2 934.39 986.85 1111.62 991.89 1108.21 872.25 930.98" style="fill:url(#linear-gradient-52)"/><polygon points="870 1233.13 870 931.63 863.97 931.03 813.78 1181.42 819.75 1182.62 863.91 962.31 863.91 1233.13 870 1233.13 870 1233.13" style="fill:url(#linear-gradient-53)"/><polyline points="783.14 1146.17 869.51 930.65 863.86 928.38 777.49 1143.91" style="fill:url(#linear-gradient-54)"/><polygon points="1184.25 900.07 1182.09 897.91 1031.19 1048.82 882.3 899.93 1031.05 751.18 1182.09 902.22 1184.25 900.07 1182.09 897.91 1184.25 900.07 1186.4 897.91 1031.05 742.57 873.69 899.93 1031.18 1057.43 1188.55 900.07 1186.4 897.91 1184.25 900.07" style="fill:url(#linear-gradient-55)"/><polygon points="1034.1 1053.13 1034.1 782.31 1078.25 1002.62 1084.22 1001.42 1034.04 751.03 1028.01 751.63 1028.01 1053.13 1034.1 1053.13 1034.1 1053.13" style="fill:url(#linear-gradient-56)"/><polyline points="1120.51 963.91 1034.14 748.38 1028.49 750.65 1114.86 966.17" style="fill:url(#linear-gradient-57)"/><polyline points="1030.91 754.39 1150.56 931.62 1155.6 928.21 1035.95 750.98" style="fill:url(#linear-gradient-58)"/><polygon points="1033.7 1053.13 1033.7 751.63 1027.67 751.03 977.49 1001.42 983.46 1002.62 1027.61 782.31 1027.61 1053.13 1033.7 1053.13 1033.7 1053.13" style="fill:url(#linear-gradient-59)"/><polyline points="946.85 966.17 1033.22 750.65 1027.57 748.38 941.2 963.91" style="fill:url(#linear-gradient-60)"/><polyline points="1025.76 750.98 906.11 928.21 911.16 931.62 1030.8 754.39" style="fill:url(#linear-gradient-61)"/><polygon points="1347.95 720.07 1345.8 717.91 1194.89 868.82 1046.01 719.93 1194.76 571.18 1345.8 722.22 1347.95 720.07 1345.8 717.91 1347.95 720.07 1350.11 717.91 1194.76 562.57 1037.4 719.93 1194.89 877.43 1352.26 720.07 1350.11 717.91 1347.95 720.07" style="fill:url(#linear-gradient-24)"/><polyline points="1189.46 570.98 1069.82 748.21 1074.86 751.62 1194.51 574.39" style="fill:url(#linear-gradient-25)"/><polygon points="1020.54 720.07 1018.39 717.91 867.48 868.82 718.59 719.93 867.35 571.18 1018.39 722.22 1020.54 720.07 1018.39 717.91 1020.54 720.07 1022.69 717.91 867.35 562.57 709.98 719.93 867.48 877.43 1024.84 720.07 1022.69 717.91 1020.54 720.07" style="fill:url(#linear-gradient-26)"/><polygon points="870.39 873.13 870.39 602.3 914.55 822.62 920.52 821.42 870.33 571.03 864.3 571.63 864.3 873.13 870.39 873.13 870.39 873.13" style="fill:url(#linear-gradient-27)"/><polyline points="956.8 783.91 870.44 568.38 864.78 570.65 951.15 786.17" style="fill:url(#linear-gradient-28)"/><polyline points="867.2 574.39 986.85 751.62 991.89 748.21 872.25 570.98" style="fill:url(#linear-gradient-29)"/><polygon points="870 873.13 870 571.63 863.97 571.03 813.78 821.42 819.75 822.62 863.91 602.31 863.91 873.13 870 873.13 870 873.13" style="fill:url(#linear-gradient-30)"/><polyline points="783.14 786.17 869.51 570.65 863.86 568.38 777.49 783.91" style="fill:url(#linear-gradient-31)"/></g><g style="clip-path:url(#clip-path-4)"><polygon points="1020.54 360.07 1018.39 357.91 867.48 508.82 718.59 359.93 867.35 211.18 1018.39 362.22 1020.54 360.07 1018.39 357.91 1020.54 360.07 1022.69 357.91 867.35 202.57 709.98 359.93 867.48 517.43 1024.84 360.07 1022.69 357.91 1020.54 360.07" style="fill:url(#linear-gradient-3)"/><polygon points="870.39 513.13 870.39 242.31 914.55 462.62 920.52 461.42 870.33 211.03 864.3 211.63 864.3 513.13 870.39 513.13 870.39 513.13" style="fill:url(#linear-gradient-4)"/><polyline points="956.8 423.91 870.44 208.38 864.78 210.65 951.15 426.17" style="fill:url(#linear-gradient-5)"/><polyline points="867.2 214.39 986.85 391.62 991.89 388.21 872.25 210.98" style="fill:url(#linear-gradient-6)"/><polygon points="870 513.13 870 211.63 863.97 211.03 813.78 461.42 819.75 462.62 863.91 242.31 863.91 513.13 870 513.13 870 513.13" style="fill:url(#linear-gradient-7)"/><polyline points="783.14 426.17 869.51 210.65 863.86 208.38 777.49 423.91" style="fill:url(#linear-gradient-8)"/><polyline points="862.05 210.98 742.4 388.21 747.45 391.62 867.1 214.39" style="fill:url(#linear-gradient-76)"/><polygon points="693.13 360.07 690.97 357.91 540.07 508.82 391.18 359.93 539.93 211.18 690.97 362.22 693.13 360.07 690.97 357.91 693.13 360.07 695.28 357.91 539.93 202.57 382.57 359.93 540.06 517.43 697.43 360.07 695.28 357.91 693.13 360.07" style="fill:url(#linear-gradient-77)"/><polygon points="542.98 513.13 542.98 242.31 587.13 462.62 593.1 461.42 542.92 211.03 536.89 211.63 536.89 513.13 542.98 513.13 542.98 513.13" style="fill:url(#linear-gradient-78)"/><polyline points="629.39 423.91 543.02 208.38 537.37 210.65 623.74 426.17" style="fill:url(#linear-gradient-79)"/><polyline points="539.79 214.39 659.44 391.62 664.48 388.21 544.83 210.98" style="fill:url(#linear-gradient-80)"/><polygon points="542.58 513.13 542.58 211.63 536.55 211.03 486.37 461.42 492.34 462.62 536.49 242.31 536.49 513.13 542.58 513.13 542.58 513.13" style="fill:url(#linear-gradient-81)"/><polyline points="455.73 426.17 542.1 210.65 536.45 208.38 450.08 423.91" style="fill:url(#linear-gradient-82)"/><polygon points="856.83 180.07 854.68 177.91 703.77 328.82 554.88 179.93 703.64 31.18 854.68 182.22 856.83 180.07 854.68 177.91 856.83 180.07 858.98 177.91 703.64 22.57 546.28 179.93 703.77 337.43 861.14 180.07 858.98 177.91 856.83 180.07" style="fill:url(#linear-gradient-83)"/><polygon points="706.68 333.13 706.68 62.31 750.84 282.62 756.81 281.42 706.63 31.03 700.6 31.63 700.6 333.13 706.68 333.13 706.68 333.13" style="fill:url(#linear-gradient-84)"/><polyline points="793.1 243.91 706.73 28.38 701.08 30.65 787.45 246.17" style="fill:url(#linear-gradient-85)"/><polyline points="703.5 34.39 823.14 211.62 828.19 208.21 708.54 30.98" style="fill:url(#linear-gradient-86)"/><polygon points="706.29 333.13 706.29 31.63 700.26 31.03 650.08 281.42 656.05 282.62 700.2 62.31 700.2 333.13 706.29 333.13 706.29 333.13" style="fill:url(#linear-gradient-87)"/><polyline points="619.44 246.17 705.81 30.65 700.15 28.38 613.79 243.91" style="fill:url(#linear-gradient-88)"/><polyline points="698.34 30.98 578.7 208.21 583.74 211.62 703.39 34.39" style="fill:url(#linear-gradient-89)"/><polygon points="1020.54 0.07 1018.39 -2.09 867.48 148.82 718.59 -0.07 867.35 -148.82 1018.39 2.22 1020.54 0.07 1018.39 -2.09 1020.54 0.07 1022.69 -2.09 867.35 -157.43 709.98 -0.07 867.48 157.43 1024.84 0.07 1022.69 -2.09 1020.54 0.07" style="fill:url(#linear-gradient-18)"/><polygon points="870.39 153.13 870.39 -117.69 914.55 102.62 920.52 101.42 870.33 -148.97 864.3 -148.37 864.3 153.13 870.39 153.13 870.39 153.13" style="fill:url(#linear-gradient-19)"/><polyline points="956.8 63.91 870.44 -151.62 864.78 -149.35 951.15 66.17" style="fill:url(#linear-gradient-20)"/><polyline points="867.2 -145.61 986.85 31.61 991.89 28.21 872.25 -149.02" style="fill:url(#linear-gradient-21)"/><polygon points="870 153.13 870 -148.37 863.97 -148.97 813.78 101.42 819.75 102.62 863.91 -117.69 863.91 153.13 870 153.13 870 153.13" style="fill:url(#linear-gradient-22)"/><polyline points="783.14 66.17 869.51 -149.35 863.86 -151.62 777.49 63.91" style="fill:url(#linear-gradient-23)"/><polyline points="862.05 -149.02 742.4 28.21 747.45 31.61 867.1 -145.61" style="fill:url(#linear-gradient-96)"/><polygon points="693.13 0.07 690.97 -2.09 540.07 148.82 391.18 -0.07 539.93 -148.82 690.97 2.22 693.13 0.07 690.97 -2.09 693.13 0.07 695.28 -2.09 539.93 -157.43 382.57 -0.07 540.06 157.43 697.43 0.07 695.28 -2.09 693.13 0.07" style="fill:url(#linear-gradient-97)"/><polygon points="542.98 153.13 542.98 -117.69 587.13 102.62 593.1 101.42 542.92 -148.97 536.89 -148.37 536.89 153.13 542.98 153.13 542.98 153.13" style="fill:url(#linear-gradient-98)"/><polyline points="629.39 63.91 543.02 -151.62 537.37 -149.35 623.74 66.17" style="fill:url(#linear-gradient-99)"/><polyline points="539.79 -145.61 659.44 31.61 664.48 28.21 544.83 -149.02" style="fill:url(#linear-gradient-100)"/><polygon points="542.58 153.13 542.58 -148.37 536.55 -148.97 486.37 101.42 492.34 102.62 536.49 -117.69 536.49 153.13 542.58 153.13 542.58 153.13" style="fill:url(#linear-gradient-101)"/><polyline points="455.73 66.17 542.1 -149.35 536.45 -151.62 450.08 63.91" style="fill:url(#linear-gradient-102)"/></g><g style="clip-path:url(#clip-path-5)"><polygon points="1020.54 720.07 1018.39 717.91 867.48 868.82 718.59 719.93 867.35 571.18 1018.39 722.22 1020.54 720.07 1018.39 717.91 1020.54 720.07 1022.69 717.91 867.35 562.57 709.98 719.93 867.48 877.43 1024.84 720.07 1022.69 717.91 1020.54 720.07" style="fill:url(#linear-gradient-26)"/><polygon points="870.39 873.13 870.39 602.3 914.55 822.62 920.52 821.42 870.33 571.03 864.3 571.63 864.3 873.13 870.39 873.13 870.39 873.13" style="fill:url(#linear-gradient-27)"/><polyline points="956.8 783.91 870.44 568.38 864.78 570.65 951.15 786.17" style="fill:url(#linear-gradient-28)"/><polyline points="867.2 574.39 986.85 751.62 991.89 748.21 872.25 570.98" style="fill:url(#linear-gradient-29)"/><polygon points="870 873.13 870 571.63 863.97 571.03 813.78 821.42 819.75 822.62 863.91 602.31 863.91 873.13 870 873.13 870 873.13" style="fill:url(#linear-gradient-30)"/><polyline points="783.14 786.17 869.51 570.65 863.86 568.38 777.49 783.91" style="fill:url(#linear-gradient-31)"/><polyline points="862.05 570.98 742.4 748.21 747.45 751.62 867.1 574.39" style="fill:url(#linear-gradient-109)"/><polygon points="693.13 720.07 690.97 717.91 540.07 868.82 391.18 719.93 539.93 571.18 690.97 722.22 693.13 720.07 690.97 717.91 693.13 720.07 695.28 717.91 539.93 562.57 382.57 719.93 540.06 877.43 697.43 720.07 695.28 717.91 693.13 720.07" style="fill:url(#linear-gradient-110)"/><polygon points="542.98 873.13 542.98 602.31 587.13 822.62 593.1 821.42 542.92 571.03 536.89 571.63 536.89 873.13 542.98 873.13 542.98 873.13" style="fill:url(#linear-gradient-111)"/><polyline points="629.39 783.91 543.02 568.38 537.37 570.65 623.74 786.17" style="fill:url(#linear-gradient-112)"/><polyline points="539.79 574.39 659.44 751.62 664.48 748.21 544.83 570.98" style="fill:url(#linear-gradient-113)"/><polygon points="542.58 873.13 542.58 571.63 536.55 571.03 486.37 821.42 492.34 822.62 536.49 602.31 536.49 873.13 542.58 873.13 542.58 873.13" style="fill:url(#linear-gradient-114)"/><polyline points="455.73 786.17 542.1 570.65 536.45 568.38 450.08 783.91" style="fill:url(#linear-gradient-115)"/><polygon points="856.83 540.07 854.68 537.91 703.77 688.82 554.88 539.93 703.64 391.18 854.68 542.22 856.83 540.07 854.68 537.91 856.83 540.07 858.98 537.91 703.64 382.57 546.28 539.93 703.77 697.43 861.14 540.07 858.98 537.91 856.83 540.07" style="fill:url(#linear-gradient-116)"/><polygon points="706.68 693.13 706.68 422.31 750.84 642.62 756.81 641.42 706.63 391.03 700.6 391.63 700.6 693.13 706.68 693.13 706.68 693.13" style="fill:url(#linear-gradient-117)"/><polyline points="793.1 603.91 706.73 388.38 701.08 390.65 787.45 606.17" style="fill:url(#linear-gradient-118)"/><polyline points="703.5 394.39 823.14 571.62 828.19 568.21 708.54 390.98" style="fill:url(#linear-gradient-119)"/><polygon points="706.29 693.13 706.29 391.63 700.26 391.03 650.08 641.42 656.05 642.62 700.2 422.31 700.2 693.13 706.29 693.13 706.29 693.13" style="fill:url(#linear-gradient-120)"/><polyline points="619.44 606.17 705.81 390.65 700.15 388.38 613.79 603.91" style="fill:url(#linear-gradient-121)"/><polyline points="698.34 390.98 578.7 568.21 583.74 571.62 703.39 394.39" style="fill:url(#linear-gradient-122)"/><polygon points="1020.54 360.07 1018.39 357.91 867.48 508.82 718.59 359.93 867.35 211.18 1018.39 362.22 1020.54 360.07 1018.39 357.91 1020.54 360.07 1022.69 357.91 867.35 202.57 709.98 359.93 867.48 517.43 1024.84 360.07 1022.69 357.91 1020.54 360.07" style="fill:url(#linear-gradient-3)"/><polygon points="870.39 513.13 870.39 242.31 914.55 462.62 920.52 461.42 870.33 211.03 864.3 211.63 864.3 513.13 870.39 513.13 870.39 513.13" style="fill:url(#linear-gradient-4)"/><polyline points="956.8 423.91 870.44 208.38 864.78 210.65 951.15 426.17" style="fill:url(#linear-gradient-5)"/><polyline points="867.2 214.39 986.85 391.62 991.89 388.21 872.25 210.98" style="fill:url(#linear-gradient-6)"/><polygon points="870 513.13 870 211.63 863.97 211.03 813.78 461.42 819.75 462.62 863.91 242.31 863.91 513.13 870 513.13 870 513.13" style="fill:url(#linear-gradient-7)"/><polyline points="783.14 426.17 869.51 210.65 863.86 208.38 777.49 423.91" style="fill:url(#linear-gradient-8)"/><polyline points="862.05 210.98 742.4 388.21 747.45 391.62 867.1 214.39" style="fill:url(#linear-gradient-76)"/><polygon points="693.13 360.07 690.97 357.91 540.07 508.82 391.18 359.93 539.93 211.18 690.97 362.22 693.13 360.07 690.97 357.91 693.13 360.07 695.28 357.91 539.93 202.57 382.57 359.93 540.06 517.43 697.43 360.07 695.28 357.91 693.13 360.07" style="fill:url(#linear-gradient-77)"/><polygon points="542.98 513.13 542.98 242.31 587.13 462.62 593.1 461.42 542.92 211.03 536.89 211.63 536.89 513.13 542.98 513.13 542.98 513.13" style="fill:url(#linear-gradient-78)"/><polyline points="629.39 423.91 543.02 208.38 537.37 210.65 623.74 426.17" style="fill:url(#linear-gradient-79)"/><polyline points="539.79 214.39 659.44 391.62 664.48 388.21 544.83 210.98" style="fill:url(#linear-gradient-80)"/><polygon points="542.58 513.13 542.58 211.63 536.55 211.03 486.37 461.42 492.34 462.62 536.49 242.31 536.49 513.13 542.58 513.13 542.58 513.13" style="fill:url(#linear-gradient-81)"/><polyline points="455.73 426.17 542.1 210.65 536.45 208.38 450.08 423.91" style="fill:url(#linear-gradient-82)"/></g><g style="clip-path:url(#clip-path-6)"><polygon points="1020.54 1080.07 1018.39 1077.91 867.48 1228.82 718.59 1079.93 867.35 931.18 1018.39 1082.22 1020.54 1080.07 1018.39 1077.91 1020.54 1080.07 1022.69 1077.91 867.35 922.57 709.98 1079.93 867.48 1237.43 1024.84 1080.07 1022.69 1077.91 1020.54 1080.07" style="fill:url(#linear-gradient-49)"/><polygon points="870.39 1233.13 870.39 962.31 914.55 1182.62 920.52 1181.42 870.33 931.03 864.3 931.63 864.3 1233.13 870.39 1233.13 870.39 1233.13" style="fill:url(#linear-gradient-50)"/><polyline points="956.8 1143.91 870.44 928.38 864.78 930.65 951.15 1146.17" style="fill:url(#linear-gradient-51)"/><polyline points="867.2 934.39 986.85 1111.62 991.89 1108.21 872.25 930.98" style="fill:url(#linear-gradient-52)"/><polygon points="870 1233.13 870 931.63 863.97 931.03 813.78 1181.42 819.75 1182.62 863.91 962.31 863.91 1233.13 870 1233.13 870 1233.13" style="fill:url(#linear-gradient-53)"/><polyline points="783.14 1146.17 869.51 930.65 863.86 928.38 777.49 1143.91" style="fill:url(#linear-gradient-54)"/><polyline points="862.05 930.98 742.4 1108.21 747.45 1111.62 867.1 934.39" style="fill:url(#linear-gradient-142)"/><polygon points="693.13 1080.07 690.97 1077.91 540.07 1228.82 391.18 1079.93 539.93 931.18 690.97 1082.22 693.13 1080.07 690.97 1077.91 693.13 1080.07 695.28 1077.91 539.93 922.57 382.57 1079.93 540.06 1237.43 697.43 1080.07 695.28 1077.91 693.13 1080.07" style="fill:url(#linear-gradient-143)"/><polygon points="542.98 1233.13 542.98 962.31 587.13 1182.62 593.1 1181.42 542.92 931.03 536.89 931.63 536.89 1233.13 542.98 1233.13 542.98 1233.13" style="fill:url(#linear-gradient-144)"/><polyline points="629.39 1143.91 543.02 928.38 537.37 930.65 623.74 1146.17" style="fill:url(#linear-gradient-145)"/><polyline points="539.79 934.39 659.44 1111.62 664.48 1108.21 544.83 930.98" style="fill:url(#linear-gradient-146)"/><polygon points="542.58 1233.13 542.58 931.63 536.55 931.03 486.37 1181.42 492.34 1182.62 536.49 962.31 536.49 1233.13 542.58 1233.13 542.58 1233.13" style="fill:url(#linear-gradient-147)"/><polyline points="455.73 1146.17 542.1 930.65 536.45 928.38 450.08 1143.91" style="fill:url(#linear-gradient-148)"/><polygon points="856.83 900.07 854.68 897.91 703.77 1048.82 554.88 899.93 703.64 751.18 854.68 902.22 856.83 900.07 854.68 897.91 856.83 900.07 858.98 897.91 703.64 742.57 546.28 899.93 703.77 1057.43 861.14 900.07 858.98 897.91 856.83 900.07" style="fill:url(#linear-gradient-149)"/><polygon points="706.68 1053.13 706.68 782.31 750.84 1002.62 756.81 1001.42 706.63 751.03 700.6 751.63 700.6 1053.13 706.68 1053.13 706.68 1053.13" style="fill:url(#linear-gradient-150)"/><polyline points="793.1 963.91 706.73 748.38 701.08 750.65 787.45 966.17" style="fill:url(#linear-gradient-151)"/><polyline points="703.5 754.39 823.14 931.62 828.19 928.21 708.54 750.98" style="fill:url(#linear-gradient-152)"/><polygon points="706.29 1053.13 706.29 751.63 700.26 751.03 650.08 1001.42 656.05 1002.62 700.2 782.31 700.2 1053.13 706.29 1053.13 706.29 1053.13" style="fill:url(#linear-gradient-153)"/><polyline points="619.44 966.17 705.81 750.65 700.15 748.38 613.79 963.91" style="fill:url(#linear-gradient-154)"/><polyline points="698.34 750.98 578.7 928.21 583.74 931.62 703.39 754.39" style="fill:url(#linear-gradient-155)"/><polygon points="1020.54 720.07 1018.39 717.91 867.48 868.82 718.59 719.93 867.35 571.18 1018.39 722.22 1020.54 720.07 1018.39 717.91 1020.54 720.07 1022.69 717.91 867.35 562.57 709.98 719.93 867.48 877.43 1024.84 720.07 1022.69 717.91 1020.54 720.07" style="fill:url(#linear-gradient-26)"/><polygon points="870.39 873.13 870.39 602.3 914.55 822.62 920.52 821.42 870.33 571.03 864.3 571.63 864.3 873.13 870.39 873.13 870.39 873.13" style="fill:url(#linear-gradient-27)"/><polyline points="956.8 783.91 870.44 568.38 864.78 570.65 951.15 786.17" style="fill:url(#linear-gradient-28)"/><polyline points="867.2 574.39 986.85 751.62 991.89 748.21 872.25 570.98" style="fill:url(#linear-gradient-29)"/><polygon points="870 873.13 870 571.63 863.97 571.03 813.78 821.42 819.75 822.62 863.91 602.31 863.91 873.13 870 873.13 870 873.13" style="fill:url(#linear-gradient-30)"/><polyline points="783.14 786.17 869.51 570.65 863.86 568.38 777.49 783.91" style="fill:url(#linear-gradient-31)"/><polyline points="862.05 570.98 742.4 748.21 747.45 751.62 867.1 574.39" style="fill:url(#linear-gradient-109)"/><polygon points="693.13 720.07 690.97 717.91 540.07 868.82 391.18 719.93 539.93 571.18 690.97 722.22 693.13 720.07 690.97 717.91 693.13 720.07 695.28 717.91 539.93 562.57 382.57 719.93 540.06 877.43 697.43 720.07 695.28 717.91 693.13 720.07" style="fill:url(#linear-gradient-110)"/><polygon points="542.98 873.13 542.98 602.31 587.13 822.62 593.1 821.42 542.92 571.03 536.89 571.63 536.89 873.13 542.98 873.13 542.98 873.13" style="fill:url(#linear-gradient-111)"/><polyline points="629.39 783.91 543.02 568.38 537.37 570.65 623.74 786.17" style="fill:url(#linear-gradient-112)"/><polyline points="539.79 574.39 659.44 751.62 664.48 748.21 544.83 570.98" style="fill:url(#linear-gradient-113)"/><polygon points="542.58 873.13 542.58 571.63 536.55 571.03 486.37 821.42 492.34 822.62 536.49 602.31 536.49 873.13 542.58 873.13 542.58 873.13" style="fill:url(#linear-gradient-114)"/><polyline points="455.73 786.17 542.1 570.65 536.45 568.38 450.08 783.91" style="fill:url(#linear-gradient-115)"/></g><g style="clip-path:url(#clip-path-7)"><polygon points="693.13 360.07 690.97 357.91 540.07 508.82 391.18 359.93 539.93 211.18 690.97 362.22 693.13 360.07 690.97 357.91 693.13 360.07 695.28 357.91 539.93 202.57 382.57 359.93 540.06 517.43 697.43 360.07 695.28 357.91 693.13 360.07" style="fill:url(#linear-gradient-77)"/><polygon points="542.98 513.13 542.98 242.31 587.13 462.62 593.1 461.42 542.92 211.03 536.89 211.63 536.89 513.13 542.98 513.13 542.98 513.13" style="fill:url(#linear-gradient-78)"/><polyline points="629.39 423.91 543.02 208.38 537.37 210.65 623.74 426.17" style="fill:url(#linear-gradient-79)"/><polyline points="539.79 214.39 659.44 391.62 664.48 388.21 544.83 210.98" style="fill:url(#linear-gradient-80)"/><polygon points="542.58 513.13 542.58 211.63 536.55 211.03 486.37 461.42 492.34 462.62 536.49 242.31 536.49 513.13 542.58 513.13 542.58 513.13" style="fill:url(#linear-gradient-81)"/><polyline points="455.73 426.17 542.1 210.65 536.45 208.38 450.08 423.91" style="fill:url(#linear-gradient-82)"/><polyline points="534.64 210.98 414.99 388.21 420.04 391.62 539.68 214.39" style="fill:url(#linear-gradient-175)"/><polygon points="365.71 360.07 363.56 357.91 212.65 508.82 63.76 359.93 212.52 211.18 363.56 362.22 365.71 360.07 363.56 357.91 365.71 360.07 367.86 357.91 212.52 202.57 55.16 359.93 212.65 517.43 370.02 360.07 367.86 357.91 365.71 360.07" style="fill:url(#linear-gradient-176)"/><polygon points="215.56 513.13 215.56 242.31 259.72 462.62 265.69 461.42 215.5 211.03 209.48 211.63 209.48 513.13 215.56 513.13 215.56 513.13" style="fill:url(#linear-gradient-177)"/><polyline points="301.98 423.91 215.61 208.38 209.96 210.65 296.33 426.17" style="fill:url(#linear-gradient-178)"/><polyline points="212.37 214.39 332.02 391.62 337.07 388.21 217.42 210.98" style="fill:url(#linear-gradient-179)"/><polygon points="215.17 513.13 215.17 211.63 209.14 211.03 158.96 461.42 164.93 462.62 209.08 242.31 209.08 513.13 215.17 513.13 215.17 513.13" style="fill:url(#linear-gradient-180)"/><polyline points="128.32 426.17 214.69 210.65 209.03 208.38 122.67 423.91" style="fill:url(#linear-gradient-181)"/><polygon points="529.42 180.07 527.27 177.91 376.36 328.82 227.47 179.93 376.23 31.18 527.27 182.22 529.42 180.07 527.27 177.91 529.42 180.07 531.57 177.91 376.23 22.57 218.86 179.93 376.36 337.43 533.72 180.07 531.57 177.91 529.42 180.07" style="fill:url(#linear-gradient-182)"/><polygon points="379.27 333.13 379.27 62.31 423.43 282.62 429.4 281.42 379.21 31.03 373.18 31.63 373.18 333.13 379.27 333.13 379.27 333.13" style="fill:url(#linear-gradient-183)"/><polyline points="465.69 243.91 379.32 28.38 373.67 30.65 460.03 246.17" style="fill:url(#linear-gradient-184)"/><polyline points="376.08 34.39 495.73 211.62 500.77 208.21 381.13 30.98" style="fill:url(#linear-gradient-185)"/><polygon points="378.88 333.13 378.88 31.63 372.85 31.03 322.66 281.42 328.63 282.62 372.79 62.31 372.79 333.13 378.88 333.13 378.88 333.13" style="fill:url(#linear-gradient-186)"/><polyline points="292.02 246.17 378.39 30.65 372.74 28.38 286.37 243.91" style="fill:url(#linear-gradient-187)"/><polyline points="370.93 30.98 251.28 208.21 256.33 211.62 375.98 34.39" style="fill:url(#linear-gradient-188)"/><polygon points="693.13 0.07 690.97 -2.09 540.07 148.82 391.18 -0.07 539.93 -148.82 690.97 2.22 693.13 0.07 690.97 -2.09 693.13 0.07 695.28 -2.09 539.93 -157.43 382.57 -0.07 540.06 157.43 697.43 0.07 695.28 -2.09 693.13 0.07" style="fill:url(#linear-gradient-97)"/><polygon points="542.98 153.13 542.98 -117.69 587.13 102.62 593.1 101.42 542.92 -148.97 536.89 -148.37 536.89 153.13 542.98 153.13 542.98 153.13" style="fill:url(#linear-gradient-98)"/><polyline points="629.39 63.91 543.02 -151.62 537.37 -149.35 623.74 66.17" style="fill:url(#linear-gradient-99)"/><polyline points="539.79 -145.61 659.44 31.61 664.48 28.21 544.83 -149.02" style="fill:url(#linear-gradient-100)"/><polygon points="542.58 153.13 542.58 -148.37 536.55 -148.97 486.37 101.42 492.34 102.62 536.49 -117.69 536.49 153.13 542.58 153.13 542.58 153.13" style="fill:url(#linear-gradient-101)"/><polyline points="455.73 66.17 542.1 -149.35 536.45 -151.62 450.08 63.91" style="fill:url(#linear-gradient-102)"/><polyline points="534.64 -149.02 414.99 28.21 420.04 31.61 539.68 -145.61" style="fill:url(#linear-gradient-195)"/><polygon points="365.71 0.07 363.56 -2.09 212.65 148.82 63.76 -0.07 212.52 -148.82 363.56 2.22 365.71 0.07 363.56 -2.09 365.71 0.07 367.86 -2.09 212.52 -157.43 55.16 -0.07 212.65 157.43 370.02 0.07 367.86 -2.09 365.71 0.07" style="fill:url(#linear-gradient-196)"/><polygon points="215.56 153.13 215.56 -117.69 259.72 102.62 265.69 101.42 215.5 -148.97 209.48 -148.37 209.48 153.13 215.56 153.13 215.56 153.13" style="fill:url(#linear-gradient-197)"/><polyline points="301.98 63.91 215.61 -151.62 209.96 -149.35 296.33 66.17" style="fill:url(#linear-gradient-198)"/><polyline points="212.37 -145.61 332.02 31.61 337.07 28.21 217.42 -149.02" style="fill:url(#linear-gradient-199)"/><polygon points="215.17 153.13 215.17 -148.37 209.14 -148.97 158.96 101.42 164.93 102.62 209.08 -117.69 209.08 153.13 215.17 153.13 215.17 153.13" style="fill:url(#linear-gradient-200)"/><polyline points="128.32 66.17 214.69 -149.35 209.03 -151.62 122.67 63.91" style="fill:url(#linear-gradient-201)"/></g><g style="clip-path:url(#clip-path-8)"><polygon points="693.13 720.07 690.97 717.91 540.07 868.82 391.18 719.93 539.93 571.18 690.97 722.22 693.13 720.07 690.97 717.91 693.13 720.07 695.28 717.91 539.93 562.57 382.57 719.93 540.06 877.43 697.43 720.07 695.28 717.91 693.13 720.07" style="fill:url(#linear-gradient-110)"/><polygon points="542.98 873.13 542.98 602.31 587.13 822.62 593.1 821.42 542.92 571.03 536.89 571.63 536.89 873.13 542.98 873.13 542.98 873.13" style="fill:url(#linear-gradient-111)"/><polyline points="629.39 783.91 543.02 568.38 537.37 570.65 623.74 786.17" style="fill:url(#linear-gradient-112)"/><polyline points="539.79 574.39 659.44 751.62 664.48 748.21 544.83 570.98" style="fill:url(#linear-gradient-113)"/><polygon points="542.58 873.13 542.58 571.63 536.55 571.03 486.37 821.42 492.34 822.62 536.49 602.31 536.49 873.13 542.58 873.13 542.58 873.13" style="fill:url(#linear-gradient-114)"/><polyline points="455.73 786.17 542.1 570.65 536.45 568.38 450.08 783.91" style="fill:url(#linear-gradient-115)"/><polyline points="534.64 570.98 414.99 748.21 420.04 751.62 539.68 574.39" style="fill:url(#linear-gradient-208)"/><polygon points="365.71 720.07 363.56 717.91 212.65 868.82 63.76 719.93 212.52 571.18 363.56 722.22 365.71 720.07 363.56 717.91 365.71 720.07 367.86 717.91 212.52 562.57 55.16 719.93 212.65 877.43 370.02 720.07 367.86 717.91 365.71 720.07" style="fill:url(#linear-gradient-209)"/><polygon points="215.56 873.13 215.56 602.3 259.72 822.62 265.69 821.42 215.5 571.03 209.48 571.63 209.48 873.13 215.56 873.13 215.56 873.13" style="fill:url(#linear-gradient-210)"/><polyline points="301.98 783.91 215.61 568.38 209.96 570.65 296.33 786.17" style="fill:url(#linear-gradient-211)"/><polyline points="212.37 574.39 332.02 751.62 337.07 748.21 217.42 570.98" style="fill:url(#linear-gradient-212)"/><polygon points="215.17 873.13 215.17 571.63 209.14 571.03 158.96 821.42 164.93 822.62 209.08 602.31 209.08 873.13 215.17 873.13 215.17 873.13" style="fill:url(#linear-gradient-213)"/><polyline points="128.32 786.17 214.69 570.65 209.03 568.38 122.67 783.91" style="fill:url(#linear-gradient-214)"/><polygon points="529.42 540.07 527.27 537.91 376.36 688.82 227.47 539.93 376.23 391.18 527.27 542.22 529.42 540.07 527.27 537.91 529.42 540.07 531.57 537.91 376.23 382.57 218.86 539.93 376.36 697.43 533.72 540.07 531.57 537.91 529.42 540.07" style="fill:url(#linear-gradient-215)"/><polygon points="379.27 693.13 379.27 422.31 423.43 642.62 429.4 641.42 379.21 391.03 373.18 391.63 373.18 693.13 379.27 693.13 379.27 693.13" style="fill:url(#linear-gradient-216)"/><polyline points="465.69 603.91 379.32 388.38 373.67 390.65 460.03 606.17" style="fill:url(#linear-gradient-217)"/><polyline points="376.08 394.39 495.73 571.62 500.77 568.21 381.13 390.98" style="fill:url(#linear-gradient-218)"/><polygon points="378.88 693.13 378.88 391.63 372.85 391.03 322.66 641.42 328.63 642.62 372.79 422.31 372.79 693.13 378.88 693.13 378.88 693.13" style="fill:url(#linear-gradient-219)"/><polyline points="292.02 606.17 378.39 390.65 372.74 388.38 286.37 603.91" style="fill:url(#linear-gradient-220)"/><polyline points="370.93 390.98 251.28 568.21 256.33 571.62 375.98 394.39" style="fill:url(#linear-gradient-221)"/><polygon points="693.13 360.07 690.97 357.91 540.07 508.82 391.18 359.93 539.93 211.18 690.97 362.22 693.13 360.07 690.97 357.91 693.13 360.07 695.28 357.91 539.93 202.57 382.57 359.93 540.06 517.43 697.43 360.07 695.28 357.91 693.13 360.07" style="fill:url(#linear-gradient-77)"/><polygon points="542.98 513.13 542.98 242.31 587.13 462.62 593.1 461.42 542.92 211.03 536.89 211.63 536.89 513.13 542.98 513.13 542.98 513.13" style="fill:url(#linear-gradient-78)"/><polyline points="629.39 423.91 543.02 208.38 537.37 210.65 623.74 426.17" style="fill:url(#linear-gradient-79)"/><polyline points="539.79 214.39 659.44 391.62 664.48 388.21 544.83 210.98" style="fill:url(#linear-gradient-80)"/><polygon points="542.58 513.13 542.58 211.63 536.55 211.03 486.37 461.42 492.34 462.62 536.49 242.31 536.49 513.13 542.58 513.13 542.58 513.13" style="fill:url(#linear-gradient-81)"/><polyline points="455.73 426.17 542.1 210.65 536.45 208.38 450.08 423.91" style="fill:url(#linear-gradient-82)"/><polyline points="534.64 210.98 414.99 388.21 420.04 391.62 539.68 214.39" style="fill:url(#linear-gradient-175)"/><polygon points="365.71 360.07 363.56 357.91 212.65 508.82 63.76 359.93 212.52 211.18 363.56 362.22 365.71 360.07 363.56 357.91 365.71 360.07 367.86 357.91 212.52 202.57 55.16 359.93 212.65 517.43 370.02 360.07 367.86 357.91 365.71 360.07" style="fill:url(#linear-gradient-176)"/><polygon points="215.56 513.13 215.56 242.31 259.72 462.62 265.69 461.42 215.5 211.03 209.48 211.63 209.48 513.13 215.56 513.13 215.56 513.13" style="fill:url(#linear-gradient-177)"/><polyline points="301.98 423.91 215.61 208.38 209.96 210.65 296.33 426.17" style="fill:url(#linear-gradient-178)"/><polyline points="212.37 214.39 332.02 391.62 337.07 388.21 217.42 210.98" style="fill:url(#linear-gradient-179)"/><polygon points="215.17 513.13 215.17 211.63 209.14 211.03 158.96 461.42 164.93 462.62 209.08 242.31 209.08 513.13 215.17 513.13 215.17 513.13" style="fill:url(#linear-gradient-180)"/><polyline points="128.32 426.17 214.69 210.65 209.03 208.38 122.67 423.91" style="fill:url(#linear-gradient-181)"/></g><g style="clip-path:url(#clip-path-9)"><polygon points="693.13 1080.07 690.97 1077.91 540.07 1228.82 391.18 1079.93 539.93 931.18 690.97 1082.22 693.13 1080.07 690.97 1077.91 693.13 1080.07 695.28 1077.91 539.93 922.57 382.57 1079.93 540.06 1237.43 697.43 1080.07 695.28 1077.91 693.13 1080.07" style="fill:url(#linear-gradient-143)"/><polygon points="542.98 1233.13 542.98 962.31 587.13 1182.62 593.1 1181.42 542.92 931.03 536.89 931.63 536.89 1233.13 542.98 1233.13 542.98 1233.13" style="fill:url(#linear-gradient-144)"/><polyline points="629.39 1143.91 543.02 928.38 537.37 930.65 623.74 1146.17" style="fill:url(#linear-gradient-145)"/><polyline points="539.79 934.39 659.44 1111.62 664.48 1108.21 544.83 930.98" style="fill:url(#linear-gradient-146)"/><polygon points="542.58 1233.13 542.58 931.63 536.55 931.03 486.37 1181.42 492.34 1182.62 536.49 962.31 536.49 1233.13 542.58 1233.13 542.58 1233.13" style="fill:url(#linear-gradient-147)"/><polyline points="455.73 1146.17 542.1 930.65 536.45 928.38 450.08 1143.91" style="fill:url(#linear-gradient-148)"/><polyline points="534.64 930.98 414.99 1108.21 420.04 1111.62 539.68 934.39" style="fill:url(#linear-gradient-241)"/><polygon points="365.71 1080.07 363.56 1077.91 212.65 1228.82 63.76 1079.93 212.52 931.18 363.56 1082.22 365.71 1080.07 363.56 1077.91 365.71 1080.07 367.86 1077.91 212.52 922.57 55.16 1079.93 212.65 1237.43 370.02 1080.07 367.86 1077.91 365.71 1080.07" style="fill:url(#linear-gradient-242)"/><polygon points="215.56 1233.13 215.56 962.31 259.72 1182.62 265.69 1181.42 215.5 931.03 209.48 931.63 209.48 1233.13 215.56 1233.13 215.56 1233.13" style="fill:url(#linear-gradient-243)"/><polyline points="301.98 1143.91 215.61 928.38 209.96 930.65 296.33 1146.17" style="fill:url(#linear-gradient-244)"/><polyline points="212.37 934.39 332.02 1111.62 337.07 1108.21 217.42 930.98" style="fill:url(#linear-gradient-245)"/><polygon points="215.17 1233.13 215.17 931.63 209.14 931.03 158.96 1181.42 164.93 1182.62 209.08 962.31 209.08 1233.13 215.17 1233.13 215.17 1233.13" style="fill:url(#linear-gradient-246)"/><polyline points="128.32 1146.17 214.69 930.65 209.03 928.38 122.67 1143.91" style="fill:url(#linear-gradient-247)"/><polygon points="529.42 900.07 527.27 897.91 376.36 1048.82 227.47 899.93 376.23 751.18 527.27 902.22 529.42 900.07 527.27 897.91 529.42 900.07 531.57 897.91 376.23 742.57 218.86 899.93 376.36 1057.43 533.72 900.07 531.57 897.91 529.42 900.07" style="fill:url(#linear-gradient-248)"/><polygon points="379.27 1053.13 379.27 782.31 423.43 1002.62 429.4 1001.42 379.21 751.03 373.18 751.63 373.18 1053.13 379.27 1053.13 379.27 1053.13" style="fill:url(#linear-gradient-249)"/><polyline points="465.69 963.91 379.32 748.38 373.67 750.65 460.03 966.17" style="fill:url(#linear-gradient-250)"/><polyline points="376.08 754.39 495.73 931.62 500.77 928.21 381.13 750.98" style="fill:url(#linear-gradient-251)"/><polygon points="378.88 1053.13 378.88 751.63 372.85 751.03 322.66 1001.42 328.63 1002.62 372.79 782.31 372.79 1053.13 378.88 1053.13 378.88 1053.13" style="fill:url(#linear-gradient-252)"/><polyline points="292.02 966.17 378.39 750.65 372.74 748.38 286.37 963.91" style="fill:url(#linear-gradient-253)"/><polyline points="370.93 750.98 251.28 928.21 256.33 931.62 375.98 754.39" style="fill:url(#linear-gradient-254)"/><polygon points="693.13 720.07 690.97 717.91 540.07 868.82 391.18 719.93 539.93 571.18 690.97 722.22 693.13 720.07 690.97 717.91 693.13 720.07 695.28 717.91 539.93 562.57 382.57 719.93 540.06 877.43 697.43 720.07 695.28 717.91 693.13 720.07" style="fill:url(#linear-gradient-110)"/><polygon points="542.98 873.13 542.98 602.31 587.13 822.62 593.1 821.42 542.92 571.03 536.89 571.63 536.89 873.13 542.98 873.13 542.98 873.13" style="fill:url(#linear-gradient-111)"/><polyline points="629.39 783.91 543.02 568.38 537.37 570.65 623.74 786.17" style="fill:url(#linear-gradient-112)"/><polyline points="539.79 574.39 659.44 751.62 664.48 748.21 544.83 570.98" style="fill:url(#linear-gradient-113)"/><polygon points="542.58 873.13 542.58 571.63 536.55 571.03 486.37 821.42 492.34 822.62 536.49 602.31 536.49 873.13 542.58 873.13 542.58 873.13" style="fill:url(#linear-gradient-114)"/><polyline points="455.73 786.17 542.1 570.65 536.45 568.38 450.08 783.91" style="fill:url(#linear-gradient-115)"/><polyline points="534.64 570.98 414.99 748.21 420.04 751.62 539.68 574.39" style="fill:url(#linear-gradient-208)"/><polygon points="365.71 720.07 363.56 717.91 212.65 868.82 63.76 719.93 212.52 571.18 363.56 722.22 365.71 720.07 363.56 717.91 365.71 720.07 367.86 717.91 212.52 562.57 55.16 719.93 212.65 877.43 370.02 720.07 367.86 717.91 365.71 720.07" style="fill:url(#linear-gradient-209)"/><polygon points="215.56 873.13 215.56 602.3 259.72 822.62 265.69 821.42 215.5 571.03 209.48 571.63 209.48 873.13 215.56 873.13 215.56 873.13" style="fill:url(#linear-gradient-210)"/><polyline points="301.98 783.91 215.61 568.38 209.96 570.65 296.33 786.17" style="fill:url(#linear-gradient-211)"/><polyline points="212.37 574.39 332.02 751.62 337.07 748.21 217.42 570.98" style="fill:url(#linear-gradient-212)"/><polygon points="215.17 873.13 215.17 571.63 209.14 571.03 158.96 821.42 164.93 822.62 209.08 602.31 209.08 873.13 215.17 873.13 215.17 873.13" style="fill:url(#linear-gradient-213)"/><polyline points="128.32 786.17 214.69 570.65 209.03 568.38 122.67 783.91" style="fill:url(#linear-gradient-214)"/></g><g style="clip-path:url(#clip-path-10)"><polygon points="365.71 360.07 363.56 357.91 212.65 508.82 63.76 359.93 212.52 211.18 363.56 362.22 365.71 360.07 363.56 357.91 365.71 360.07 367.86 357.91 212.52 202.57 55.16 359.93 212.65 517.43 370.02 360.07 367.86 357.91 365.71 360.07" style="fill:url(#linear-gradient-176)"/><polygon points="215.56 513.13 215.56 242.31 259.72 462.62 265.69 461.42 215.5 211.03 209.48 211.63 209.48 513.13 215.56 513.13 215.56 513.13" style="fill:url(#linear-gradient-177)"/><polyline points="301.98 423.91 215.61 208.38 209.96 210.65 296.33 426.17" style="fill:url(#linear-gradient-178)"/><polyline points="212.37 214.39 332.02 391.62 337.07 388.21 217.42 210.98" style="fill:url(#linear-gradient-179)"/><polygon points="215.17 513.13 215.17 211.63 209.14 211.03 158.96 461.42 164.93 462.62 209.08 242.31 209.08 513.13 215.17 513.13 215.17 513.13" style="fill:url(#linear-gradient-180)"/><polyline points="128.32 426.17 214.69 210.65 209.03 208.38 122.67 423.91" style="fill:url(#linear-gradient-181)"/><polyline points="207.22 210.98 87.58 388.21 92.62 391.62 212.27 214.39" style="fill:url(#linear-gradient-274)"/><polygon points="38.3 360.07 36.15 357.91 -114.76 508.82 -263.65 359.93 -114.89 211.18 36.15 362.22 38.3 360.07 36.15 357.91 38.3 360.07 40.45 357.91 -114.89 202.57 -272.26 359.93 -114.76 517.43 42.6 360.07 40.45 357.91 38.3 360.07" style="fill:url(#linear-gradient-275)"/><polyline points="-115.04 214.39 4.61 391.62 9.65 388.21 -109.99 210.98" style="fill:url(#linear-gradient-276)"/><polygon points="202 180.07 199.85 177.91 48.94 328.82 -99.94 179.93 48.81 31.18 199.85 182.22 202 180.07 199.85 177.91 202 180.07 204.16 177.91 48.81 22.57 -108.55 179.93 48.94 337.43 206.31 180.07 204.16 177.91 202 180.07" style="fill:url(#linear-gradient-277)"/><polygon points="51.86 333.13 51.86 62.31 96.01 282.62 101.98 281.42 51.8 31.03 45.77 31.63 45.77 333.13 51.86 333.13 51.86 333.13" style="fill:url(#linear-gradient-278)"/><polyline points="138.27 243.91 51.9 28.38 46.25 30.65 132.62 246.17" style="fill:url(#linear-gradient-279)"/><polyline points="48.67 34.39 168.31 211.62 173.36 208.21 53.71 30.98" style="fill:url(#linear-gradient-280)"/><polygon points="51.46 333.13 51.46 31.63 45.43 31.03 -4.75 281.42 1.22 282.62 45.37 62.31 45.37 333.13 51.46 333.13 51.46 333.13" style="fill:url(#linear-gradient-281)"/><polyline points="-35.39 246.17 50.98 30.65 45.33 28.38 -41.04 243.91" style="fill:url(#linear-gradient-282)"/><polyline points="43.52 30.98 -76.13 208.21 -71.08 211.62 48.56 34.39" style="fill:url(#linear-gradient-283)"/><polygon points="365.71 0.07 363.56 -2.09 212.65 148.82 63.76 -0.07 212.52 -148.82 363.56 2.22 365.71 0.07 363.56 -2.09 365.71 0.07 367.86 -2.09 212.52 -157.43 55.16 -0.07 212.65 157.43 370.02 0.07 367.86 -2.09 365.71 0.07" style="fill:url(#linear-gradient-196)"/><polygon points="215.56 153.13 215.56 -117.69 259.72 102.62 265.69 101.42 215.5 -148.97 209.48 -148.37 209.48 153.13 215.56 153.13 215.56 153.13" style="fill:url(#linear-gradient-197)"/><polyline points="301.98 63.91 215.61 -151.62 209.96 -149.35 296.33 66.17" style="fill:url(#linear-gradient-198)"/><polyline points="212.37 -145.61 332.02 31.61 337.07 28.21 217.42 -149.02" style="fill:url(#linear-gradient-199)"/><polygon points="215.17 153.13 215.17 -148.37 209.14 -148.97 158.96 101.42 164.93 102.62 209.08 -117.69 209.08 153.13 215.17 153.13 215.17 153.13" style="fill:url(#linear-gradient-200)"/><polyline points="128.32 66.17 214.69 -149.35 209.03 -151.62 122.67 63.91" style="fill:url(#linear-gradient-201)"/><polyline points="207.22 -149.02 87.58 28.21 92.62 31.61 212.27 -145.61" style="fill:url(#linear-gradient-290)"/><polygon points="38.3 0.07 36.15 -2.09 -114.76 148.82 -263.65 -0.07 -114.89 -148.82 36.15 2.22 38.3 0.07 36.15 -2.09 38.3 0.07 40.45 -2.09 -114.89 -157.43 -272.26 -0.07 -114.76 157.43 42.6 0.07 40.45 -2.09 38.3 0.07" style="fill:url(#linear-gradient-291)"/><polyline points="-115.04 -145.61 4.61 31.61 9.65 28.21 -109.99 -149.02" style="fill:url(#linear-gradient-292)"/></g><g style="clip-path:url(#clip-path-11)"><polygon points="365.71 720.07 363.56 717.91 212.65 868.82 63.76 719.93 212.52 571.18 363.56 722.22 365.71 720.07 363.56 717.91 365.71 720.07 367.86 717.91 212.52 562.57 55.16 719.93 212.65 877.43 370.02 720.07 367.86 717.91 365.71 720.07" style="fill:url(#linear-gradient-209)"/><polygon points="215.56 873.13 215.56 602.3 259.72 822.62 265.69 821.42 215.5 571.03 209.48 571.63 209.48 873.13 215.56 873.13 215.56 873.13" style="fill:url(#linear-gradient-210)"/><polyline points="301.98 783.91 215.61 568.38 209.96 570.65 296.33 786.17" style="fill:url(#linear-gradient-211)"/><polyline points="212.37 574.39 332.02 751.62 337.07 748.21 217.42 570.98" style="fill:url(#linear-gradient-212)"/><polygon points="215.17 873.13 215.17 571.63 209.14 571.03 158.96 821.42 164.93 822.62 209.08 602.31 209.08 873.13 215.17 873.13 215.17 873.13" style="fill:url(#linear-gradient-213)"/><polyline points="128.32 786.17 214.69 570.65 209.03 568.38 122.67 783.91" style="fill:url(#linear-gradient-214)"/><polyline points="207.22 570.98 87.58 748.21 92.62 751.62 212.27 574.39" style="fill:url(#linear-gradient-299)"/><polygon points="38.3 720.07 36.15 717.91 -114.76 868.82 -263.65 719.93 -114.89 571.18 36.15 722.22 38.3 720.07 36.15 717.91 38.3 720.07 40.45 717.91 -114.89 562.57 -272.26 719.93 -114.76 877.43 42.6 720.07 40.45 717.91 38.3 720.07" style="fill:url(#linear-gradient-300)"/><polyline points="-115.04 574.39 4.61 751.62 9.65 748.21 -109.99 570.98" style="fill:url(#linear-gradient-301)"/><polygon points="202 540.07 199.85 537.91 48.94 688.82 -99.94 539.93 48.81 391.18 199.85 542.22 202 540.07 199.85 537.91 202 540.07 204.16 537.91 48.81 382.57 -108.55 539.93 48.94 697.43 206.31 540.07 204.16 537.91 202 540.07" style="fill:url(#linear-gradient-302)"/><polygon points="51.86 693.13 51.86 422.31 96.01 642.62 101.98 641.42 51.8 391.03 45.77 391.63 45.77 693.13 51.86 693.13 51.86 693.13" style="fill:url(#linear-gradient-303)"/><polyline points="138.27 603.91 51.9 388.38 46.25 390.65 132.62 606.17" style="fill:url(#linear-gradient-304)"/><polyline points="48.67 394.39 168.31 571.62 173.36 568.21 53.71 390.98" style="fill:url(#linear-gradient-305)"/><polygon points="51.46 693.13 51.46 391.63 45.43 391.03 -4.75 641.42 1.22 642.62 45.37 422.31 45.37 693.13 51.46 693.13 51.46 693.13" style="fill:url(#linear-gradient-306)"/><polyline points="-35.39 606.17 50.98 390.65 45.33 388.38 -41.04 603.91" style="fill:url(#linear-gradient-307)"/><polyline points="43.52 390.98 -76.13 568.21 -71.08 571.62 48.56 394.39" style="fill:url(#linear-gradient-308)"/><polygon points="365.71 360.07 363.56 357.91 212.65 508.82 63.76 359.93 212.52 211.18 363.56 362.22 365.71 360.07 363.56 357.91 365.71 360.07 367.86 357.91 212.52 202.57 55.16 359.93 212.65 517.43 370.02 360.07 367.86 357.91 365.71 360.07" style="fill:url(#linear-gradient-176)"/><polygon points="215.56 513.13 215.56 242.31 259.72 462.62 265.69 461.42 215.5 211.03 209.48 211.63 209.48 513.13 215.56 513.13 215.56 513.13" style="fill:url(#linear-gradient-177)"/><polyline points="301.98 423.91 215.61 208.38 209.96 210.65 296.33 426.17" style="fill:url(#linear-gradient-178)"/><polyline points="212.37 214.39 332.02 391.62 337.07 388.21 217.42 210.98" style="fill:url(#linear-gradient-179)"/><polygon points="215.17 513.13 215.17 211.63 209.14 211.03 158.96 461.42 164.93 462.62 209.08 242.31 209.08 513.13 215.17 513.13 215.17 513.13" style="fill:url(#linear-gradient-180)"/><polyline points="128.32 426.17 214.69 210.65 209.03 208.38 122.67 423.91" style="fill:url(#linear-gradient-181)"/><polyline points="207.22 210.98 87.58 388.21 92.62 391.62 212.27 214.39" style="fill:url(#linear-gradient-274)"/><polygon points="38.3 360.07 36.15 357.91 -114.76 508.82 -263.65 359.93 -114.89 211.18 36.15 362.22 38.3 360.07 36.15 357.91 38.3 360.07 40.45 357.91 -114.89 202.57 -272.26 359.93 -114.76 517.43 42.6 360.07 40.45 357.91 38.3 360.07" style="fill:url(#linear-gradient-275)"/><polyline points="-115.04 214.39 4.61 391.62 9.65 388.21 -109.99 210.98" style="fill:url(#linear-gradient-276)"/></g><g style="clip-path:url(#clip-path-12)"><polygon points="365.71 1080.07 363.56 1077.91 212.65 1228.82 63.76 1079.93 212.52 931.18 363.56 1082.22 365.71 1080.07 363.56 1077.91 365.71 1080.07 367.86 1077.91 212.52 922.57 55.16 1079.93 212.65 1237.43 370.02 1080.07 367.86 1077.91 365.71 1080.07" style="fill:url(#linear-gradient-242)"/><polygon points="215.56 1233.13 215.56 962.31 259.72 1182.62 265.69 1181.42 215.5 931.03 209.48 931.63 209.48 1233.13 215.56 1233.13 215.56 1233.13" style="fill:url(#linear-gradient-243)"/><polyline points="301.98 1143.91 215.61 928.38 209.96 930.65 296.33 1146.17" style="fill:url(#linear-gradient-244)"/><polyline points="212.37 934.39 332.02 1111.62 337.07 1108.21 217.42 930.98" style="fill:url(#linear-gradient-245)"/><polygon points="215.17 1233.13 215.17 931.63 209.14 931.03 158.96 1181.42 164.93 1182.62 209.08 962.31 209.08 1233.13 215.17 1233.13 215.17 1233.13" style="fill:url(#linear-gradient-246)"/><polyline points="128.32 1146.17 214.69 930.65 209.03 928.38 122.67 1143.91" style="fill:url(#linear-gradient-247)"/><polyline points="207.22 930.98 87.58 1108.21 92.62 1111.62 212.27 934.39" style="fill:url(#linear-gradient-324)"/><polygon points="38.3 1080.07 36.15 1077.91 -114.76 1228.82 -263.65 1079.93 -114.89 931.18 36.15 1082.22 38.3 1080.07 36.15 1077.91 38.3 1080.07 40.45 1077.91 -114.89 922.57 -272.26 1079.93 -114.76 1237.43 42.6 1080.07 40.45 1077.91 38.3 1080.07" style="fill:url(#linear-gradient-325)"/><polyline points="-115.04 934.39 4.61 1111.62 9.65 1108.21 -109.99 930.98" style="fill:url(#linear-gradient-326)"/><polygon points="202 900.07 199.85 897.91 48.94 1048.82 -99.94 899.93 48.81 751.18 199.85 902.22 202 900.07 199.85 897.91 202 900.07 204.16 897.91 48.81 742.57 -108.55 899.93 48.94 1057.43 206.31 900.07 204.16 897.91 202 900.07" style="fill:url(#linear-gradient-327)"/><polygon points="51.86 1053.13 51.86 782.31 96.01 1002.62 101.98 1001.42 51.8 751.03 45.77 751.63 45.77 1053.13 51.86 1053.13 51.86 1053.13" style="fill:url(#linear-gradient-328)"/><polyline points="138.27 963.91 51.9 748.38 46.25 750.65 132.62 966.17" style="fill:url(#linear-gradient-329)"/><polyline points="48.67 754.39 168.31 931.62 173.36 928.21 53.71 750.98" style="fill:url(#linear-gradient-330)"/><polygon points="51.46 1053.13 51.46 751.63 45.43 751.03 -4.75 1001.42 1.22 1002.62 45.37 782.31 45.37 1053.13 51.46 1053.13 51.46 1053.13" style="fill:url(#linear-gradient-331)"/><polyline points="-35.39 966.17 50.98 750.65 45.33 748.38 -41.04 963.91" style="fill:url(#linear-gradient-332)"/><polyline points="43.52 750.98 -76.13 928.21 -71.08 931.62 48.56 754.39" style="fill:url(#linear-gradient-333)"/><polygon points="365.71 720.07 363.56 717.91 212.65 868.82 63.76 719.93 212.52 571.18 363.56 722.22 365.71 720.07 363.56 717.91 365.71 720.07 367.86 717.91 212.52 562.57 55.16 719.93 212.65 877.43 370.02 720.07 367.86 717.91 365.71 720.07" style="fill:url(#linear-gradient-209)"/><polygon points="215.56 873.13 215.56 602.3 259.72 822.62 265.69 821.42 215.5 571.03 209.48 571.63 209.48 873.13 215.56 873.13 215.56 873.13" style="fill:url(#linear-gradient-210)"/><polyline points="301.98 783.91 215.61 568.38 209.96 570.65 296.33 786.17" style="fill:url(#linear-gradient-211)"/><polyline points="212.37 574.39 332.02 751.62 337.07 748.21 217.42 570.98" style="fill:url(#linear-gradient-212)"/><polygon points="215.17 873.13 215.17 571.63 209.14 571.03 158.96 821.42 164.93 822.62 209.08 602.31 209.08 873.13 215.17 873.13 215.17 873.13" style="fill:url(#linear-gradient-213)"/><polyline points="128.32 786.17 214.69 570.65 209.03 568.38 122.67 783.91" style="fill:url(#linear-gradient-214)"/><polyline points="207.22 570.98 87.58 748.21 92.62 751.62 212.27 574.39" style="fill:url(#linear-gradient-299)"/><polygon points="38.3 720.07 36.15 717.91 -114.76 868.82 -263.65 719.93 -114.89 571.18 36.15 722.22 38.3 720.07 36.15 717.91 38.3 720.07 40.45 717.91 -114.89 562.57 -272.26 719.93 -114.76 877.43 42.6 720.07 40.45 717.91 38.3 720.07" style="fill:url(#linear-gradient-300)"/><polyline points="-115.04 574.39 4.61 751.62 9.65 748.21 -109.99 570.98" style="fill:url(#linear-gradient-301)"/></g></svg>