<svg xmlns="http://www.w3.org/2000/svg" xmlns:xlink="http://www.w3.org/1999/xlink" width="658" height="426" viewBox="0 0 658 426">
  <defs>
    <linearGradient id="linear-gradient" x1="0.979" y1="0.989" x2="0" gradientUnits="objectBoundingBox">
      <stop offset="0" stop-color="#ffd6d3" stop-opacity="0"/>
      <stop offset="1" stop-color="#f29791" stop-opacity="0"/>
    </linearGradient>
    <filter id="Rectangle_43134" x="0" y="0" width="658" height="426" filterUnits="userSpaceOnUse">
      <feOffset dy="3" input="SourceAlpha"/>
      <feGaussianBlur stdDeviation="5" result="blur"/>
      <feFlood flood-opacity="0.161"/>
      <feComposite operator="in" in2="blur"/>
      <feComposite in="SourceGraphic"/>
    </filter>
  </defs>
  <g id="Group_65668" data-name="Group 65668" transform="translate(-2 -280)">
    <g transform="matrix(1, 0, 0, 1, 2, 280)" filter="url(#Rectangle_43134)">
      <rect id="Rectangle_43134-2" data-name="Rectangle 43134" width="396" height="628" rx="22" transform="translate(15 408) rotate(-90)" fill="url(#linear-gradient)"/>
    </g>
    <g id="Group_3" data-name="Group 3" transform="translate(92.031 406.571)" opacity="0.854">
      <g id="Rectangle_4" data-name="Rectangle 4" transform="translate(89.397 63.684) rotate(180)" fill="#fff" stroke="#848484" stroke-miterlimit="10" stroke-width="0.75">
        <rect width="89.397" height="63.684" rx="9" stroke="none"/>
        <rect x="0.375" y="0.375" width="88.647" height="62.934" rx="8.625" fill="none"/>
      </g>
      <path id="Path_1" data-name="Path 1" d="M57.37,54.843a22.166,22.166,0,0,1,1.3,7.071,22.532,22.532,0,0,1-2.518,10.7H29.434m0,20.79H56.149a22.7,22.7,0,0,0,0-20.79m58.11-.583H88.746a23.632,23.632,0,0,0,0,20.79m25.513.671H88.746a23.632,23.632,0,0,0,0,20.79m-32.936.085a23.3,23.3,0,0,0,.339-20.963" transform="translate(-27.148 -52.836)" fill="none" stroke="#848484" stroke-linecap="round" stroke-linejoin="round" stroke-width="0.75"/>
    </g>
    <g id="VisaWhite" transform="translate(496.199 624.725)">
      <path id="Path_104041" data-name="Path 104041" d="M127.054,98.753l-17.632,42.011H97.885l-8.707-33.522a4.785,4.785,0,0,0-2.612-3.7A43.824,43.824,0,0,0,75.9,100.059l.218-1.306h18.5a4.925,4.925,0,0,1,5.007,4.354l4.571,24.38,11.319-28.516h11.537Zm45.059,28.3c0-11.1-15.237-11.755-15.237-16.543,0-1.524,1.524-3.047,4.571-3.483a18.942,18.942,0,0,1,10.666,1.959l1.959-8.925A30.43,30.43,0,0,0,163.841,98.1c-10.666,0-18.285,5.66-18.285,13.931,0,6.095,5.442,9.36,9.578,11.319s5.66,3.265,5.66,5.224c0,2.83-3.265,4.136-6.53,4.136a24.233,24.233,0,0,1-11.1-2.612l-1.959,9.142a33.6,33.6,0,0,0,11.972,2.177c11.319,0,18.72-5.66,18.938-14.367m28.3,13.714h10.013l-8.707-42.011h-9.36a4.809,4.809,0,0,0-4.571,3.047L171.46,140.764h11.319l2.177-6.313h13.931Zm-12.19-14.8,5.66-15.673,3.265,15.673ZM142.509,98.753l-8.925,42.011H122.7l8.925-42.011Z" transform="translate(-75.9 -98.1)" fill="#f8f8f8"/>
    </g>
  </g>
</svg>
