<svg xmlns="http://www.w3.org/2000/svg" width="27.45" height="19.55" viewBox="0 0 27.45 19.55">
  <g id="Layer_2" data-name="Layer 2">
    <g id="Layer_1-2" data-name="Layer 1">
      <g id="chip">
        <g>
          <rect x="0.37" y="0.38" width="26.7" height="18.8" rx="2.49" style="fill: #fff"/>
          <path d="M24.59.75A2.12,2.12,0,0,1,26.7,2.86V16.69a2.11,2.11,0,0,1-2.11,2.11H2.86A2.11,2.11,0,0,1,.75,16.69V2.86A2.12,2.12,0,0,1,2.86.75H24.59m0-.75H2.86A2.86,2.86,0,0,0,0,2.86V16.69a2.86,2.86,0,0,0,2.86,2.86H24.59a2.86,2.86,0,0,0,2.86-2.86V2.86A2.86,2.86,0,0,0,24.59,0Z" style="fill: #999"/>
        </g>
        <path d="M9.28.62a7,7,0,0,1,.4,2.17A6.78,6.78,0,0,1,8.9,6.07H.7m0,6.39H8.9a6.91,6.91,0,0,0,.78-3.29,7,7,0,0,0-.78-3.1m17.84-.18H18.91a7.26,7.26,0,0,0,0,6.39m7.83.2H18.91a7.26,7.26,0,0,0,0,6.39m-10.11,0a7.14,7.14,0,0,0,.81-3.06,7.09,7.09,0,0,0-.71-3.37" style="fill: none;stroke: #999;stroke-linecap: round;stroke-linejoin: round;stroke-width: 0.75px"/>
      </g>
    </g>
  </g>
</svg>
