<svg xmlns="http://www.w3.org/2000/svg" width="41.509" height="34.563" viewBox="0 0 41.509 34.563">
  <g id="Group_65310" data-name="Group 65310" transform="translate(1.503 1.5)">
    <g id="Icon_feather-image" data-name="Icon feather-image" transform="translate(-0.003)">
      <path id="Path_104066" data-name="Path 104066" d="M7.694,4.5H30.056A3.194,3.194,0,0,1,33.25,7.694V30.056a3.194,3.194,0,0,1-3.194,3.194H7.694A3.194,3.194,0,0,1,4.5,30.056V7.694A3.194,3.194,0,0,1,7.694,4.5Z" transform="translate(-4.5 -4.5)" fill="none" stroke="#656565" stroke-linecap="round" stroke-linejoin="round" stroke-width="3"/>
      <path id="Path_104067" data-name="Path 104067" d="M15.292,12.9a2.4,2.4,0,1,1-2.4-2.4A2.4,2.4,0,0,1,15.292,12.9Z" transform="translate(-4.111 -4.111)" fill="none" stroke="#656565" stroke-linecap="round" stroke-linejoin="round" stroke-width="3"/>
      <path id="Path_104068" data-name="Path 104068" d="M33.056,22.986,25.069,15,7.5,32.569" transform="translate(-4.306 -3.819)" fill="none" stroke="#656565" stroke-linecap="round" stroke-linejoin="round" stroke-width="3"/>
    </g>
    <g id="Path_104072" data-name="Path 104072" transform="translate(20.814 13.47)" fill="#656565">
      <path d="M 9.595833778381348 18.59257888793945 C 4.85607385635376 18.59257888793945 1.000003814697266 14.64657878875732 1.000003814697266 9.79628849029541 C 1.000003814697266 4.945998668670654 4.85607385635376 0.9999985098838806 9.595833778381348 0.9999985098838806 C 14.33559417724609 0.9999985098838806 18.19166374206543 4.945998668670654 18.19166374206543 9.79628849029541 C 18.19166374206543 14.64657878875732 14.33559417724609 18.59257888793945 9.595833778381348 18.59257888793945 Z" stroke="none"/>
      <path d="M 9.595833778381348 1.999998092651367 C 5.40748405456543 1.999998092651367 2.000003814697266 5.497398376464844 2.000003814697266 9.79628849029541 C 2.000003814697266 14.09517860412598 5.40748405456543 17.59257888793945 9.595833778381348 17.59257888793945 C 13.78418350219727 17.59257888793945 17.19166374206543 14.09517860412598 17.19166374206543 9.79628849029541 C 17.19166374206543 5.497398376464844 13.78418350219727 1.999998092651367 9.595833778381348 1.999998092651367 M 9.595833778381348 -1.9073486328125e-06 C 14.89546394348145 -1.9073486328125e-06 19.19166374206543 4.385948181152344 19.19166374206543 9.79628849029541 C 19.19166374206543 15.20662879943848 14.89546394348145 19.59257888793945 9.595833778381348 19.59257888793945 C 4.29620361328125 19.59257888793945 3.814697265625e-06 15.20662879943848 3.814697265625e-06 9.79628849029541 C 3.814697265625e-06 4.385948181152344 4.29620361328125 -1.9073486328125e-06 9.595833778381348 -1.9073486328125e-06 Z" stroke="none" fill="#656565"/>
    </g>
    <path id="Icon_awesome-arrow-up" data-name="Icon awesome-arrow-up" d="M.892,6.6.517,6.228a.4.4,0,0,1,0-.574L3.8,2.366a.4.4,0,0,1,.574,0L7.664,5.653a.4.4,0,0,1,0,.574L7.289,6.6a.406.406,0,0,1-.58-.007L4.768,4.558V9.42a.405.405,0,0,1-.406.406H3.821a.405.405,0,0,1-.406-.406V4.558L1.472,6.6A.4.4,0,0,1,.892,6.6Z" transform="translate(26.54 17.346)" fill="#fff" stroke="#fff" stroke-width="0.4"/>
  </g>
</svg>
