<svg xmlns="http://www.w3.org/2000/svg" xmlns:xlink="http://www.w3.org/1999/xlink" width="50.221" height="50.221" viewBox="0 0 50.221 50.221">
  <defs>
    <filter id="Ellipse_1825" x="0" y="0" width="50.221" height="50.221" filterUnits="userSpaceOnUse">
      <feOffset dy="3" input="SourceAlpha"/>
      <feGaussianBlur stdDeviation="3" result="blur"/>
      <feFlood flood-opacity="0.161"/>
      <feComposite operator="in" in2="blur"/>
      <feComposite in="SourceGraphic"/>
    </filter>
  </defs>
  <g id="Group_65649" data-name="Group 65649" transform="translate(-978.373 -579.351)">
    <g transform="matrix(1, 0, 0, 1, 978.37, 579.35)" filter="url(#Ellipse_1825)">
      <circle id="Ellipse_1825-2" data-name="Ellipse 1825" cx="16.11" cy="16.11" r="16.11" transform="translate(9 6)" fill="#fff"/>
    </g>
    <g id="Icon_feather-rotate-ccw" data-name="Icon feather-rotate-ccw" transform="translate(993.521 593.244)">
      <path id="Path_104329" data-name="Path 104329" d="M1.5,6v5.616H7.116" transform="translate(-1.5 -5.073)" fill="none" stroke="#4b4b4b" stroke-linejoin="round" stroke-width="2"/>
      <path id="Path_104330" data-name="Path 104330" d="M3.849,15.737a8.424,8.424,0,1,0,1.994-8.76L1.5,11.057" transform="translate(-1.5 -4.514)" fill="none" stroke="#4b4b4b" stroke-linejoin="round" stroke-width="2"/>
    </g>
    <g id="Polygon_1" data-name="Polygon 1" transform="matrix(0.848, -0.53, 0.53, 0.848, 999.851, 599.278)" fill="#4b4b4b">
      <path d="M 2.842644691467285 3.151659965515137 L 0.8090147376060486 3.151659965515137 L 1.825829744338989 1.118029952049255 L 2.842644691467285 3.151659965515137 Z" stroke="none"/>
      <path d="M 1.825829744338989 0 L 3.651659727096558 3.651659965515137 L -2.384185791015625e-07 3.651659965515137 L 1.825829744338989 0 Z" stroke="none" fill="#4b4b4b"/>
    </g>
    <g id="Polygon_2" data-name="Polygon 2" transform="matrix(-0.848, 0.53, -0.53, -0.848, 1007.397, 604.422)" fill="#4b4b4b">
      <path d="M 2.842544794082642 3.151559829711914 L 0.8090147972106934 3.151559829711914 L 1.825779795646667 1.118029952049255 L 2.842544794082642 3.151559829711914 Z" stroke="none"/>
      <path d="M 1.825779795646667 0 L 3.651559829711914 3.651559829711914 L -2.384185791015625e-07 3.651559829711914 L 1.825779795646667 0 Z" stroke="none" fill="#4b4b4b"/>
    </g>
  </g>
</svg>
