<svg xmlns="http://www.w3.org/2000/svg" width="31" height="31" viewBox="0 0 31 31">
  <path id="Icon_material-tag-faces" data-name="Icon material-tag-faces" d="M18.485,3A15.5,15.5,0,1,0,34,18.5,15.492,15.492,0,0,0,18.485,3ZM18.5,30.9A12.4,12.4,0,1,1,30.9,18.5,12.4,12.4,0,0,1,18.5,30.9Zm5.425-13.95A2.325,2.325,0,1,0,21.6,14.625,2.322,2.322,0,0,0,23.925,16.95Zm-10.85,0a2.325,2.325,0,1,0-2.325-2.325A2.322,2.322,0,0,0,13.075,16.95ZM18.5,27.025A8.519,8.519,0,0,0,26.42,21.6H10.579A8.519,8.519,0,0,0,18.5,27.025Z" transform="translate(-3 -3)" fill="#656565"/>
</svg>
