<svg xmlns="http://www.w3.org/2000/svg" width="16.423" height="16.423" viewBox="0 0 16.423 16.423">
  <path id="Icon_awesome-font" data-name="Icon awesome-font" d="M15.836,16.327h-.858L10.187,3.045a1.173,1.173,0,0,0-1.111-.8H7.347a1.173,1.173,0,0,0-1.111.8L1.445,16.327H.587A.587.587,0,0,0,0,16.913v1.173a.587.587,0,0,0,.587.587H5.279a.587.587,0,0,0,.587-.587V16.913a.587.587,0,0,0-.587-.587H4.561l.854-2.346h5.593l.854,2.346h-.718a.587.587,0,0,0-.587.587v1.173a.587.587,0,0,0,.587.587h4.692a.587.587,0,0,0,.587-.587V16.913A.587.587,0,0,0,15.836,16.327ZM6.483,11.048,8.211,6.3,9.94,11.048Z" transform="translate(0 -2.25)" fill="#656565"/>
</svg>
