<svg xmlns="http://www.w3.org/2000/svg" width="23.83" height="7.73" viewBox="0 0 23.83 7.73">
  <g id="Layer_2" data-name="Layer 2">
    <g id="Layer_1-2" data-name="Layer 1">
      <g id="visa">
        <g>
          <g>
            <polygon points="10.33 7.6 8.39 7.6 9.6 0.13 11.55 0.13 10.33 7.6" style="fill: #fff"/>
            <path d="M6.75.13,4.9,5.27,4.68,4.16h0L4,.81A.84.84,0,0,0,3.1.13H0L0,.26a7.43,7.43,0,0,1,2,.85L3.72,7.6h2L8.84.13Z" style="fill: #fff"/>
            <path d="M22.05,7.6h1.78L22.27.13H20.71a.9.9,0,0,0-.9.56L16.91,7.6h2l.41-1.11h2.47ZM19.91,5l1-2.79L21.5,5Z" style="fill: #fff"/>
            <path d="M17.07,1.93l.27-1.6A5.5,5.5,0,0,0,15.59,0c-1,0-3.25.42-3.25,2.47s2.69,2,2.69,3-2.42.83-3.21.19l-.29,1.68a5.47,5.47,0,0,0,2.19.42c1.33,0,3.33-.69,3.33-2.56s-2.71-2.12-2.71-3S16.23,1.47,17.07,1.93Z" style="fill: #fff"/>
          </g>
          <path d="M4.68,4.17,4,.81A.84.84,0,0,0,3.1.13H0L0,.26A7.66,7.66,0,0,1,2.89,1.71,5.8,5.8,0,0,1,4.68,4.17Z" style="fill: #fff"/>
        </g>
      </g>
    </g>
  </g>
</svg>
